SplineFontDB: 3.0
FontName: Sebastian-Note-Clef
FullName: Sebastian-Note-Clef
FamilyName: Sebastian-Note-Clef
Weight: Standard

StartChar: parenleft
Encoding: 40 40 2
Width: 80
Flags: W
HStem: -13 25<0 980> 237 25<0 980> 487 25<0 980> 737 25<0 980> 987 25<0 980>
LayerCount: 2
Fore
SplineSet
0 987 m 0
 0 1012 l 0
 980 1012 l 0
 980 987 l 0
 0 987 l 0
0 737 m 0
 0 762 l 0
 980 762 l 0
 980 737 l 0
 0 737 l 0
0 487 m 0
 0 512 l 0
 980 512 l 0
 980 487 l 0
 0 487 l 0
0 237 m 0
 0 262 l 0
 980 262 l 0
 980 237 l 0
 0 237 l 0
0 -13 m 0
 0 12 l 0
 980 12 l 0
 980 -13 l 0
 0 -13 l 0
EndSplineSet
EndChar

StartChar: zero
Encoding: 48 48 3
Width: 310
Flags: HW
LayerCount: 2
Fore
SplineSet
250 308 m 0
 250 340 238 357 214 357 c 0
 181 357 144 315 115 225 c 2
 96 168 l 2
 83 127 78 94 78 70 c 0
 78 36 91 18 116 18 c 0
 149 18 186 60 214 150 c 2
 232 207 l 2
 246 250 250 283 250 308 c 0
26 121 m 0
 26 252 129 379 214 379 c 0
 274 379 304 323 304 254 c 0
 304 122 201 -4 117 -4 c 0
 56 -4 26 51 26 121 c 0
EndSplineSet
EndChar

StartChar: one
Encoding: 49 49 4
Width: 274
Flags: HW
LayerCount: 2
Fore
SplineSet
209 22 m 1
 202 0 l 1
 30 0 l 1
 37 22 l 1
 47 22 l 2
 77 22 96 34 105 63 c 2
 169 258 l 2
 172 267 167 274 158 267 c 2
 75 198 l 1
 61 215 l 1
 215 368 l 1
 261 368 l 1
 163 67 l 2
 152 34 166 22 194 22 c 2
 209 22 l 1
EndSplineSet
EndChar

StartChar: two
Encoding: 50 50 5
Width: 319
Flags: HW
LayerCount: 2
Fore
SplineSet
133 321 m 1
 162 328 181 305 181 283 c 0
 181 261 165 243 143 243 c 0
 120 243 101 262 101 292 c 0
 101 336 154 379 216 379 c 0
 278 379 324 342 324 291 c 0
 324 209 243 178 174 141 c 0
 143 124 111 103 85 79 c 1
 91 80 97 81 103 81 c 0
 131 81 155 53 193 53 c 0
 219 53 242 78 248 108 c 1
 268 108 l 1
 264 60 233 -4 174 -4 c 0
 124 -4 105 35 74 35 c 0
 54 35 40 27 27 0 c 1
 5 0 l 1
 29 65 87 112 148 154 c 0
 217 201 264 233 264 292 c 0
 264 336 241 356 207 356 c 0
 179 356 143 343 133 321 c 1
EndSplineSet
EndChar

StartChar: three
Encoding: 51 51 6
Width: 314
Flags: HW
LayerCount: 2
Fore
SplineSet
50 51 m 1
 59 34 86 18 120 18 c 0
 166 18 200 57 200 115 c 0
 200 158 172 188 124 194 c 1
 129 212 l 1
 208 205 264 224 264 306 c 0
 264 341 237 359 210 359 c 0
 178 359 160 348 154 344 c 1
 172 342 187 328 187 309 c 0
 187 290 172 274 149 274 c 0
 126 274 114 293 114 313 c 0
 114 352 169 379 220 379 c 0
 274 379 324 344 324 295 c 0
 324 235 266 199 200 193 c 1
 237 174 266 141 266 101 c 0
 266 52 222 -4 134 -4 c 0
 66 -4 20 34 20 82 c 0
 20 116 43 131 64 131 c 0
 86 131 106 114 106 91 c 0
 106 65 84 42 50 51 c 1
EndSplineSet
EndChar

StartChar: four
Encoding: 52 52 7
Width: 325
Flags: HW
LayerCount: 2
Fore
SplineSet
94 22 m 2
 124 22 143 35 153 64 c 2
 166 105 l 1
 47 105 l 1
 20 105 l 1
 28 129 l 1
 96 202 155 286 192 369 c 1
 224 361 245 360 279 369 c 1
 203 257 128 206 65 129 c 1
 174 129 l 1
 195 193 l 1
 272 259 l 1
 230 129 l 1
 305 129 l 1
 297 105 l 1
 222 105 l 1
 210 68 l 2
 200 35 213 22 241 22 c 2
 256 22 l 1
 249 0 l 1
 191 0 l 1
 129 0 l 1
 77 0 l 1
 84 22 l 1
 94 22 l 2
EndSplineSet
EndChar

StartChar: five
Encoding: 53 53 8
Width: 308
Flags: HW
LayerCount: 2
Fore
SplineSet
52 45 m 1
 61 31 78 17 117 17 c 0
 167 17 209 73 209 135 c 0
 209 174 194 200 159 200 c 0
 137 200 115 191 96 183 c 1
 83 195 l 1
 139 369 l 1
 177 362 267 359 308 365 c 1
 295 313 223 300 145 312 c 1
 112 211 l 1
 128 217 161 222 177 222 c 0
 232 222 273 188 273 129 c 0
 273 53 206 -4 122 -4 c 0
 60 -4 20 33 20 77 c 0
 20 104 41 123 63 123 c 0
 85 123 101 106 101 84 c 0
 101 62 82 38 52 45 c 1
EndSplineSet
EndChar

StartChar: six
Encoding: 54 54 9
Width: 307
Flags: HW
LayerCount: 2
Fore
SplineSet
229 314 m 0
 229 339 248 348 256 351 c 1
 248 354 239 357 224 357 c 0
 172 357 125 275 104 205 c 1
 127 219 151 227 179 227 c 0
 231 227 265 191 265 141 c 0
 265 60 202 -4 127 -4 c 0
 58 -4 27 57 27 122 c 0
 27 249 131 379 224 379 c 0
 270 379 307 356 307 315 c 0
 307 294 293 275 268 275 c 0
 245 275 229 293 229 314 c 0
205 149 m 0
 205 178 193 203 162 203 c 0
 138 203 98 186 89 156 c 2
 79 122 l 2
 67 78 74 21 119 21 c 0
 173 21 205 85 205 149 c 0
EndSplineSet
EndChar

StartChar: seven
Encoding: 55 55 10
Width: 310
Flags: HW
LayerCount: 2
Fore
SplineSet
276 300 m 1
 264 293 253 290 240 290 c 0
 206 290 187 311 158 311 c 0
 125 311 105 295 88 244 c 1
 64 244 l 1
 106 375 l 1
 130 375 l 1
 127 366 122 350 133 350 c 0
 143 350 158 364 182 364 c 0
 216 364 221 345 261 345 c 0
 289 345 299 360 307 375 c 1
 331 375 l 1
 281 222 193 160 133 -4 c 1
 93 4 72 3 38 -4 c 1
 104 121 207 165 276 300 c 1
EndSplineSet
EndChar

StartChar: eight
Encoding: 56 56 11
Width: 368
Flags: HW
LayerCount: 2
Fore
SplineSet
145 201 m 1
 84 186 25 146 25 92 c 0
 25 37 81 -4 148 -4 c 0
 214 -4 295 38 295 107 c 0
 295 144 276 169 243 197 c 1
 297 212 343 251 343 296 c 0
 343 344 296 379 239 379 c 0
 165 379 113 333 113 277 c 0
 113 252 123 226 145 201 c 1
227 210 m 1
 224 212 220 215 217 217 c 0
 182 243 166 273 166 299 c 0
 166 332 192 358 236 358 c 0
 276 358 300 325 300 290 c 0
 300 256 277 220 227 210 c 1
161 185 m 1
 165 181 171 177 176 173 c 0
 218 142 235 111 235 86 c 0
 235 45 192 17 148 17 c 0
 97 17 72 51 72 87 c 0
 72 135 113 173 161 185 c 1
EndSplineSet
EndChar

StartChar: nine
Encoding: 57 57 12
Width: 320
Flags: HW
LayerCount: 2
Fore
SplineSet
100 63 m 0
 100 47 90 29 70 24 c 1
 77 19 91 18 100 18 c 0
 160 18 207 99 228 169 c 1
 205 155 185 148 156 148 c 0
 104 148 70 184 70 234 c 0
 70 315 138 379 208 379 c 0
 279 379 313 332 313 268 c 0
 313 156 210 -4 100 -4 c 0
 57 -4 20 19 20 53 c 0
 20 80 39 101 62 101 c 0
 85 101 100 84 100 63 c 0
130 226 m 0
 130 197 144 174 175 174 c 0
 201 174 235 189 244 219 c 2
 254 253 l 2
 266 293 263 354 214 354 c 0
 162 354 130 290 130 226 c 0
EndSplineSet
EndChar

StartChar: congruent
Encoding: 64 8773 13
Width: 202
Flags: HW
LayerCount: 2
Fore
SplineSet
204 502 m 0
 204 458 235 425 275 391 c 0
 289 379 304 365 317 350 c 0
 329 335 342 328 346 356 c 0
 347 364 347 373 347 383 c 0
 347 427 314 481 267 504 c 0
 252 512 234 518 220 518 c 0
 207 518 204 509 204 502 c 0
204 668 m 0
 204 626 237 594 275 559 c 0
 319 513 l 0
 332 501 343 501 346 523 c 0
 347 531 347 540 347 549 c 0
 347 593 314 647 267 670 c 0
 252 678 234 684 220 684 c 0
 207 684 204 675 204 668 c 0
458 269 m 0
 470 272 469 271 472 257 c 0
 474 243 474 242 462 240 c 0
 395 229 l 0
 380 226 375 220 376 201 c 0
 377 194 377 185 377 177 c 0
 377 130 363 73 349 42 c 0
 341 27 318 32 325 53 c 0
 341 103 347 129 347 178 c 0
 347 186 347 193 346 200 c 0
 345 218 337 218 319 215 c 0
 222 198 l 0
 204 195 202 188 202 174 c 0
 202 27 l 0
 202 -37 141 -95 74 -95 c 0
 35 -95 0 -68 0 -26 c 0
 0 37 62 95 129 95 c 0
 135 95 146 94 152 94 c 0
 165 94 175 97 175 116 c 0
 175 170 l 0
 175 186 169 189 151 185 c 0
 74 172 l 0
 62 170 61 170 58 184 c 0
 56 198 56 198 69 200 c 0
 149 214 l 0
 170 218 175 223 175 241 c 0
 175 840 l 0
 175 852 178 853 187 853 c 0
 201 853 204 853 204 834 c 0
 204 792 237 760 275 725 c 0
 337 666 377 616 377 547 c 0
 377 531 374 512 368 494 c 0
 361 470 358 460 366 441 c 0
 374 421 377 402 377 381 c 0
 377 364 373 343 367 325 c 0
 360 302 356 294 360 278 c 0
 365 258 371 253 388 256 c 0
 458 269 l 0
327 274 m 0
 314 299 295 319 270 332 c 0
 254 341 232 348 218 348 c 0
 205 348 202 336 202 315 c 0
 202 244 l 0
 202 231 203 224 222 227 c 0
 311 243 l 0
 336 247 336 256 327 274 c 0
EndSplineSet
EndChar

StartChar: Alpha
Encoding: 65 913 14
Width: 202
Flags: HW
LayerCount: 2
Fore
SplineSet
204 540 m 0
 204 498 237 466 275 431 c 0
 319 385 l 0
 332 373 343 373 346 395 c 0
 347 403 347 412 347 421 c 0
 347 465 314 519 267 542 c 0
 252 550 234 556 220 556 c 0
 207 556 204 547 204 540 c 0
204 374 m 0
 204 330 235 297 275 263 c 0
 289 251 304 237 317 222 c 0
 329 207 342 200 346 228 c 0
 347 236 347 245 347 255 c 0
 347 299 314 353 267 376 c 0
 252 384 234 390 220 390 c 0
 207 390 204 381 204 374 c 0
202 187 m 0
 202 27 l 0
 202 -37 141 -95 74 -95 c 0
 35 -95 0 -68 0 -26 c 0
 0 37 62 95 129 95 c 0
 135 95 146 94 152 94 c 0
 165 94 175 97 175 116 c 0
 175 567 l 0
 175 583 170 586 153 580 c 0
 85 555 l 0
 73 551 72 551 67 564 c 0
 62 578 63 578 75 582 c 0
 152 610 l 0
 170 617 175 622 175 640 c 0
 175 878 l 0
 175 890 178 891 187 891 c 0
 201 891 204 891 204 872 c 0
 204 830 237 798 275 763 c 0
 298 741 318 720 334 699 c 0
 344 687 349 682 369 689 c 0
 446 717 l 0
 457 722 457 721 462 708 c 0
 466 695 466 694 455 690 c 0
 383 664 l 0
 366 657 364 651 368 638 c 0
 374 621 377 604 377 585 c 0
 377 569 374 550 368 532 c 0
 361 508 358 498 366 479 c 0
 374 460 377 440 377 419 c 0
 377 403 374 384 368 366 c 0
 361 342 358 332 366 313 c 0
 374 293 377 274 377 253 c 0
 377 236 373 215 367 197 c 0
 358 168 355 163 364 137 c 0
 372 112 377 83 377 49 c 0
 377 2 363 -55 349 -86 c 0
 341 -101 318 -96 325 -75 c 0
 341 -25 347 1 347 50 c 0
 347 125 320 177 270 204 c 0
 254 213 232 220 218 220 c 0
 205 220 202 208 202 187 c 0
300 685 m 0
 290 694 279 702 267 708 c 0
 252 716 234 722 220 722 c 0
 207 722 204 713 204 706 c 0
 204 689 209 674 218 659 c 0
 227 644 234 640 255 648 c 0
 295 662 l 0
 311 668 310 676 300 685 c 0
314 639 m 0
 276 625 l 0
 259 618 259 612 275 597 c 0
 319 551 l 0
 332 538 343 539 346 561 c 0
 347 569 347 578 347 587 c 0
 347 601 344 615 338 629 c 0
 333 643 327 643 314 639 c 0
EndSplineSet
EndChar

StartChar: Beta
Encoding: 66 914 15
Width: 202
Flags: HW
LayerCount: 2
Fore
SplineSet
204 704 m 0
 204 662 237 630 275 595 c 0
 319 549 l 0
 332 536 343 537 346 559 c 0
 347 567 347 576 347 585 c 0
 347 629 314 683 267 706 c 0
 252 714 234 720 220 720 c 0
 207 720 204 711 204 704 c 0
204 372 m 0
 204 328 235 295 275 261 c 0
 289 249 304 235 317 220 c 0
 329 205 342 198 346 226 c 0
 347 234 347 243 347 253 c 0
 347 297 314 351 267 374 c 0
 252 382 234 388 220 388 c 0
 207 388 204 379 204 372 c 0
204 538 m 0
 204 496 237 464 275 429 c 0
 319 383 l 0
 332 371 343 371 346 393 c 0
 347 401 347 410 347 419 c 0
 347 463 314 517 267 540 c 0
 252 548 234 554 220 554 c 0
 207 554 204 545 204 538 c 0
202 184 m 0
 202 27 l 0
 202 -37 141 -95 74 -95 c 0
 35 -95 0 -68 0 -26 c 0
 0 37 62 95 129 95 c 0
 135 95 146 94 152 94 c 0
 165 94 175 97 175 116 c 0
 175 731 l 0
 175 748 171 752 155 746 c 0
 81 719 l 0
 69 715 68 715 63 728 c 0
 58 742 59 742 71 746 c 0
 151 775 l 0
 169 782 175 786 175 807 c 0
 175 1042 l 0
 175 1054 178 1055 187 1055 c 0
 201 1055 204 1055 204 1036 c 0
 204 994 237 962 275 927 c 0
 297 906 316 887 331 867 c 0
 345 850 349 847 371 855 c 0
 442 881 l 0
 453 886 453 885 458 872 c 0
 462 859 462 858 451 854 c 0
 383 829 l 0
 367 823 363 820 369 800 c 0
 374 784 377 767 377 749 c 0
 377 733 374 714 368 696 c 0
 361 672 358 662 366 643 c 0
 373 624 377 604 377 583 c 0
 377 567 374 548 368 530 c 0
 361 506 358 496 366 477 c 0
 374 458 377 438 377 417 c 0
 377 401 374 382 368 364 c 0
 361 340 358 330 366 311 c 0
 374 291 377 272 377 251 c 0
 377 234 373 213 367 195 c 0
 358 166 355 161 364 135 c 0
 372 110 377 81 377 47 c 0
 377 0 363 -57 349 -88 c 0
 341 -103 318 -98 325 -77 c 0
 341 -27 347 -1 347 47 c 0
 347 122 320 174 270 201 c 0
 254 210 232 217 218 217 c 0
 205 217 202 205 202 184 c 0
298 851 m 0
 289 859 278 867 267 872 c 0
 252 880 234 886 220 886 c 0
 207 886 204 877 204 870 c 0
 204 852 210 837 219 822 c 0
 228 807 234 805 252 812 c 0
 293 827 l 0
 311 833 312 838 298 851 c 0
312 803 m 0
 274 789 l 0
 253 782 258 777 275 761 c 0
 319 715 l 0
 333 702 343 703 346 725 c 0
 347 733 347 742 347 751 c 0
 347 765 344 780 337 795 c 0
 332 807 328 809 312 803 c 0
EndSplineSet
EndChar

StartChar: Chi
Encoding: 67 935 16
Width: 202
Flags: HW
LayerCount: 2
Fore
SplineSet
121 -85 m 0
 106 -91 90 -95 73 -95 c 0
 67 -95 56 -94 50 -94 c 0
 37 -94 27 -97 27 -116 c 0
 27 -219 l 0
 27 -235 32 -239 46 -234 c 0
 142 -199 l 0
 168 -190 173 -184 170 -155 c 0
 167 -135 163 -115 156 -94 c 0
 151 -79 141 -77 121 -85 c 0
12 -602 m 0
 3 -602 0 -600 0 -589 c 0
 0 -300 l 0
 0 -286 -4 -283 -20 -289 c 0
 -81 -311 l 0
 -93 -315 -94 -315 -99 -302 c 0
 -104 -288 -103 -288 -91 -284 c 0
 -23 -259 l 0
 -5 -253 0 -247 0 -227 c 0
 0 -27 l 0
 0 37 61 95 128 95 c 0
 167 95 202 68 202 26 c 0
 202 6 195 -14 184 -32 c 0
 174 -48 172 -57 178 -75 c 0
 185 -96 192 -123 197 -148 c 0
 202 -173 206 -176 226 -169 c 0
 280 -149 l 0
 291 -144 291 -145 296 -158 c 0
 300 -171 300 -172 289 -176 c 0
 228 -198 l 0
 206 -206 203 -207 200 -236 c 0
 181 -420 36 -458 29 -568 c 0
 27 -599 26 -602 12 -602 c 0
143 -229 m 0
 48 -264 l 0
 30 -270 27 -275 27 -296 c 0
 27 -363 l 0
 27 -384 30 -394 43 -394 c 0
 57 -394 77 -385 91 -374 c 0
 125 -347 156 -307 167 -248 c 0
 172 -222 168 -220 143 -229 c 0
EndSplineSet
EndChar

StartChar: Delta
Encoding: 68 916 17
Width: 202
Flags: HW
LayerCount: 2
Fore
SplineSet
189 -196 m 0
 180 -222 183 -227 192 -256 c 0
 198 -274 202 -295 202 -312 c 0
 202 -324 201 -335 198 -346 c 0
 195 -364 193 -371 212 -374 c 0
 289 -388 l 0
 301 -389 301 -390 299 -403 c 0
 296 -417 295 -418 283 -415 c 0
 201 -401 l 0
 183 -398 177 -401 165 -418 c 0
 148 -442 126 -465 100 -490 c 0
 62 -525 29 -557 29 -599 c 0
 29 -618 26 -618 12 -618 c 0
 3 -618 0 -617 0 -605 c 0
 0 -386 l 0
 0 -368 -8 -364 -29 -361 c 0
 -104 -347 l 0
 -117 -345 -118 -344 -116 -331 c 0
 -113 -316 -112 -316 -100 -319 c 0
 -27 -332 l 0
 -6 -336 0 -332 0 -306 c 0
 0 -27 l 0
 0 37 61 95 128 95 c 0
 167 95 202 68 202 26 c 0
 202 11 198 -5 192 -19 c 0
 184 -36 182 -43 189 -61 c 0
 196 -83 202 -106 202 -125 c 0
 202 -152 197 -171 189 -196 c 0
29 -433 m 0
 29 -440 32 -449 45 -449 c 0
 59 -449 77 -443 92 -435 c 0
 104 -429 116 -421 126 -411 c 0
 140 -398 142 -391 117 -386 c 0
 79 -380 l 0
 53 -375 45 -376 36 -398 c 0
 31 -409 29 -421 29 -433 c 0
172 -125 m 0
 172 -111 169 -98 165 -85 c 0
 159 -71 150 -70 134 -79 c 0
 115 -89 94 -95 73 -95 c 0
 67 -95 56 -94 50 -94 c 0
 37 -94 27 -97 27 -116 c 0
 27 -245 l 0
 27 -266 30 -278 43 -278 c 0
 57 -278 79 -271 95 -262 c 0
 145 -235 172 -172 172 -125 c 0
102 -354 m 0
 133 -360 l 0
 156 -364 162 -361 167 -344 c 0
 170 -334 172 -324 172 -314 c 0
 172 -304 172 -295 171 -287 c 0
 167 -259 154 -266 142 -281 c 0
 129 -296 114 -310 100 -322 c 0
 78 -341 76 -350 102 -354 c 0
EndSplineSet
EndChar

StartChar: Epsilon
Encoding: 69 917 18
Width: 202
Flags: HW
CounterMasks: 1 fc
LayerCount: 2
Fore
SplineSet
189 -186 m 0
 180 -213 183 -218 192 -247 c 0
 198 -265 202 -286 202 -303 c 0
 202 -324 199 -343 191 -363 c 0
 183 -382 186 -392 193 -416 c 0
 199 -434 202 -453 202 -469 c 0
 202 -482 201 -494 198 -506 c 0
 195 -521 196 -527 213 -530 c 0
 284 -543 l 0
 296 -544 295 -545 293 -558 c 0
 290 -572 290 -572 278 -570 c 0
 203 -557 l 0
 185 -554 178 -557 168 -571 c 0
 151 -596 128 -621 100 -647 c 0
 62 -682 29 -714 29 -756 c 0
 29 -775 26 -775 12 -775 c 0
 3 -775 0 -774 0 -762 c 0
 0 -550 l 0
 0 -526 -8 -520 -33 -516 c 0
 -110 -502 l 0
 -122 -500 -123 -499 -121 -486 c 0
 -118 -471 -117 -471 -105 -474 c 0
 -34 -487 l 0
 -5 -492 0 -485 0 -463 c 0
 0 -27 l 0
 0 37 61 95 128 95 c 0
 167 95 202 68 202 26 c 0
 202 12 199 -2 194 -14 c 0
 186 -32 185 -42 191 -58 c 0
 198 -78 202 -98 202 -115 c 0
 202 -142 197 -161 189 -186 c 0
29 -424 m 0
 29 -431 32 -440 45 -440 c 0
 59 -440 77 -434 92 -426 c 0
 139 -403 172 -349 172 -305 c 0
 172 -295 172 -286 171 -278 c 0
 167 -250 154 -257 142 -272 c 0
 129 -287 114 -301 100 -313 c 0
 60 -347 29 -380 29 -424 c 0
29 -590 m 0
 29 -597 32 -606 45 -606 c 0
 59 -606 77 -600 92 -592 c 0
 106 -585 119 -576 130 -564 c 0
 142 -552 141 -546 120 -543 c 0
 77 -535 l 0
 55 -531 49 -534 41 -546 c 0
 34 -560 29 -574 29 -590 c 0
172 -114 m 0
 172 -104 170 -94 167 -84 c 0
 163 -69 155 -66 138 -77 c 0
 118 -88 96 -95 73 -95 c 0
 67 -95 56 -94 50 -94 c 0
 37 -94 27 -97 27 -116 c 0
 27 -236 l 0
 27 -257 30 -269 43 -269 c 0
 57 -269 79 -262 95 -253 c 0
 145 -226 172 -180 172 -114 c 0
99 -510 m 0
 138 -517 l 0
 157 -520 164 -516 168 -497 c 0
 171 -488 172 -480 172 -471 c 0
 172 -462 172 -453 171 -445 c 0
 168 -423 157 -423 144 -435 c 0
 130 -449 117 -466 100 -481 c 0
 78 -501 81 -507 99 -510 c 0
EndSplineSet
EndChar

StartChar: Phi
Encoding: 70 934 19
Width: 202
Flags: HW
LayerCount: 2
Fore
SplineSet
189 -189 m 0
 180 -216 183 -221 192 -250 c 0
 198 -268 202 -289 202 -306 c 0
 202 -327 199 -346 191 -366 c 0
 183 -385 186 -395 193 -419 c 0
 199 -437 202 -456 202 -472 c 0
 202 -493 199 -513 191 -532 c 0
 183 -551 186 -561 193 -585 c 0
 199 -603 202 -622 202 -638 c 0
 202 -653 200 -667 197 -680 c 0
 192 -697 193 -703 210 -706 c 0
 290 -721 l 0
 302 -722 301 -723 299 -736 c 0
 296 -750 296 -750 284 -748 c 0
 198 -733 l 0
 178 -730 172 -735 161 -750 c 0
 145 -771 124 -793 100 -816 c 0
 62 -851 29 -883 29 -925 c 0
 29 -944 26 -944 12 -944 c 0
 3 -944 0 -943 0 -931 c 0
 0 -724 l 0
 0 -703 -7 -697 -26 -694 c 0
 -104 -680 l 0
 -116 -678 -117 -677 -115 -664 c 0
 -112 -649 -111 -649 -99 -652 c 0
 -32 -664 l 0
 -3 -669 0 -659 0 -634 c 0
 0 -27 l 0
 0 37 61 95 128 95 c 0
 167 95 202 68 202 26 c 0
 202 12 199 -1 194 -14 c 0
 186 -32 184 -41 189 -56 c 0
 197 -77 202 -99 202 -118 c 0
 202 -145 197 -164 189 -189 c 0
29 -593 m 0
 29 -600 32 -609 45 -609 c 0
 59 -609 77 -603 92 -595 c 0
 139 -572 172 -518 172 -474 c 0
 172 -465 172 -456 171 -448 c 0
 168 -426 157 -426 144 -438 c 0
 100 -484 l 0
 62 -519 29 -551 29 -593 c 0
29 -427 m 0
 29 -434 32 -443 45 -443 c 0
 59 -443 77 -437 92 -429 c 0
 139 -406 172 -352 172 -308 c 0
 172 -298 172 -289 171 -281 c 0
 167 -253 154 -260 142 -275 c 0
 129 -290 114 -304 100 -316 c 0
 60 -350 29 -383 29 -427 c 0
29 -768 m 0
 29 -775 32 -784 45 -784 c 0
 59 -784 77 -778 92 -770 c 0
 106 -763 118 -754 129 -743 c 0
 143 -729 140 -723 120 -720 c 0
 78 -712 l 0
 55 -708 49 -711 40 -726 c 0
 33 -739 29 -753 29 -768 c 0
172 -118 m 0
 172 -105 170 -93 166 -81 c 0
 161 -69 154 -67 137 -77 c 0
 118 -88 96 -95 73 -95 c 0
 67 -95 56 -94 50 -94 c 0
 37 -94 27 -97 27 -116 c 0
 27 -238 l 0
 27 -259 30 -271 43 -271 c 0
 57 -271 79 -264 95 -255 c 0
 145 -228 172 -173 172 -118 c 0
102 -687 m 0
 137 -694 l 0
 156 -697 164 -694 168 -676 c 0
 171 -667 172 -658 172 -649 c 0
 172 -640 172 -631 171 -623 c 0
 168 -601 157 -600 144 -613 c 0
 100 -659 l 0
 81 -676 82 -684 102 -687 c 0
EndSplineSet
EndChar

StartChar: Gamma
Encoding: 71 915 20
Width: 202
Flags: HW
LayerCount: 2
Fore
SplineSet
189 -186 m 0
 180 -213 183 -218 192 -247 c 0
 198 -265 202 -286 202 -303 c 0
 202 -324 199 -343 191 -363 c 0
 183 -382 186 -392 193 -416 c 0
 199 -434 202 -453 202 -469 c 0
 202 -490 199 -510 191 -529 c 0
 183 -548 186 -558 193 -582 c 0
 199 -600 202 -619 202 -635 c 0
 202 -656 198 -676 191 -695 c 0
 183 -714 186 -724 193 -748 c 0
 199 -766 202 -785 202 -801 c 0
 202 -818 199 -835 195 -850 c 0
 190 -865 190 -871 205 -873 c 0
 287 -888 l 0
 299 -889 298 -890 296 -903 c 0
 293 -917 293 -917 281 -915 c 0
 192 -900 l 0
 176 -897 171 -899 162 -911 c 0
 146 -934 125 -956 100 -979 c 0
 62 -1014 29 -1046 29 -1088 c 0
 29 -1107 26 -1107 12 -1107 c 0
 3 -1107 0 -1106 0 -1094 c 0
 0 -887 l 0
 0 -867 -5 -865 -25 -862 c 0
 -107 -847 l 0
 -119 -845 -120 -844 -118 -831 c 0
 -115 -816 -114 -816 -102 -819 c 0
 -29 -832 l 0
 -5 -836 0 -835 0 -801 c 0
 0 -27 l 0
 0 37 61 95 128 95 c 0
 167 95 202 68 202 26 c 0
 202 12 199 -1 194 -14 c 0
 187 -31 185 -40 190 -55 c 0
 197 -76 202 -97 202 -115 c 0
 202 -142 197 -161 189 -186 c 0
29 -769 m 0
 29 -776 32 -785 45 -785 c 0
 59 -785 77 -779 92 -771 c 0
 139 -748 172 -694 172 -650 c 0
 172 -641 172 -632 171 -624 c 0
 168 -602 157 -601 144 -614 c 0
 100 -660 l 0
 62 -695 29 -727 29 -769 c 0
29 -424 m 0
 29 -431 32 -440 45 -440 c 0
 59 -440 77 -434 92 -426 c 0
 139 -403 172 -349 172 -305 c 0
 172 -295 172 -286 171 -278 c 0
 167 -250 154 -257 142 -272 c 0
 129 -287 114 -301 100 -313 c 0
 60 -347 29 -380 29 -424 c 0
29 -590 m 0
 29 -597 32 -606 45 -606 c 0
 59 -606 77 -600 92 -592 c 0
 139 -569 172 -515 172 -471 c 0
 172 -462 172 -453 171 -445 c 0
 168 -423 157 -423 144 -435 c 0
 100 -481 l 0
 62 -516 29 -548 29 -590 c 0
29 -935 m 0
 29 -942 32 -951 45 -951 c 0
 59 -951 77 -945 92 -937 c 0
 106 -930 119 -920 131 -908 c 0
 141 -897 143 -891 124 -888 c 0
 78 -880 l 0
 55.001 -876 47 -880 40 -894 c 0
 33 -907 29 -920 29 -935 c 0
172 -114 m 0
 172 -104 170 -93 167 -83 c 0
 163 -68 153 -68 137 -77 c 0
 118 -88 96 -95 73 -95 c 0
 67 -95 56 -94 50 -94 c 0
 37 -94 27 -97 27 -116 c 0
 27 -236 l 0
 27 -257 30 -269 43 -269 c 0
 57 -269 79 -262 95 -253 c 0
 145 -226 172 -181 172 -114 c 0
103 -855 m 0
 138 -861 l 0
 157.138 -864.28 163 -861 168 -846 c 0
 170 -836 172 -826 172 -816 c 0
 172 -807 172 -798 171 -790 c 0
 168 -768 158 -767 144 -780 c 0
 100 -826 l 0
 79 -847 75 -850 103 -855 c 0
EndSplineSet
EndChar

StartChar: Eta
Encoding: 72 919 21
Width: 202
Flags: HW
LayerCount: 2
Fore
SplineSet
0 -26 m 0
 0 37 62 95 129 95 c 0
 135 95 146 94 152 94 c 0
 165 94 175 97 175 116 c 0
 175 714 l 0
 175 725 178 727 187 727 c 0
 201 727 202 724 204 693 c 0
 212 575 377 540 377 321 c 0
 377 274 358 207 344 176 c 0
 336 161 312 166 320 187 c 0
 338 237 347 273 347 321 c 0
 347 410 309 465 266 499 c 0
 252 510 232 519 218 519 c 0
 205 519 202 509 202 488 c 0
 202 27 l 0
 202 -37 141 -95 74 -95 c 0
 35 -95 0 -68 0 -26 c 0
EndSplineSet
EndChar

StartChar: Psi
Encoding: 89 936 22
Width: 274
Flags: HW
LayerCount: 2
Fore
SplineSet
40 82 m 0
 40 -79 l 0
 40 -88 52 -97 57 -97 c 0
 212 -97 l 0
 221 -97 234 -85 234 -77 c 0
 234 77 l 0
 234 85 223 97 215 97 c 0
 56 97 l 0
 50 97 40 86 40 82 c 0
0 137 m 0
 274 137 l 0
 274 -137 l 0
 0 -137 l 0
 0 137 l 0
EndSplineSet
EndChar

StartChar: Zeta
Encoding: 90 918 23
Width: 274
Flags: HW
LayerCount: 2
Fore
SplineSet
0 137 m 0
 274 137 l 0
 274 -137 l 0
 0 -137 l 0
 0 137 l 0
EndSplineSet
EndChar

StartChar: bracketleft
Encoding: 91 91 24
Width: 414
Flags: HW
LayerCount: 2
Fore
SplineSet
40 82 m 0
 40 -79 l 0
 40 -88 52 -97 57 -97 c 0
 352 -97 l 0
 361 -97 374 -85 374 -77 c 0
 374 77 l 0
 374 85 363 97 355 97 c 0
 56 97 l 0
 50 97 40 86 40 82 c 0
0 137 m 0
 414 137 l 0
 414 -137 l 0
 0 -137 l 0
 0 137 l 0
EndSplineSet
EndChar

StartChar: therefore
Encoding: 92 8756 25
Width: 414
Flags: HW
LayerCount: 2
Fore
SplineSet
0 137 m 0
 414 137 l 0
 414 -137 l 0
 0 -137 l 0
 0 137 l 0
EndSplineSet
EndChar

StartChar: bracketright
Encoding: 93 93 26
Width: 554
Flags: HW
LayerCount: 2
Fore
SplineSet
40 82 m 0
 40 -79 l 0
 40 -88 52 -97 57 -97 c 0
 492 -97 l 0
 501 -97 514 -85 514 -77 c 0
 514 77 l 0
 514 85 503 97 495 97 c 0
 56 97 l 0
 50 97 40 86 40 82 c 0
0 137 m 0
 554 137 l 0
 554 -137 l 0
 0 -137 l 0
 0 137 l 0
EndSplineSet
EndChar

StartChar: perpendicular
Encoding: 94 8869 27
Width: 554
Flags: HW
LayerCount: 2
Fore
SplineSet
0 137 m 0
 554 137 l 0
 554 -137 l 0
 0 -137 l 0
 0 137 l 0
EndSplineSet
EndChar

StartChar: underscore
Encoding: 95 95 28
Width: 274
Flags: HW
LayerCount: 2
Fore
SplineSet
22 137 m 0
 252 137 l 0
 374 259 l 0
 396 237 l 0
 274 115 l 0
 274 -115 l 0
 396 -237 l 0
 374 -259 l 0
 252 -137 l 0
 22 -137 l 0
 -100 -259 l 0
 -122 -237 l 0
 0 -115 l 0
 0 115 l 0
 -122 237 l 0
 -100 259 l 0
 22 137 l 0
79 79 m 0
 121 37 l 0
 129 29 148 32 153 37 c 0
 197 82 l 0
 204 89 194 97 186 97 c 0
 86 97 l 0
 80 97 72 86 79 79 c 0
40 52 m 0
 40 -44 l 0
 40 -52 50 -65 59 -57 c 0
 100 -16 l 0
 105 -11 106 10 99 17 c 0
 56 60 l 0
 50 66 40 58 40 52 c 0
87 -97 m 0
 182 -97 l 0
 194 -97 193 -77 188 -72 c 0
 150 -34 l 0
 142 -26 127 -31 122 -36 c 0
 79 -79 l 0
 73 -85 76 -97 87 -97 c 0
234 -46 m 0
 234 50 l 0
 234 60 225 67 217 59 c 0
 176 17 l 0
 169 11 167 -9 172 -14 c 0
 212 -53 l 0
 220 -62 234 -56 234 -46 c 0
EndSplineSet
EndChar

StartChar: uniF8E5
Encoding: 96 63717 29
Width: 274
Flags: HW
LayerCount: 2
Fore
SplineSet
22 137 m 0
 252 137 l 0
 374 259 l 0
 396 237 l 0
 274 115 l 0
 274 -115 l 0
 396 -237 l 0
 374 -259 l 0
 252 -137 l 0
 22 -137 l 0
 -100 -259 l 0
 -122 -237 l 0
 0 -115 l 0
 0 115 l 0
 -122 237 l 0
 -100 259 l 0
 22 137 l 0
EndSplineSet
EndChar

StartChar: alpha
Encoding: 97 945 30
Width: 274
Flags: HW
LayerCount: 2
Fore
SplineSet
252 137 m 0
 374 259 l 0
 396 237 l 0
 274 115 l 0
 274 -137 l 0
 22 -137 l 0
 -100 -259 l 0
 -122 -237 l 0
 0 -115 l 0
 0 137 l 0
 252 137 l 0
175 97 m 0
 56 97 l 0
 50 97 40 86 40 82 c 0
 40 -45 l 0
 40 -55 55 -60 61 -54 c 0
 190 75 l 0
 198 82 184 97 175 97 c 0
213 54 m 0
 84 -74 l 0
 79 -80 84 -97 91 -97 c 0
 212 -97 l 0
 221 -97 234 -85 234 -77 c 0
 234 44 l 0
 234 54 219 60 213 54 c 0
EndSplineSet
EndChar

StartChar: beta
Encoding: 98 946 31
Width: 274
Flags: HW
LayerCount: 2
Fore
SplineSet
274 -115 m 0
 396 -237 l 0
 374 -259 l 0
 252 -137 l 0
 0 -137 l 0
 0 115 l 0
 -122 237 l 0
 -100 259 l 0
 22 137 l 0
 274 137 l 0
 274 -115 l 0
234 -38 m 0
 234 81 l 0
 234 87 223 97 219 97 c 0
 92 97 l 0
 82 97 77 82 83 76 c 0
 212 -53 l 0
 219 -61 234 -47 234 -38 c 0
191 -76 m 0
 63 53 l 0
 57 58 40 53 40 46 c 0
 40 -75 l 0
 40 -84 52 -97 60 -97 c 0
 181 -97 l 0
 191 -97 197 -82 191 -76 c 0
EndSplineSet
EndChar

StartChar: chi
Encoding: 99 967 32
Width: 274
Flags: HW
LayerCount: 2
Fore
SplineSet
252 137 m 0
 374 259 l 0
 396 237 l 0
 274 115 l 0
 274 -137 l 0
 22 -137 l 0
 -100 -259 l 0
 -122 -237 l 0
 0 -115 l 0
 0 137 l 0
 252 137 l 0
EndSplineSet
EndChar

StartChar: delta
Encoding: 100 948 33
Width: 274
Flags: HW
LayerCount: 2
Fore
SplineSet
274 -115 m 0
 396 -237 l 0
 374 -259 l 0
 252 -137 l 0
 0 -137 l 0
 0 115 l 0
 -122 237 l 0
 -100 259 l 0
 22 137 l 0
 274 137 l 0
 274 -115 l 0
EndSplineSet
EndChar

StartChar: epsilon
Encoding: 101 949 34
Width: 304
Flags: HW
LayerCount: 2
Fore
SplineSet
0 0 m 0
 0 86 72 152 152 152 c 0
 238 152 304 80 304 0 c 0
 304 -86 232 -152 152 -152 c 0
 66 -152 0 -80 0 0 c 0
40 0 m 0
 40 -59 89 -112 152 -112 c 0
 211 -112 264 -63 264 0 c 0
 264 59 215 112 152 112 c 0
 93 112 40 63 40 0 c 0
EndSplineSet
EndChar

StartChar: phi
Encoding: 102 966 35
Width: 304
Flags: HW
LayerCount: 2
Fore
SplineSet
0 0 m 0
 0 86 72 152 152 152 c 0
 238 152 304 80 304 0 c 0
 304 -86 232 -152 152 -152 c 0
 66 -152 0 -80 0 0 c 0
EndSplineSet
EndChar

StartChar: gamma
Encoding: 103 947 36
Width: 304
Flags: HW
LayerCount: 2
Fore
SplineSet
167 93 m 0
 167 -88 l 0
 167 -97 178 -109 189 -105 c 0
 232 -90 264 -49 264 0 c 0
 264 49 231 93 184 107 c 0
 178 109 167 99 167 93 c 0
167 -151 m 0
 167 -295 l 0
 137 -295 l 0
 137 -151 l 0
 58 -143 0 -75 0 0 c 0
 0 81 63 144 137 151 c 0
 137 295 l 0
 167 295 l 0
 167 151 l 0
 246 143 304 75 304 0 c 0
 304 -81 241 -144 167 -151 c 0
116 106 m 0
 73 91 40 50 40 0 c 0
 40 -47 70 -89 114 -105 c 0
 123 -108 137 -98 137 -88 c 0
 137 92 l 0
 137 101 124 109 116 106 c 0
EndSplineSet
EndChar

StartChar: eta
Encoding: 104 951 37
Width: 304
Flags: HW
LayerCount: 2
Fore
SplineSet
167 93 m 0
 167 -88 l 0
 167 -97 178 -109 189 -105 c 0
 232 -90 264 -49 264 0 c 0
 264 49 231 93 184 107 c 0
 178 109 167 99 167 93 c 0
167 -151 m 0
 167 -295 l 0
 137 -295 l 0
 137 -151 l 0
 58 -143 0 -75 0 0 c 0
 0 81 63 144 137 151 c 0
 137 295 l 0
 167 295 l 0
 167 151 l 0
 246 143 304 75 304 0 c 0
 304 -81 241 -144 167 -151 c 0
EndSplineSet
EndChar

StartChar: Iota
Encoding: 73 921 38
Width: 154
Flags: HW
LayerCount: 2
Fore
SplineSet
37 64 m 0
 29 51 27 35 27 17 c 0
 27 -45 l 0
 27 -61 38 -67 55 -51 c 0
 86 -23 100 13 91 50 c 0
 83 87 49 86 37 64 c 0
94 113 m 0
 129 113 154 87 154 43 c 0
 154 -16 93 -51 43 -93 c 0
 22 -111 l 0
 18 -114 13 -117 9 -117 c 0
 5 -117 0 -114 0 -105 c 0
 0 330 l 0
 0 338 1 340 10 340 c 0
 33 340 l 0
 42 340 43 338 43 330 c 0
 43 285 40 202 40 123 c 0
 40 115 44 108 54 108 c 0
 65 108 79 113 94 113 c 0
EndSplineSet
EndChar

StartChar: theta1
Encoding: 74 977 39
Width: 188
Flags: HW
LayerCount: 2
Fore
SplineSet
145 -31 m 0
 145 -45 150 -50 167 -45 c 0
 184 -40 188 -42 188 -48 c 0
 188 -88 l 0
 188 -98 187 -101 169 -106 c 0
 151 -111 146 -119 146 -128 c 0
 146 -179 147 -223 147 -241 c 0
 147 -246 146 -247 140 -247 c 0
 125 -247 l 0
 117 -247 117 -246 117 -240 c 0
 117 -223 118 -179 118 -140 c 0
 118 -125 111 -123 100 -126 c 0
 86 -130 l 0
 74 -133 70 -138 70 -156 c 0
 70 -204 71 -235 71 -256 c 0
 71 -264 70 -265 62 -265 c 0
 47 -265 l 0
 42 -265 41 -263 41 -257 c 0
 41 -228 43 -184 43 -161 c 0
 43 -151 34 -146 19 -150 c 0
 4 -154 0 -153 0 -142 c 0
 0 -107 l 0
 0 -95 3 -93 21 -88 c 0
 40 -83 43 -76 43 -67 c 0
 43 31 l 0
 43 45 38 50 21 45 c 0
 4 40 0 42 0 48 c 0
 0 88 l 0
 0 98 1 101 19 106 c 0
 37 111 42 119 42 128 c 0
 42 179 41 223 41 241 c 0
 41 246 42 247 48 247 c 0
 63 247 l 0
 71 247 71 246 71 240 c 0
 71 223 70 179 70 140 c 0
 70 125 77 123 88 126 c 0
 102 130 l 0
 114 133 118 138 118 156 c 0
 118 204 117 235 117 256 c 0
 117 264 118 265 126 265 c 0
 141 265 l 0
 146 265 147 263 147 257 c 0
 147 228 145 184 145 161 c 0
 145 151 154 146 169 150 c 0
 184 154 188 153 188 142 c 0
 188 107 l 0
 188 95 185 93 167 88 c 0
 148 83 145 76 145 67 c 0
 145 -31 l 0
118 56 m 0
 118 65 116 73 102 69 c 0
 85 64 l 0
 70 60 70 51 70 41 c 0
 70 -56 l 0
 70 -65 72 -73 86 -69 c 0
 103 -64 l 0
 118 -60 118 -51 118 -41 c 0
 118 56 l 0
EndSplineSet
EndChar

StartChar: Kappa
Encoding: 75 922 40
Width: 291
Flags: HW
LayerCount: 2
Fore
SplineSet
37 64 m 0
 29 51 27 35 27 17 c 0
 27 -45 l 0
 27 -61 38 -67 55 -51 c 0
 86 -23 100 13 91 50 c 0
 83 87 49 86 37 64 c 0
231 113 m 0
 266 113 291 87 291 43 c 0
 291 -16 230 -51 180 -93 c 0
 159 -111 l 0
 155 -114 150 -117 146 -117 c 0
 142 -117 137 -114 137 -105 c 0
 137 -50 l 0
 137 -24 123 -27 103 -44 c 0
 84 -61 63 -76 43 -93 c 0
 22 -111 l 0
 18 -114 13 -117 9 -117 c 0
 5 -117 0 -114 0 -105 c 0
 0 330 l 0
 0 338 1 340 10 340 c 0
 33 340 l 0
 42 340 43 338 43 330 c 0
 43 285 40 202 40 123 c 0
 40 115 44 108 54 108 c 0
 65 108 79 113 94 113 c 0
 103 113 113 111 120 111 c 0
 131 111 137 115 137 134 c 0
 137 330 l 0
 137 338 138 340 147 340 c 0
 170 340 l 0
 179 340 180 338 180 330 c 0
 180 285 177 202 177 123 c 0
 177 115 181 108 191 108 c 0
 202 108 216 113 231 113 c 0
174 64 m 0
 166 51 164 35 164 17 c 0
 164 -45 l 0
 164 -61 175 -67 192 -51 c 0
 223 -23 237 13 228 50 c 0
 220 87 186 86 174 64 c 0
EndSplineSet
EndChar

StartChar: Lambda
Encoding: 76 923 41
Width: 198
Flags: HW
CounterMasks: 1 e0
LayerCount: 2
Fore
SplineSet
124 0 m 0
 124 -21 141 -27 176 -27 c 0
 180 -27 l 0
 190 -27 195 -28 195 -38 c 0
 195 -52 198 -86 198 -91 c 0
 198 -97 198 -99 190 -99 c 0
 185 -99 151 -96 137 -96 c 0
 128 -96 126 -91 126 -81 c 0
 126 -77 l 0
 126 -42 120 -25 99 -25 c 0
 78 -25 72 -42 72 -77 c 0
 72 -81 l 0
 72 -91 71 -96 61 -96 c 0
 47 -96 13 -99 8 -99 c 0
 2 -99 0 -99 0 -91 c 0
 0 -86 3 -52 3 -38 c 0
 3 -29 8 -27 18 -27 c 0
 22 -27 l 0
 57 -27 74 -21 74 0 c 0
 74 21 57 27 22 27 c 0
 18 27 l 0
 8 27 3 28 3 38 c 0
 3 52 0 86 0 91 c 0
 0 97 0 99 8 99 c 0
 13 99 47 96 61 96 c 0
 70 96 72 91 72 81 c 0
 72 77 l 0
 72 42 78 25 99 25 c 0
 120 25 126 42 126 77 c 0
 126 81 l 0
 126 91 127 96 137 96 c 0
 151 96 185 99 190 99 c 0
 196 99 198 99 198 91 c 0
 198 86 195 52 195 38 c 0
 195 29 190 27 180 27 c 0
 176 27 l 0
 141 27 124 21 124 0 c 0
EndSplineSet
EndChar

StartChar: Mu
Encoding: 77 924 42
Width: 302
Flags: HW
LayerCount: 2
Fore
SplineSet
185 64 m 0
 177 51 175 35 175 17 c 0
 175 -45 l 0
 175 -61 186 -67 203 -51 c 0
 234 -23 248 13 239 50 c 0
 231 87 197 86 185 64 c 0
242 113 m 0
 277 113 302 87 302 43 c 0
 302 -16 241 -51 191 -93 c 0
 170 -111 l 0
 166 -114 161 -117 157 -117 c 0
 153 -117 148 -114 148 -105 c 0
 148 330 l 0
 148 338 149 340 158 340 c 0
 181 340 l 0
 190 340 191 338 191 330 c 0
 191 285 188 202 188 123 c 0
 188 115 192 108 202 108 c 0
 213 108 227 113 242 113 c 0
0 273 m 0
 0 281 1 281 16 281 c 0
 29 281 30 281 30 273 c 0
 30 156 l 0
 30 127 36 126 58 132 c 0
 93 142 l 0
 111 147 117 146 117 131 c 0
 117 -272 l 0
 117 -280 115 -281 101 -281 c 0
 86 -281 87 -280 87 -271 c 0
 87 -155 l 0
 87 -127 83 -126 59 -132 c 0
 25 -142 l 0
 4 -148 0 -147 0 -131 c 0
 0 273 l 0
89 52 m 0
 89 76 84 77 64 71 c 0
 51 67 l 0
 29 60 28 57 28 28 c 0
 28 -52 l 0
 28 -76 35 -75 54 -70 c 0
 66 -67 l 0
 87 -61 89 -55 89 -27 c 0
 89 52 l 0
EndSplineSet
EndChar

StartChar: Nu
Encoding: 78 925 43
Width: 337
Flags: HW
LayerCount: 2
Fore
SplineSet
294 -31 m 0
 294 -45 299 -50 316 -45 c 0
 333 -40 337 -42 337 -48 c 0
 337 -88 l 0
 337 -98 336 -101 318 -106 c 0
 300 -111 295 -119 295 -128 c 0
 295 -179 296 -223 296 -241 c 0
 296 -246 295 -247 289 -247 c 0
 274 -247 l 0
 266 -247 266 -246 266 -240 c 0
 266 -223 267 -179 267 -140 c 0
 267 -125 260 -123 249 -126 c 0
 235 -130 l 0
 223 -133 219 -138 219 -156 c 0
 219 -204 220 -235 220 -256 c 0
 220 -264 219 -265 211 -265 c 0
 196 -265 l 0
 191 -265 190 -263 190 -257 c 0
 190 -228 192 -184 192 -161 c 0
 192 -151 183 -146 168 -150 c 0
 153 -154 149 -153 149 -142 c 0
 149 -107 l 0
 149 -95 152 -93 170 -88 c 0
 189 -83 192 -76 192 -67 c 0
 192 31 l 0
 192 45 187 50 170 45 c 0
 153 40 149 42 149 48 c 0
 149 88 l 0
 149 98 150 101 168 106 c 0
 186 111 191 119 191 128 c 0
 191 179 190 223 190 241 c 0
 190 246 191 247 197 247 c 0
 212 247 l 0
 220 247 220 246 220 240 c 0
 220 223 219 179 219 140 c 0
 219 125 226 123 237 126 c 0
 251 130 l 0
 263 133 267 138 267 156 c 0
 267 204 266 235 266 256 c 0
 266 264 267 265 275 265 c 0
 290 265 l 0
 295 265 296 263 296 257 c 0
 296 228 294 184 294 161 c 0
 294 151 303 146 318 150 c 0
 333 154 337 153 337 142 c 0
 337 107 l 0
 337 95 334 93 316 88 c 0
 297 83 294 76 294 67 c 0
 294 -31 l 0
267 56 m 0
 267 65 265 73 251 69 c 0
 234 64 l 0
 219 60 219 51 219 41 c 0
 219 -56 l 0
 219 -65 221 -73 235 -69 c 0
 252 -64 l 0
 267 -60 267 -51 267 -41 c 0
 267 56 l 0
0 273 m 0
 0 281 1 281 16 281 c 0
 29 281 30 281 30 273 c 0
 30 156 l 0
 30 127 36 126 58 132 c 0
 93 142 l 0
 111 147 117 146 117 131 c 0
 117 -272 l 0
 117 -280 115 -281 101 -281 c 0
 86 -281 87 -280 87 -271 c 0
 87 -155 l 0
 87 -127 83 -126 59 -132 c 0
 25 -142 l 0
 4 -148 0 -147 0 -131 c 0
 0 273 l 0
89 52 m 0
 89 76 84 77 64 71 c 0
 51 67 l 0
 29 60 28 57 28 28 c 0
 28 -52 l 0
 28 -76 35 -75 54 -70 c 0
 66 -67 l 0
 87 -61 89 -55 89 -27 c 0
 89 52 l 0
EndSplineSet
EndChar

StartChar: iota
Encoding: 105 953 44
Width: 304
Flags: HW
CounterMasks: 1 38
LayerCount: 2
Fore
SplineSet
167 -151 m 0
 167 -295 l 0
 137 -295 l 0
 137 -151 l 0
 58 -143 0 -75 0 0 c 0
 0 81 63 144 137 151 c 0
 137 295 l 0
 167 295 l 0
 167 151 l 0
 246 143 304 75 304 0 c 0
 304 -81 241 -144 167 -151 c 0
116 106 m 0
 73 91 40 50 40 0 c 0
 40 -47 70 -89 114 -105 c 0
 123 -108 137 -98 137 -88 c 0
 137 92 l 0
 137 101 124 109 116 106 c 0
EndSplineSet
EndChar

StartChar: phi1
Encoding: 106 981 45
Width: 304
Flags: HW
LayerCount: 2
Fore
SplineSet
167 -151 m 0
 167 -295 l 0
 137 -295 l 0
 137 -151 l 0
 58 -143 0 -75 0 0 c 0
 0 81 63 144 137 151 c 0
 137 295 l 0
 167 295 l 0
 167 151 l 0
 246 143 304 75 304 0 c 0
 304 -81 241 -144 167 -151 c 0
EndSplineSet
EndChar

StartChar: kappa
Encoding: 107 954 46
Width: 304
Flags: HW
LayerCount: 2
Fore
SplineSet
245 -15 m 0
 64 -15 l 0
 55 -15 43 -26 47 -37 c 0
 62 -80 103 -112 152 -112 c 0
 201 -112 245 -79 259 -32 c 0
 261 -26 251 -15 245 -15 c 0
1 -15 m 0
 -143 -15 l 0
 -143 15 l 0
 1 15 l 0
 9 94 77 152 152 152 c 0
 233 152 296 89 303 15 c 0
 447 15 l 0
 447 -15 l 0
 303 -15 l 0
 295 -94 227 -152 152 -152 c 0
 71 -152 8 -89 1 -15 c 0
258 36 m 0
 243 79 202 112 152 112 c 0
 105 112 63 82 47 38 c 0
 44 29 54 15 64 15 c 0
 244 15 l 0
 253 15 261 28 258 36 c 0
EndSplineSet
EndChar

StartChar: lambda
Encoding: 108 955 47
Width: 304
Flags: HW
LayerCount: 2
Fore
SplineSet
245 -15 m 0
 64 -15 l 0
 55 -15 43 -26 47 -37 c 0
 62 -80 103 -112 152 -112 c 0
 201 -112 245 -79 259 -32 c 0
 261 -26 251 -15 245 -15 c 0
1 -15 m 0
 -143 -15 l 0
 -143 15 l 0
 1 15 l 0
 9 94 77 152 152 152 c 0
 233 152 296 89 303 15 c 0
 447 15 l 0
 447 -15 l 0
 303 -15 l 0
 295 -94 227 -152 152 -152 c 0
 71 -152 8 -89 1 -15 c 0
EndSplineSet
EndChar

StartChar: mu
Encoding: 109 956 48
Width: 304
Flags: HW
LayerCount: 2
Fore
SplineSet
1 -15 m 0
 -143 -15 l 0
 -143 15 l 0
 1 15 l 0
 9 94 77 152 152 152 c 0
 233 152 296 89 303 15 c 0
 447 15 l 0
 447 -15 l 0
 303 -15 l 0
 295 -94 227 -152 152 -152 c 0
 71 -152 8 -89 1 -15 c 0
258 36 m 0
 243 79 202 112 152 112 c 0
 105 112 63 82 47 38 c 0
 44 29 54 15 64 15 c 0
 244 15 l 0
 253 15 261 28 258 36 c 0
EndSplineSet
EndChar

StartChar: nu
Encoding: 110 957 49
Width: 304
Flags: HW
LayerCount: 2
Fore
SplineSet
1 -15 m 0
 -143 -15 l 0
 -143 15 l 0
 1 15 l 0
 9 94 77 152 152 152 c 0
 233 152 296 89 303 15 c 0
 447 15 l 0
 447 -15 l 0
 303 -15 l 0
 295 -94 227 -152 152 -152 c 0
 71 -152 8 -89 1 -15 c 0
EndSplineSet
EndChar

StartChar: omicron
Encoding: 111 959 50
Width: 304
Flags: HW
LayerCount: 2
Fore
SplineSet
228 55 m 0
 100 -73 l 0
 94 -79 93 -95 104 -100 c 0
 145 -120 196 -114 231 -79 c 0
 266 -44 273 10 250 53 c 0
 247 59 232 59 228 55 c 0
56 -117 m 0
 -86 -259 l 0
 -107 -238 l 0
 35 -96 l 0
 -15 -34 -8 54 45 107 c 0
 102 164 191 164 248 117 c 0
 390 259 l 0
 411 238 l 0
 269 96 l 0
 319 34 312 -54 259 -107 c 0
 202 -164 113 -164 56 -117 c 0
201 100 m 0
 160 120 108 114 73 79 c 0
 40 46 31 -5 51 -47 c 0
 55 -55 72 -59 79 -52 c 0
 206 76 l 0
 212 82 209 96 201 100 c 0
EndSplineSet
EndChar

StartChar: omega1
Encoding: 118 982 51
Width: 304
Flags: HW
LayerCount: 2
Fore
SplineSet
269 -96 m 0
 411 -238 l 0
 390 -259 l 0
 248 -117 l 0
 186 -167 98 -160 45 -107 c 0
 -12 -50 -12 39 35 96 c 0
 -107 238 l 0
 -86 259 l 0
 56 117 l 0
 118 167 206 160 259 107 c 0
 316 50 316 -39 269 -96 c 0
EndSplineSet
EndChar

StartChar: omega
Encoding: 119 969 52
Width: 304
Flags: HW
LayerCount: 2
Fore
SplineSet
167 -151 m 0
 167 -295 l 0
 137 -295 l 0
 137 -151 l 0
 63 -144 8 -84 1 -15 c 0
 -143 -15 l 0
 -143 15 l 0
 1 15 l 0
 8 89 68 144 137 151 c 0
 137 295 l 0
 167 295 l 0
 167 151 l 0
 241 144 296 84 303 15 c 0
 447 15 l 0
 447 -15 l 0
 303 -15 l 0
 296 -89 236 -144 167 -151 c 0
120 -15 m 0
 56 -15 l 0
 51 -15 42 -22 44 -29 c 0
 54 -64 79 -92 114 -105 c 0
 123 -108 137 -98 137 -88 c 0
 137 -31 l 0
 137 -21 125 -15 120 -15 c 0
244 -15 m 0
 184 -15 l 0
 174 -15 167 -24 167 -30 c 0
 167 -88 l 0
 167 -97 178 -109 189 -105 c 0
 222 -93 249 -66 259 -32 c 0
 262 -23 249 -15 244 -15 c 0
258 35 m 0
 247 69 219 97 184 107 c 0
 178 109 167 99 167 93 c 0
 167 33 l 0
 167 29 171 15 183 15 c 0
 243 15 l 0
 253 15 260 29 258 35 c 0
137 31 m 0
 137 92 l 0
 137 101 124 109 116 106 c 0
 83 94 56 68 45 33 c 0
 43 27 49 15 56 15 c 0
 119 15 l 0
 130 15 137 24 137 31 c 0
EndSplineSet
EndChar

StartChar: xi
Encoding: 120 958 53
Width: 304
Flags: HW
LayerCount: 2
Fore
SplineSet
167 -151 m 0
 167 -295 l 0
 137 -295 l 0
 137 -151 l 0
 63 -144 8 -84 1 -15 c 0
 -143 -15 l 0
 -143 15 l 0
 1 15 l 0
 8 89 68 144 137 151 c 0
 137 295 l 0
 167 295 l 0
 167 151 l 0
 241 144 296 84 303 15 c 0
 447 15 l 0
 447 -15 l 0
 303 -15 l 0
 296 -89 236 -144 167 -151 c 0
120 -15 m 0
 56 -15 l 0
 51 -15 42 -22 44 -29 c 0
 54 -64 79 -92 114 -105 c 0
 123 -108 137 -98 137 -88 c 0
 137 -31 l 0
 137 -21 125 -15 120 -15 c 0
258 35 m 0
 247 69 219 97 184 107 c 0
 178 109 167 99 167 93 c 0
 167 33 l 0
 167 29 171 15 183 15 c 0
 243 15 l 0
 253 15 260 29 258 35 c 0
EndSplineSet
EndChar

StartChar: psi
Encoding: 121 968 54
Width: 304
Flags: HW
LayerCount: 2
Fore
SplineSet
167 -151 m 0
 167 -295 l 0
 137 -295 l 0
 137 -151 l 0
 63 -144 8 -84 1 -15 c 0
 -143 -15 l 0
 -143 15 l 0
 1 15 l 0
 8 89 68 144 137 151 c 0
 137 295 l 0
 167 295 l 0
 167 151 l 0
 241 144 296 84 303 15 c 0
 447 15 l 0
 447 -15 l 0
 303 -15 l 0
 296 -89 236 -144 167 -151 c 0
244 -15 m 0
 184 -15 l 0
 174 -15 167 -24 167 -30 c 0
 167 -88 l 0
 167 -97 178 -109 189 -105 c 0
 222 -93 249 -66 259 -32 c 0
 262 -23 249 -15 244 -15 c 0
137 31 m 0
 137 92 l 0
 137 101 124 109 116 106 c 0
 83 94 56 68 45 33 c 0
 43 27 49 15 56 15 c 0
 119 15 l 0
 130 15 137 24 137 31 c 0
EndSplineSet
EndChar

StartChar: zeta
Encoding: 122 950 55
Width: 304
Flags: HW
LayerCount: 2
Fore
SplineSet
167 -151 m 0
 167 -295 l 0
 137 -295 l 0
 137 -151 l 0
 63 -144 8 -84 1 -15 c 0
 -143 -15 l 0
 -143 15 l 0
 1 15 l 0
 8 89 68 144 137 151 c 0
 137 295 l 0
 167 295 l 0
 167 151 l 0
 241 144 296 84 303 15 c 0
 447 15 l 0
 447 -15 l 0
 303 -15 l 0
 296 -89 236 -144 167 -151 c 0
244 -15 m 0
 184 -15 l 0
 174 -15 167 -24 167 -30 c 0
 167 -88 l 0
 167 -97 178 -109 189 -105 c 0
 222 -93 249 -66 259 -32 c 0
 262 -23 249 -15 244 -15 c 0
258 35 m 0
 247 69 219 97 184 107 c 0
 178 109 167 99 167 93 c 0
 167 33 l 0
 167 29 171 15 183 15 c 0
 243 15 l 0
 253 15 260 29 258 35 c 0
EndSplineSet
EndChar

StartChar: braceleft
Encoding: 123 123 56
Width: 304
Flags: HW
LayerCount: 2
Fore
SplineSet
167 -151 m 0
 167 -295 l 0
 137 -295 l 0
 137 -151 l 0
 63 -144 8 -84 1 -15 c 0
 -143 -15 l 0
 -143 15 l 0
 1 15 l 0
 8 89 68 144 137 151 c 0
 137 295 l 0
 167 295 l 0
 167 151 l 0
 241 144 296 84 303 15 c 0
 447 15 l 0
 447 -15 l 0
 303 -15 l 0
 296 -89 236 -144 167 -151 c 0
120 -15 m 0
 56 -15 l 0
 51 -15 42 -22 44 -29 c 0
 54 -64 79 -92 114 -105 c 0
 123 -108 137 -98 137 -88 c 0
 137 -31 l 0
 137 -21 125 -15 120 -15 c 0
137 31 m 0
 137 92 l 0
 137 101 124 109 116 106 c 0
 83 94 56 68 45 33 c 0
 43 27 49 15 56 15 c 0
 119 15 l 0
 130 15 137 24 137 31 c 0
EndSplineSet
EndChar

StartChar: bar
Encoding: 124 124 57
Width: 304
Flags: HW
LayerCount: 2
Fore
SplineSet
167 -151 m 0
 167 -295 l 0
 137 -295 l 0
 137 -151 l 0
 63 -144 8 -84 1 -15 c 0
 -143 -15 l 0
 -143 15 l 0
 1 15 l 0
 8 89 68 144 137 151 c 0
 137 295 l 0
 167 295 l 0
 167 151 l 0
 241 144 296 84 303 15 c 0
 447 15 l 0
 447 -15 l 0
 303 -15 l 0
 296 -89 236 -144 167 -151 c 0
EndSplineSet
EndChar

StartChar: braceright
Encoding: 125 125 58
Width: 304
Flags: HW
LayerCount: 2
Fore
SplineSet
56 -117 m 0
 -86 -259 l 0
 -107 -238 l 0
 35 -96 l 0
 -12 -39 -9 42 35 96 c 0
 -107 238 l 0
 -86 259 l 0
 56 117 l 0
 113 164 194 161 248 117 c 0
 390 259 l 0
 411 238 l 0
 269 96 l 0
 316 39 313 -42 269 -96 c 0
 411 -238 l 0
 390 -259 l 0
 248 -117 l 0
 191 -164 110 -161 56 -117 c 0
119 12 m 0
 74 57 l 0
 70 61 59 62 55 56 c 0
 37 24 35 -13 51 -47 c 0
 55 -55 72 -59 79 -52 c 0
 119 -11 l 0
 126 -4 123 8 119 12 c 0
206 -76 m 0
 164 -33 l 0
 157 -26 145 -28 141 -32 c 0
 100 -73 l 0
 94 -79 93 -95 104 -100 c 0
 136 -115 174 -115 205 -98 c 0
 213 -94 210 -80 206 -76 c 0
252 -50 m 0
 268 -18 268 21 250 53 c 0
 247 59 232 59 228 55 c 0
 186 13 l 0
 183 10 177 -3 185 -11 c 0
 227 -54 l 0
 234 -61 249 -56 252 -50 c 0
163 33 m 0
 206 76 l 0
 212 82 209 96 201 100 c 0
 169 115 133 116 100 99 c 0
 94 96 90 83 95 78 c 0
 139 34 l 0
 147 26 158 28 163 33 c 0
EndSplineSet
EndChar

StartChar: similar
Encoding: 126 8764 59
Width: 304
Flags: HW
LayerCount: 2
Fore
SplineSet
56 -117 m 0
 -86 -259 l 0
 -107 -238 l 0
 35 -96 l 0
 -12 -39 -9 42 35 96 c 0
 -107 238 l 0
 -86 259 l 0
 56 117 l 0
 113 164 194 161 248 117 c 0
 390 259 l 0
 411 238 l 0
 269 96 l 0
 316 39 313 -42 269 -96 c 0
 411 -238 l 0
 390 -259 l 0
 248 -117 l 0
 191 -164 110 -161 56 -117 c 0
119 12 m 0
 74 57 l 0
 70 61 59 62 55 56 c 0
 37 24 35 -13 51 -47 c 0
 55 -55 72 -59 79 -52 c 0
 119 -11 l 0
 126 -4 123 8 119 12 c 0
252 -50 m 0
 268 -18 268 21 250 53 c 0
 247 59 232 59 228 55 c 0
 186 13 l 0
 183 10 177 -3 185 -11 c 0
 227 -54 l 0
 234 -61 249 -56 252 -50 c 0
EndSplineSet
EndChar

StartChar: uni007F
Encoding: 127 127 60
Width: 304
Flags: HW
LayerCount: 2
Fore
SplineSet
56 -117 m 0
 -86 -259 l 0
 -107 -238 l 0
 35 -96 l 0
 -12 -39 -9 42 35 96 c 0
 -107 238 l 0
 -86 259 l 0
 56 117 l 0
 113 164 194 161 248 117 c 0
 390 259 l 0
 411 238 l 0
 269 96 l 0
 316 39 313 -42 269 -96 c 0
 411 -238 l 0
 390 -259 l 0
 248 -117 l 0
 191 -164 110 -161 56 -117 c 0
206 -76 m 0
 164 -33 l 0
 157 -26 145 -28 141 -32 c 0
 100 -73 l 0
 94 -79 93 -95 104 -100 c 0
 136 -115 174 -115 205 -98 c 0
 213 -94 210 -80 206 -76 c 0
163 33 m 0
 206 76 l 0
 212 82 209 96 201 100 c 0
 169 115 133 116 100 99 c 0
 94 96 90 83 95 78 c 0
 139 34 l 0
 147 26 158 28 163 33 c 0
EndSplineSet
EndChar

StartChar: uni0080
Encoding: 128 128 61
Width: 304
Flags: HW
LayerCount: 2
Fore
SplineSet
56 -117 m 0
 -86 -259 l 0
 -107 -238 l 0
 35 -96 l 0
 -12 -39 -9 42 35 96 c 0
 -107 238 l 0
 -86 259 l 0
 56 117 l 0
 113 164 194 161 248 117 c 0
 390 259 l 0
 411 238 l 0
 269 96 l 0
 316 39 313 -42 269 -96 c 0
 411 -238 l 0
 390 -259 l 0
 248 -117 l 0
 191 -164 110 -161 56 -117 c 0
206 -76 m 0
 164 -33 l 0
 157 -26 145 -28 141 -32 c 0
 100 -73 l 0
 94 -79 93 -95 104 -100 c 0
 136 -115 174 -115 205 -98 c 0
 213 -94 210 -80 206 -76 c 0
252 -50 m 0
 268 -18 268 21 250 53 c 0
 247 59 232 59 228 55 c 0
 186 13 l 0
 183 10 177 -3 185 -11 c 0
 227 -54 l 0
 234 -61 249 -56 252 -50 c 0
EndSplineSet
EndChar

StartChar: uni0081
Encoding: 129 129 62
Width: 304
Flags: HW
LayerCount: 2
Fore
SplineSet
56 -117 m 0
 -86 -259 l 0
 -107 -238 l 0
 35 -96 l 0
 -12 -39 -9 42 35 96 c 0
 -107 238 l 0
 -86 259 l 0
 56 117 l 0
 113 164 194 161 248 117 c 0
 390 259 l 0
 411 238 l 0
 269 96 l 0
 316 39 313 -42 269 -96 c 0
 411 -238 l 0
 390 -259 l 0
 248 -117 l 0
 191 -164 110 -161 56 -117 c 0
119 12 m 0
 74 57 l 0
 70 61 59 62 55 56 c 0
 37 24 35 -13 51 -47 c 0
 55 -55 72 -59 79 -52 c 0
 119 -11 l 0
 126 -4 123 8 119 12 c 0
163 33 m 0
 206 76 l 0
 212 82 209 96 201 100 c 0
 169 115 133 116 100 99 c 0
 94 96 90 83 95 78 c 0
 139 34 l 0
 147 26 158 28 163 33 c 0
EndSplineSet
EndChar

StartChar: uni0082
Encoding: 130 130 63
Width: 304
Flags: HW
LayerCount: 2
Fore
SplineSet
56 -117 m 0
 -86 -259 l 0
 -107 -238 l 0
 35 -96 l 0
 -12 -39 -9 42 35 96 c 0
 -107 238 l 0
 -86 259 l 0
 56 117 l 0
 113 164 194 161 248 117 c 0
 390 259 l 0
 411 238 l 0
 269 96 l 0
 316 39 313 -42 269 -96 c 0
 411 -238 l 0
 390 -259 l 0
 248 -117 l 0
 191 -164 110 -161 56 -117 c 0
EndSplineSet
EndChar

StartChar: uni0083
Encoding: 131 131 64
Width: 345
Flags: HW
LayerCount: 2
Fore
SplineSet
59 34 m 0
 152 -72 l 0
 160 -81 166 -85 171 -85 c 0
 178 -85 184 -80 193 -70 c 0
 286 35 l 0
 291 41 294 46 294 51 c 0
 294 58 289 64 280 70 c 0
 249 89 213 101 172 101 c 0
 132 101 95 90 62 68 c 0
 53 62 49 58 49 52 c 0
 49 47 53 41 59 34 c 0
14 74 m 0
 57 113 113 135 172 135 c 0
 234 135 288 111 329 75 c 0
 340 66 345 61 345 55 c 0
 345 49 341 43 332 34 c 0
 193 -120 l 0
 183 -130 178 -135 172 -135 c 0
 167 -135 162 -131 152 -121 c 0
 13 33 l 0
 5 42 0 48 0 54 c 0
 0 60 5 65 14 74 c 0
EndSplineSet
EndChar

StartChar: uni0084
Encoding: 132 132 65
Width: 345
Flags: HW
LayerCount: 2
Fore
SplineSet
14 74 m 0
 57 113 113 135 172 135 c 0
 234 135 288 111 329 75 c 0
 340 66 345 61 345 55 c 0
 345 49 341 43 332 34 c 0
 193 -120 l 0
 183 -130 178 -135 172 -135 c 0
 167 -135 162 -131 152 -121 c 0
 13 33 l 0
 5 42 0 48 0 54 c 0
 0 60 5 65 14 74 c 0
EndSplineSet
EndChar

StartChar: uni0085
Encoding: 133 133 66
Width: 270
Flags: HW
LayerCount: 2
Fore
SplineSet
169 113.5 m 0
 63 20.5 l 0
 54 12.5 50 6.5 50 1.5 c 0
 50 -5.5 55 -11.5 65 -20.5 c 0
 170 -113.5 l 0
 176 -118.5 181 -121.5 186 -121.5 c 0
 193 -121.5 199 -116.5 205 -107.5 c 0
 224 -76.5 236 -40.5 236 0.5 c 0
 236 40.5 225 77.5 203 110.5 c 0
 197 119.5 193 123.5 187 123.5 c 0
 182 123.5 176 119.5 169 113.5 c 0
209 158.5 m 0
 248 115.5 270 59.5 270 0.5 c 0
 270 -61.5 246 -115.5 210 -156.5 c 0
 201 -167.5 196 -172.5 190 -172.5 c 0
 184 -172.5 178 -168.5 169 -159.5 c 0
 15 -20.5 l 0
 5 -10.5 0 -5.5 0 0.5 c 0
 0 5.5 4 10.5 14 20.5 c 0
 168 159.5 l 0
 177 167.5 183 172.5 189 172.5 c 0
 195 172.5 200 167.5 209 158.5 c 0
EndSplineSet
EndChar

StartChar: uni0086
Encoding: 134 134 67
Width: 270
Flags: HW
LayerCount: 2
Fore
SplineSet
209 158.5 m 0
 248 115.5 270 59.5 270 0.5 c 0
 270 -61.5 246 -115.5 210 -156.5 c 0
 201 -167.5 196 -172.5 190 -172.5 c 0
 184 -172.5 178 -168.5 169 -159.5 c 0
 15 -20.5 l 0
 5 -10.5 0 -5.5 0 0.5 c 0
 0 5.5 4 10.5 14 20.5 c 0
 168 159.5 l 0
 177 167.5 183 172.5 189 172.5 c 0
 195 172.5 200 167.5 209 158.5 c 0
EndSplineSet
EndChar

StartChar: uni0087
Encoding: 135 135 68
Width: 345
Flags: HW
LayerCount: 2
Fore
SplineSet
286 -34 m 0
 193 72 l 0
 185 81 179 85 174 85 c 0
 167 85 161 80 152 70 c 0
 59 -35 l 0
 54 -41 51 -46 51 -51 c 0
 51 -58 56 -64 65 -70 c 0
 96 -89 132 -101 173 -101 c 0
 213 -101 250 -90 283 -68 c 0
 292 -62 296 -58 296 -52 c 0
 296 -47 292 -41 286 -34 c 0
331 -74 m 0
 288 -113 232 -135 173 -135 c 0
 111 -135 57 -111 16 -75 c 0
 5 -66 0 -61 0 -55 c 0
 0 -49 4 -43 13 -34 c 0
 152 120 l 0
 162 130 167 135 173 135 c 0
 178 135 183 131 193 121 c 0
 332 -33 l 0
 340 -42 345 -48 345 -54 c 0
 345 -60 340 -65 331 -74 c 0
EndSplineSet
EndChar

StartChar: uni0088
Encoding: 136 136 69
Width: 345
Flags: HW
LayerCount: 2
Fore
SplineSet
331 -74 m 0
 288 -113 232 -135 173 -135 c 0
 111 -135 57 -111 16 -75 c 0
 5 -66 0 -61 0 -55 c 0
 0 -49 4 -43 13 -34 c 0
 152 120 l 0
 162 130 167 135 173 135 c 0
 178 135 183 131 193 121 c 0
 332 -33 l 0
 340 -42 345 -48 345 -54 c 0
 345 -60 340 -65 331 -74 c 0
EndSplineSet
EndChar

StartChar: uni0089
Encoding: 137 137 70
Width: 270
Flags: HW
LayerCount: 2
Fore
SplineSet
101 -113.5 m 0
 207 -20.5 l 0
 216 -12.5 220 -6.5 220 -1.5 c 0
 220 5.5 215 11.5 205 20.5 c 0
 100 113.5 l 0
 94 118.5 89 121.5 84 121.5 c 0
 77 121.5 71 116.5 65 107.5 c 0
 46 76.5 34 40.5 34 -0.5 c 0
 34 -40.5 45 -77.5 67 -110.5 c 0
 73 -119.5 77 -123.5 83 -123.5 c 0
 88 -123.5 94 -119.5 101 -113.5 c 0
61 -158.5 m 0
 22 -115.5 0 -59.5 0 -0.5 c 0
 0 61.5 24 115.5 60 156.5 c 0
 69 167.5 74 172.5 80 172.5 c 0
 86 172.5 92 168.5 101 159.5 c 0
 255 20.5 l 0
 265 10.5 270 5.5 270 -0.5 c 0
 270 -5.5 266 -10.5 256 -20.5 c 0
 102 -159.5 l 0
 93 -167.5 87 -172.5 81 -172.5 c 0
 75 -172.5 70 -167.5 61 -158.5 c 0
EndSplineSet
EndChar

StartChar: uni008A
Encoding: 138 138 71
Width: 270
Flags: HW
LayerCount: 2
Fore
SplineSet
61 -158.5 m 0
 22 -115.5 0 -59.5 0 -0.5 c 0
 0 61.5 24 115.5 60 156.5 c 0
 69 167.5 74 172.5 80 172.5 c 0
 86 172.5 92 168.5 101 159.5 c 0
 255 20.5 l 0
 265 10.5 270 5.5 270 -0.5 c 0
 270 -5.5 266 -10.5 256 -20.5 c 0
 102 -159.5 l 0
 93 -167.5 87 -172.5 81 -172.5 c 0
 75 -172.5 70 -167.5 61 -158.5 c 0
EndSplineSet
EndChar

StartChar: uni008B
Encoding: 139 139 72
Width: 273
Flags: HW
LayerCount: 2
Fore
SplineSet
118 75 m 0
 60 18 l 0
 53 11 49 5 49 0 c 0
 49 -6 53 -11 60 -18 c 0
 118 -76 l 0
 126 -84 131 -88 136 -88 c 0
 141 -88 146 -84 154 -76 c 0
 211 -19 l 0
 218 -11 223 -6 223 0 c 0
 223 5 219 11 211 19 c 0
 155 75 l 0
 147 83 141 87 136 87 c 0
 130 87 125 83 118 75 c 0
155 123 m 0
 261 17 l 0
 269 9 273 4 273 0 c 0
 273 -4 270 -9 262 -16 c 0
 156 -122 l 0
 147 -131 142 -136 136 -136 c 0
 131 -136 126 -132 116 -122 c 0
 16 -22 l 0
 5 -11 0 -5 0 0 c 0
 0 5 4 11 13 20 c 0
 116 122 l 0
 126 132 131 136 136 136 c 0
 142 136 146 132 155 123 c 0
EndSplineSet
EndChar

StartChar: uni008C
Encoding: 140 140 73
Width: 273
Flags: HW
LayerCount: 2
Fore
SplineSet
155 123 m 0
 261 17 l 0
 269 9 273 4 273 0 c 0
 273 -4 270 -9 262 -16 c 0
 156 -122 l 0
 147 -131 142 -136 136 -136 c 0
 131 -136 126 -132 116 -122 c 0
 16 -22 l 0
 5 -11 0 -5 0 0 c 0
 0 5 4 11 13 20 c 0
 116 122 l 0
 126 132 131 136 136 136 c 0
 142 136 146 132 155 123 c 0
EndSplineSet
EndChar

StartChar: uni008D
Encoding: 141 141 74
Width: 296
Flags: HW
LayerCount: 2
Fore
SplineSet
228 16 m 0
 166 65 l 0
 158 71 153 73 148 73 c 0
 142 73 135 69 124 60 c 0
 66 15 l 0
 60 10 56 5 56 0 c 0
 56 -5 60 -10 68 -16 c 0
 127 -62 l 0
 135 -69 141 -72 148 -72 c 0
 153 -72 159 -69 168 -63 c 0
 226 -17 l 0
 235 -11 239 -5 239 0 c 0
 239 6 235 10 228 16 c 0
286 -13 m 0
 172 -103 l 0
 160 -112 154 -117 148 -117 c 0
 142 -117 137 -113 127 -105 c 0
 15 -18 l 0
 4 -9 0 -4 0 0 c 0
 0 5 4 9 12 16 c 0
 126 104 l 0
 136 113 142 117 148 117 c 0
 154 117 159 113 170 104 c 0
 282 16 l 0
 292 9 296 4 296 -1 c 0
 296 -5 293 -8 286 -13 c 0
EndSplineSet
EndChar

StartChar: uni008E
Encoding: 142 142 75
Width: 296
Flags: HW
LayerCount: 2
Fore
SplineSet
286 -13 m 0
 172 -103 l 0
 160 -112 154 -117 148 -117 c 0
 142 -117 137 -113 127 -105 c 0
 15 -18 l 0
 4 -9 0 -4 0 0 c 0
 0 5 4 9 12 16 c 0
 126 104 l 0
 136 113 142 117 148 117 c 0
 154 117 159 113 170 104 c 0
 282 16 l 0
 292 9 296 4 296 -1 c 0
 296 -5 293 -8 286 -13 c 0
EndSplineSet
EndChar

StartChar: uni008F
Encoding: 143 143 76
Width: 267
Flags: HW
LayerCount: 2
Fore
SplineSet
212 29 m 0
 152 120 l 0
 144 133 138 139 133 139 c 0
 126 139 121 131 113 119 c 0
 49 22 l 0
 43 11 39 6 39 0 c 0
 39 -6 43 -12 50 -23 c 0
 112 -118 l 0
 121 -131 126 -139 132 -139 c 0
 138 -139 145 -132 155 -116 c 0
 216 -22 l 0
 222 -13 225 -7 225 0 c 0
 225 8 220 16 212 29 c 0
257 -22 m 0
 153 -182 l 0
 144 -195 139 -202 133 -202 c 0
 127 -202 121 -194 110 -177 c 0
 14 -30 l 0
 5 -15 0 -8 0 0 c 0
 0 8 5 16 14 30 c 0
 116 186 l 0
 124 198 128 203 133 203 c 0
 138 203 144 195 154 180 c 0
 254 26 l 0
 262 14 267 7 267 0 c 0
 267 -6 263 -12 257 -22 c 0
EndSplineSet
EndChar

StartChar: uni0090
Encoding: 144 144 77
Width: 267
Flags: HW
LayerCount: 2
Fore
SplineSet
257 -22 m 0
 153 -182 l 0
 144 -195 139 -202 133 -202 c 0
 127 -202 121 -194 110 -177 c 0
 14 -30 l 0
 5 -15 0 -8 0 0 c 0
 0 8 5 16 14 30 c 0
 116 186 l 0
 124 198 128 203 133 203 c 0
 138 203 144 195 154 180 c 0
 254 26 l 0
 262 14 267 7 267 0 c 0
 267 -6 263 -12 257 -22 c 0
EndSplineSet
EndChar

StartChar: uni0091
Encoding: 145 145 78
Width: 296
Flags: HW
LayerCount: 2
Fore
SplineSet
239 26 m 0
 164 173 l 0
 156 188 150 196 144 196 c 0
 138 196 133 189 125 174 c 0
 47 23 l 0
 42 13 39 6 39 0 c 0
 39 -7 42 -14 48 -25 c 0
 124 -171 l 0
 132 -188 138 -196 144 -196 c 0
 150 -196 155 -189 163 -174 c 0
 241 -23 l 0
 246 -14 248 -7 248 0 c 0
 248 7 245 15 239 26 c 0
278 -26 m 0
 166 -243 l 0
 156 -263 150 -273 144 -273 c 0
 138 -273 132 -262 122 -243 c 0
 5 -17 l 0
 2 -9 0 -4 0 0 c 0
 0 5 2 10 6 18 c 0
 125 248 l 0
 134 266 139 274 144 274 c 0
 149 274 154 266 163 248 c 0
 282 18 l 0
 286 10 288 5 288 0 c 0
 288 -6 284 -13 278 -26 c 0
EndSplineSet
EndChar

StartChar: uni0092
Encoding: 146 146 79
Width: 296
Flags: HW
LayerCount: 2
Fore
SplineSet
278 -26 m 0
 166 -243 l 0
 156 -263 150 -273 144 -273 c 0
 138 -273 132 -262 122 -243 c 0
 5 -17 l 0
 2 -9 0 -4 0 0 c 0
 0 5 2 10 6 18 c 0
 125 248 l 0
 134 266 139 274 144 274 c 0
 149 274 154 266 163 248 c 0
 282 18 l 0
 286 10 288 5 288 0 c 0
 288 -6 284 -13 278 -26 c 0
EndSplineSet
EndChar

StartChar: uni0093
Encoding: 147 147 80
Width: 240
Flags: HW
LayerCount: 2
Fore
SplineSet
63 19 m 0
 59 15 57 12 57 8 c 0
 57 5 58 3 61 0 c 0
 91 -29 l 0
 118 -57 l 0
 122 -61 125 -63 128 -63 c 0
 132 -63 136 -60 142 -54 c 0
 175 -21 l 0
 181 -15 184 -11 184 -8 c 0
 184 -5 182 -2 178 2 c 0
 172 8 156 22 149 29 c 0
 120 59 l 0
 117 62 115 63 112 63 c 0
 108 63 105 61 101 57 c 0
 63 19 l 0
148 -109 m 0
 142 -115 137 -120 132 -120 c 0
 130 -120 127 -119 123 -115 c 0
 107 -99 99 -81 69 -51 c 0
 39 -21 19 -11 5 3 c 0
 2 6 0 9 0 12 c 0
 0 16 4 21 10 27 c 0
 93 110 l 0
 99 116 104 120 108 120 c 0
 111 120 114 118 117 115 c 0
 131 101 141 81 171 51 c 0
 201 21 219 13 235 -3 c 0
 239 -7 240 -10 240 -12 c 0
 240 -17 235 -22 229 -28 c 0
 148 -109 l 0
EndSplineSet
EndChar

StartChar: uni0094
Encoding: 148 148 81
Width: 240
Flags: HW
LayerCount: 2
Fore
SplineSet
148 -109 m 0
 142 -115 137 -120 132 -120 c 0
 130 -120 127 -119 123 -115 c 0
 107 -99 99 -81 69 -51 c 0
 39 -21 19 -11 5 3 c 0
 2 6 0 9 0 12 c 0
 0 16 4 21 10 27 c 0
 93 110 l 0
 99 116 104 120 108 120 c 0
 111 120 114 118 117 115 c 0
 131 101 141 81 171 51 c 0
 201 21 219 13 235 -3 c 0
 239 -7 240 -10 240 -12 c 0
 240 -17 235 -22 229 -28 c 0
 148 -109 l 0
EndSplineSet
EndChar

StartChar: uni0095
Encoding: 149 149 82
Width: 260
Flags: HW
LayerCount: 2
Fore
SplineSet
58 -101 m 0
 158 -101 l 0
 173 -101 180 -98 180 -91 c 0
 180 -87 176 -80 169 -72 c 0
 62 39 l 0
 54 48 47 53 42 53 c 0
 37 53 34 45 34 27 c 0
 34 -76 l 0
 34 -96 40 -101 58 -101 c 0
0 -114 m 0
 0 126 l 0
 0 135 3 140 7 140 c 0
 11 140 16 137 20 132 c 0
 254 -113 l 0
 258 -116 260 -121 260 -125 c 0
 260 -130 256 -135 245 -135 c 0
 17 -135 l 0
 2 -135 0 -133 0 -114 c 0
EndSplineSet
EndChar

StartChar: uni0096
Encoding: 150 150 83
Width: 260
Flags: HW
LayerCount: 2
Fore
SplineSet
0 -114 m 0
 0 126 l 0
 0 135 3 140 7 140 c 0
 11 140 16 137 20 132 c 0
 254 -113 l 0
 258 -116 260 -121 260 -125 c 0
 260 -130 256 -135 245 -135 c 0
 17 -135 l 0
 2 -135 0 -133 0 -114 c 0
EndSplineSet
EndChar

StartChar: uni0097
Encoding: 151 151 84
Width: 276
Flags: HW
LayerCount: 2
Fore
SplineSet
34 74 m 0
 34 -26 l 0
 34 -40 38 -48 44 -48 c 0
 48 -48 56 -44 64 -36 c 0
 174 70 l 0
 184 78 188 86 188 90 c 0
 188 96 180 98 162 98 c 0
 60 98 l 0
 40 98 34 92 34 74 c 0
22 132 m 0
 262 132 l 0
 270 132 276 130 276 126 c 0
 276 122 272 116 268 112 c 0
 22 -122 l 0
 20 -126 14 -128 10 -128 c 0
 6 -128 0 -124 0 -112 c 0
 0 116 l 0
 0 130 2 132 22 132 c 0
EndSplineSet
EndChar

StartChar: uni0098
Encoding: 152 152 85
Width: 276
Flags: HW
LayerCount: 2
Fore
SplineSet
22 132 m 0
 262 132 l 0
 270 132 276 130 276 126 c 0
 276 122 272 116 268 112 c 0
 22 -122 l 0
 20 -126 14 -128 10 -128 c 0
 6 -128 0 -124 0 -112 c 0
 0 116 l 0
 0 130 2 132 22 132 c 0
EndSplineSet
EndChar

StartChar: uni0099
Encoding: 153 153 86
Width: 276
Flags: HW
LayerCount: 2
Fore
SplineSet
242 -70 m 0
 242 30 l 0
 242 46 238 52 232 52 c 0
 228 52 220 50 212 42 c 0
 102 -66 l 0
 92 -76 88 -80 88 -86 c 0
 88 -90 92 -94 114 -94 c 0
 216 -94 l 0
 236 -94 242 -88 242 -70 c 0
254 -128 m 0
 14 -128 l 0
 6 -128 0 -124 0 -120 c 0
 0 -116 4 -112 8 -108 c 0
 254 126 l 0
 256 130 262 132 266 132 c 0
 270 132 276 128 276 118 c 0
 276 -110 l 0
 276 -126 274 -128 254 -128 c 0
EndSplineSet
EndChar

StartChar: uni009A
Encoding: 154 154 87
Width: 276
Flags: HW
LayerCount: 2
Fore
SplineSet
254 -128 m 0
 14 -128 l 0
 6 -128 0 -124 0 -120 c 0
 0 -116 4 -112 8 -108 c 0
 254 126 l 0
 256 130 262 132 266 132 c 0
 270 132 276 128 276 118 c 0
 276 -110 l 0
 276 -126 274 -128 254 -128 c 0
EndSplineSet
EndChar

StartChar: uni009B
Encoding: 155 155 88
Width: 260
Flags: HW
LayerCount: 2
Fore
SplineSet
202 106 m 0
 102 106 l 0
 87 106 80 103 80 96 c 0
 80 92 84 85 91 77 c 0
 198 -34 l 0
 206 -43 213 -48 218 -48 c 0
 223 -48 226 -40 226 -22 c 0
 226 81 l 0
 226 101 220 106 202 106 c 0
260 119 m 0
 260 -121 l 0
 260 -130 257 -135 253 -135 c 0
 249 -135 244 -132 240 -127 c 0
 6 118 l 0
 2 121 0 126 0 130 c 0
 0 135 4 140 15 140 c 0
 243 140 l 0
 258 140 260 138 260 119 c 0
EndSplineSet
EndChar

StartChar: uni009C
Encoding: 156 156 89
Width: 260
Flags: HW
LayerCount: 2
Fore
SplineSet
260 119 m 0
 260 -121 l 0
 260 -130 257 -135 253 -135 c 0
 249 -135 244 -132 240 -127 c 0
 6 118 l 0
 2 121 0 126 0 130 c 0
 0 135 4 140 15 140 c 0
 243 140 l 0
 258 140 260 138 260 119 c 0
EndSplineSet
EndChar

StartChar: uni009D
Encoding: 157 157 90
Width: 383
Flags: HW
LayerCount: 2
Fore
SplineSet
55 -101 m 0
 244 -101 l 0
 261 -101 273 -97 273 -89 c 0
 273 -84 268 -76 254 -67 c 0
 64 60 l 0
 56 65 50 68 45 68 c 0
 38 68 34 61 34 44 c 0
 34 -78 l 0
 34 -97 37 -101 55 -101 c 0
0 -116 m 0
 0 118 l 0
 0 130 2 135 7 135 c 0
 11 135 16 132 23 127 c 0
 364 -100 l 0
 377 -108 383 -116 383 -122 c 0
 383 -130 373 -135 357 -135 c 0
 15 -135 l 0
 0 -135 0 -133 0 -116 c 0
EndSplineSet
EndChar

StartChar: uni009E
Encoding: 158 158 91
Width: 383
Flags: HW
LayerCount: 2
Fore
SplineSet
0 -116 m 0
 0 118 l 0
 0 130 2 135 7 135 c 0
 11 135 16 132 23 127 c 0
 364 -100 l 0
 377 -108 383 -116 383 -122 c 0
 383 -130 373 -135 357 -135 c 0
 15 -135 l 0
 0 -135 0 -133 0 -116 c 0
EndSplineSet
EndChar

StartChar: uni009F
Encoding: 159 159 92
Width: 383
Flags: HW
LayerCount: 2
Fore
SplineSet
55 101 m 0
 37 101 34 97 34 78 c 0
 34 -44 l 0
 34 -61 38 -68 45 -68 c 0
 50 -68 56 -65 64 -60 c 0
 254 67 l 0
 268 76 273 84 273 89 c 0
 273 97 261 101 244 101 c 0
 55 101 l 0
0 116 m 0
 0 133 0 135 15 135 c 0
 357 135 l 0
 373 135 383 130 383 122 c 0
 383 116 377 108 364 100 c 0
 23 -127 l 0
 16 -132 11 -135 7 -135 c 0
 2 -135 0 -130 0 -118 c 0
 0 116 l 0
EndSplineSet
EndChar

StartChar: uni0000
Encoding: 0 93 93
Width: 298
Flags: W
VStem: 0 42<-234.688 -141.013 -24.2178 111.484> 0 30<-485 -393.238> 249 29<-414.992 -295.488> 263 35<-790.022 -566.881>
LayerCount: 2
Fore
SplineSet
298 -676 m 0x10
 298 -765 262 -885 231 -885 c 0
 220 -885 218 -878 218 -868 c 0
 218 -851 263 -785 263 -675 c 0
 263 -578 228 -510 185 -462 c 0
 153 -427 93 -386 60 -386 c 0
 40 -386 30 -411 30 -485 c 0
 0 -485 l 0x50
 0 85 l 0
 0 101 11 112 26 112 c 0
 38 112 40 97 40 84 c 0
 40 9 54 -27 103 -70 c 0
 204 -156 278 -231 278 -372 c 0xa0
 278 -444 260 -462 260 -483 c 0
 260 -508 298 -559 298 -676 c 0x10
227 -418 m 0
 245 -418 249 -388 249 -364 c 0
 249 -240 118 -141 58 -141 c 0
 43 -141 42 -159 42 -174 c 0xa0
 42 -212 75 -261 116 -301 c 0
 198 -380 210 -418 227 -418 c 0
EndSplineSet
EndChar

StartChar: Upsilon1
Encoding: 161 978 94
Width: 383
Flags: HW
LayerCount: 2
Fore
SplineSet
328 -101 m 0
 346 -101 349 -97 349 -78 c 0
 349 44 l 0
 349 61 345 68 338 68 c 0
 333 68 327 65 319 60 c 0
 129 -67 l 0
 115 -76 110 -84 110 -89 c 0
 110 -97 122 -101 139 -101 c 0
 328 -101 l 0
383 -116 m 0
 383 -133 383 -135 368 -135 c 0
 26 -135 l 0
 10 -135 0 -130 0 -122 c 0
 0 -116 6 -108 19 -100 c 0
 360 127 l 0
 367 132 372 135 376 135 c 0
 381 135 383 130 383 118 c 0
 383 -116 l 0
EndSplineSet
EndChar

StartChar: minute
Encoding: 162 8242 95
Width: 383
Flags: HW
LayerCount: 2
Fore
SplineSet
383 -116 m 0
 383 -133 383 -135 368 -135 c 0
 26 -135 l 0
 10 -135 0 -130 0 -122 c 0
 0 -116 6 -108 19 -100 c 0
 360 127 l 0
 367 132 372 135 376 135 c 0
 381 135 383 130 383 118 c 0
 383 -116 l 0
EndSplineSet
EndChar

StartChar: lessequal
Encoding: 163 8804 96
Width: 383
Flags: HW
LayerCount: 2
Fore
SplineSet
328 101 m 0
 139 101 l 0
 122 101 110 97 110 89 c 0
 110 84 115 76 129 67 c 0
 319 -60 l 0
 327 -65 333 -68 338 -68 c 0
 345 -68 349 -61 349 -44 c 0
 349 78 l 0
 349 97 346 101 328 101 c 0
383 116 m 0
 383 -118 l 0
 383 -130 381 -135 376 -135 c 0
 372 -135 367 -132 360 -127 c 0
 19 100 l 0
 6 108 0 116 0 122 c 0
 0 130 10 135 26 135 c 0
 368 135 l 0
 383 135 383 133 383 116 c 0
EndSplineSet
EndChar

StartChar: fraction
Encoding: 164 8260 97
Width: 383
Flags: HW
LayerCount: 2
Fore
SplineSet
383 116 m 0
 383 -118 l 0
 383 -130 381 -135 376 -135 c 0
 372 -135 367 -132 360 -127 c 0
 19 100 l 0
 6 108 0 116 0 122 c 0
 0 130 10 135 26 135 c 0
 368 135 l 0
 383 135 383 133 383 116 c 0
EndSplineSet
EndChar

StartChar: infinity
Encoding: 165 8734 98
Width: 508
Flags: HW
LayerCount: 2
Fore
SplineSet
238 85 m 0
 91 -67 l 0
 84 -75 80 -82 80 -86 c 0
 80 -93 87 -96 102 -96 c 0
 406 -96 l 0
 421 -96 428 -93 428 -86 c 0
 428 -82 424 -75 417 -67 c 0
 270 86 l 0
 263 93 258 96 254 96 c 0
 249 96 244 92 238 85 c 0
268 137 m 0
 502 -108 l 0
 506 -111 508 -116 508 -120 c 0
 508 -125 504 -130 493 -130 c 0
 15 -130 l 0
 4 -130 0 -125 0 -120 c 0
 0 -116 2 -111 6 -108 c 0
 240 137 l 0
 246 143 250 146 254 146 c 0
 259 146 263 143 268 137 c 0
EndSplineSet
EndChar

StartChar: florin
Encoding: 166 402 99
Width: 508
Flags: HW
LayerCount: 2
Fore
SplineSet
268 137 m 0
 502 -108 l 0
 506 -111 508 -116 508 -120 c 0
 508 -125 504 -130 493 -130 c 0
 15 -130 l 0
 4 -130 0 -125 0 -120 c 0
 0 -116 2 -111 6 -108 c 0
 240 137 l 0
 246 143 250 146 254 146 c 0
 259 146 263 143 268 137 c 0
EndSplineSet
EndChar

StartChar: club
Encoding: 167 9827 100
Width: 508
Flags: HW
LayerCount: 2
Fore
SplineSet
270 -85 m 0
 417 67 l 0
 424 75 428 82 428 86 c 0
 428 93 421 96 406 96 c 0
 102 96 l 0
 87 96 80 93 80 86 c 0
 80 82 84 75 91 67 c 0
 238 -86 l 0
 245 -93 250 -96 254 -96 c 0
 259 -96 264 -92 270 -85 c 0
240 -137 m 0
 6 108 l 0
 2 111 0 116 0 120 c 0
 0 125 4 130 15 130 c 0
 493 130 l 0
 504 130 508 125 508 120 c 0
 508 116 506 111 502 108 c 0
 268 -137 l 0
 262 -143 258 -146 254 -146 c 0
 249 -146 245 -143 240 -137 c 0
EndSplineSet
EndChar

StartChar: diamond
Encoding: 168 9830 101
Width: 508
Flags: HW
LayerCount: 2
Fore
SplineSet
240 -137 m 0
 6 108 l 0
 2 111 0 116 0 120 c 0
 0 125 4 130 15 130 c 0
 493 130 l 0
 504 130 508 125 508 120 c 0
 508 116 506 111 502 108 c 0
 268 -137 l 0
 262 -143 258 -146 254 -146 c 0
 249 -146 245 -143 240 -137 c 0
EndSplineSet
EndChar

StartChar: heart
Encoding: 169 9829 102
Width: 408
Flags: HW
LayerCount: 2
Fore
SplineSet
83 -91 m 0
 319 -91 l 0
 331 -91 337 -88 337 -83 c 0
 337 -79 334 -73 328 -65 c 0
 218 77 l 0
 212 84 206 88 200 88 c 0
 194 88 187 84 180 75 c 0
 74 -62 l 0
 68 -70 65 -76 65 -81 c 0
 65 -88 72 -91 83 -91 c 0
2 -99 m 0
 181 131 l 0
 189 141 194 145 200 145 c 0
 206 145 212 140 219 131 c 0
 405 -108 l 0
 407 -111 408 -114 408 -117 c 0
 408 -121 404 -125 394 -125 c 0
 8 -125 l 0
 -3 -125 -7 -122 -7 -117 c 0
 -7 -113 -3 -107 2 -99 c 0
EndSplineSet
EndChar

StartChar: spade
Encoding: 170 9824 103
Width: 408
Flags: HW
LayerCount: 2
Fore
SplineSet
2 -99 m 0
 181 131 l 0
 189 141 194 145 200 145 c 0
 206 145 212 140 219 131 c 0
 405 -108 l 0
 407 -111 408 -114 408 -117 c 0
 408 -121 404 -125 394 -125 c 0
 8 -125 l 0
 -3 -125 -7 -122 -7 -117 c 0
 -7 -113 -3 -107 2 -99 c 0
EndSplineSet
EndChar

StartChar: arrowboth
Encoding: 171 8596 104
Width: 408
Flags: HW
LayerCount: 2
Fore
SplineSet
83 91 m 0
 72 91 65 88 65 81 c 0
 65 76 68 70 74 62 c 0
 180 -75 l 0
 187 -84 194 -88 200 -88 c 0
 206 -88 212 -84 218 -77 c 0
 328 65 l 0
 334 73 337 79 337 83 c 0
 337 88 331 91 319 91 c 0
 83 91 l 0
2 99 m 0
 -3 107 -7 113 -7 117 c 0
 -7 122 -3 125 8 125 c 0
 394 125 l 0
 404 125 408 121 408 117 c 0
 408 114 407 111 405 108 c 0
 219 -131 l 0
 212 -140 206 -145 200 -145 c 0
 194 -145 189 -141 181 -131 c 0
 2 99 l 0
EndSplineSet
EndChar

StartChar: arrowleft
Encoding: 172 8592 105
Width: 408
Flags: HW
LayerCount: 2
Fore
SplineSet
2 99 m 0
 -3 107 -7 113 -7 117 c 0
 -7 122 -3 125 8 125 c 0
 394 125 l 0
 404 125 408 121 408 117 c 0
 408 114 407 111 405 108 c 0
 219 -131 l 0
 212 -140 206 -145 200 -145 c 0
 194 -145 189 -141 181 -131 c 0
 2 99 l 0
EndSplineSet
EndChar

StartChar: arrowup
Encoding: 173 8593 106
Width: 312
Flags: HW
LayerCount: 2
Fore
SplineSet
79 -91 m 0
 221 -91 l 0
 241 -91 249 -85 249 -75 c 0
 249 -69 246 -62 241 -53 c 0
 174 63 l 0
 168 73 162 78 156 78 c 0
 150 78 144 74 139 64 c 0
 67 -61 l 0
 62 -70 59 -76 59 -81 c 0
 59 -90 68 -91 79 -91 c 0
7 -96 m 0
 140 135 l 0
 146 145 151 150 156 150 c 0
 161 150 166 144 173 133 c 0
 306 -98 l 0
 310 -104 312 -110 312 -114 c 0
 312 -121 305 -125 291 -125 c 0
 16 -125 l 0
 5 -125 0 -121 0 -115 c 0
 0 -110 3 -103 7 -96 c 0
EndSplineSet
EndChar

StartChar: arrowright
Encoding: 174 8594 107
Width: 312
Flags: HW
LayerCount: 2
Fore
SplineSet
7 -96 m 0
 140 135 l 0
 146 145 151 150 156 150 c 0
 161 150 166 144 173 133 c 0
 306 -98 l 0
 310 -104 312 -110 312 -114 c 0
 312 -121 305 -125 291 -125 c 0
 16 -125 l 0
 5 -125 0 -121 0 -115 c 0
 0 -110 3 -103 7 -96 c 0
EndSplineSet
EndChar

StartChar: arrowdown
Encoding: 175 8595 108
Width: 276
Flags: HW
LayerCount: 2
Fore
SplineSet
34 80 m 0
 34 -62 l 0
 34 -82 40 -90 50 -90 c 0
 56 -90 64 -88 72 -82 c 0
 188 -16 l 0
 198 -10 204 -4 204 2 c 0
 204 8 200 14 190 20 c 0
 64 92 l 0
 56 96 50 100 44 100 c 0
 36 100 34 90 34 80 c 0
30 152 m 0
 260 18 l 0
 270 12 276 8 276 2 c 0
 276 -2 270 -8 258 -14 c 0
 28 -148 l 0
 22 -152 16 -154 12 -154 c 0
 4 -154 0 -146 0 -132 c 0
 0 142 l 0
 0 154 4 158 10 158 c 0
 16 158 22 156 30 152 c 0
EndSplineSet
EndChar

StartChar: degree
Encoding: 176 176 109
Width: 276
Flags: HW
LayerCount: 2
Fore
SplineSet
30 152 m 0
 260 18 l 0
 270 12 276 8 276 2 c 0
 276 -2 270 -8 258 -14 c 0
 28 -148 l 0
 22 -152 16 -154 12 -154 c 0
 4 -154 0 -146 0 -132 c 0
 0 142 l 0
 0 154 4 158 10 158 c 0
 16 158 22 156 30 152 c 0
EndSplineSet
EndChar

StartChar: plusminus
Encoding: 177 177 110
Width: 312
Flags: HW
LayerCount: 2
Fore
SplineSet
233 96 m 0
 91 96 l 0
 71 96 63 90 63 80 c 0
 63 74 66 67 71 58 c 0
 138 -58 l 0
 144 -68 150 -73 156 -73 c 0
 162 -73 168 -69 173 -59 c 0
 245 66 l 0
 250 75 253 81 253 86 c 0
 253 95 244 96 233 96 c 0
305 101 m 0
 172 -130 l 0
 166 -140 161 -145 156 -145 c 0
 151 -145 146 -139 139 -128 c 0
 6 103 l 0
 2 109 0 115 0 119 c 0
 0 126 7 130 21 130 c 0
 296 130 l 0
 307 130 312 126 312 120 c 0
 312 115 309 108 305 101 c 0
EndSplineSet
EndChar

StartChar: second
Encoding: 178 8243 111
Width: 312
Flags: HW
LayerCount: 2
Fore
SplineSet
305 101 m 0
 172 -130 l 0
 166 -140 161 -145 156 -145 c 0
 151 -145 146 -139 139 -128 c 0
 6 103 l 0
 2 109 0 115 0 119 c 0
 0 126 7 130 21 130 c 0
 296 130 l 0
 307 130 312 126 312 120 c 0
 312 115 309 108 305 101 c 0
EndSplineSet
EndChar

StartChar: greaterequal
Encoding: 179 8805 112
Width: 276
Flags: HW
LayerCount: 2
Fore
SplineSet
242 -76 m 0
 242 66 l 0
 242 86 236 94 226 94 c 0
 220 94 212 92 204 86 c 0
 88 20 l 0
 78 14 72 8 72 2 c 0
 72 -4 76 -10 86 -16 c 0
 212 -88 l 0
 220 -92 226 -96 232 -96 c 0
 240 -96 242 -86 242 -76 c 0
246 -148 m 0
 16 -14 l 0
 6 -8 0 -4 0 2 c 0
 0 6 6 12 18 18 c 0
 248 152 l 0
 254 156 260 158 264 158 c 0
 272 158 276 150 276 136 c 0
 276 -138 l 0
 276 -150 272 -154 266 -154 c 0
 260 -154 254 -152 246 -148 c 0
EndSplineSet
EndChar

StartChar: multiply
Encoding: 180 215 113
Width: 276
Flags: HW
LayerCount: 2
Fore
SplineSet
246 -148 m 0
 16 -14 l 0
 6 -8 0 -4 0 2 c 0
 0 6 6 12 18 18 c 0
 248 152 l 0
 254 156 260 158 264 158 c 0
 272 158 276 150 276 136 c 0
 276 -138 l 0
 276 -150 272 -154 266 -154 c 0
 260 -154 254 -152 246 -148 c 0
EndSplineSet
EndChar

StartChar: proportional
Encoding: 181 8733 114
Width: 389
Flags: HW
LayerCount: 2
Fore
SplineSet
62 -85 m 0
 244 -27 l 0
 269 -19 280 -12 280 -5 c 0
 280 2 267 9 245 17 c 0
 61 84 l 0
 56 86 52 86 48 86 c 0
 38 86 34 78 34 67 c 0
 34 -64 l 0
 34 -80 39 -88 50 -88 c 0
 53 -88 58 -87 62 -85 c 0
0 -113 m 0
 0 121 l 0
 0 133 2 138 9 138 c 0
 12 138 17 136 24 134 c 0
 362 11 l 0
 381 4 389 -2 389 -7 c 0
 389 -13 378 -19 359 -26 c 0
 27 -133 l 0
 20 -135 14 -136 10 -136 c 0
 1 -136 0 -130 0 -113 c 0
EndSplineSet
EndChar

StartChar: partialdiff
Encoding: 182 8706 115
Width: 389
Flags: HW
LayerCount: 2
Fore
SplineSet
0 -113 m 0
 0 121 l 0
 0 133 2 138 9 138 c 0
 12 138 17 136 24 134 c 0
 362 11 l 0
 381 4 389 -2 389 -7 c 0
 389 -13 378 -19 359 -26 c 0
 27 -133 l 0
 20 -135 14 -136 10 -136 c 0
 1 -136 0 -130 0 -113 c 0
EndSplineSet
EndChar

StartChar: bullet
Encoding: 183 8226 116
Width: 389
Flags: HW
LayerCount: 2
Fore
SplineSet
327 87 m 0
 145 29 l 0
 120 21 109 14 109 7 c 0
 109 0 122 -7 144 -15 c 0
 328 -82 l 0
 333 -84 337 -84 341 -84 c 0
 351 -84 355 -76 355 -65 c 0
 355 66 l 0
 355 82 350 90 339 90 c 0
 336 90 331 89 327 87 c 0
389 115 m 0
 389 -119 l 0
 389 -131 387 -136 380 -136 c 0
 377 -136 372 -134 365 -132 c 0
 27 -9 l 0
 8 -2 0 4 0 9 c 0
 0 15 11 21 30 28 c 0
 362 135 l 0
 369 137 375 138 379 138 c 0
 388 138 389 132 389 115 c 0
EndSplineSet
EndChar

StartChar: divide
Encoding: 184 247 117
Width: 389
Flags: HW
LayerCount: 2
Fore
SplineSet
389 115 m 0
 389 -119 l 0
 389 -131 387 -136 380 -136 c 0
 377 -136 372 -134 365 -132 c 0
 27 -9 l 0
 8 -2 0 4 0 9 c 0
 0 15 11 21 30 28 c 0
 362 135 l 0
 369 137 375 138 379 138 c 0
 388 138 389 132 389 115 c 0
EndSplineSet
EndChar

StartChar: notequal
Encoding: 185 8800 118
Width: 312
Flags: HW
LayerCount: 2
Fore
SplineSet
79 -219 m 0
 221 -219 l 0
 241 -219 249 -213 249 -203 c 0
 249 -197 246 -190 241 -181 c 0
 174 -65 l 0
 168 -55 162 -50 156 -50 c 0
 150 -50 144 -54 139 -64 c 0
 67 -189 l 0
 62 -198 59 -204 59 -209 c 0
 59 -218 68 -219 79 -219 c 0
7 224 m 0
 3 231 0 238 0 243 c 0
 0 249 5 253 16 253 c 0
 291 253 l 0
 305 253 312 249 312 242 c 0
 312 238 310 232 306 226 c 0
 190 25 l 0
 184 13 180 6 180 0 c 0
 180 -8 185 -15 192 -28 c 0
 306 -226 l 0
 310 -232 312 -238 312 -242 c 0
 312 -249 305 -253 291 -253 c 0
 16 -253 l 0
 5 -253 0 -249 0 -243 c 0
 0 -238 3 -231 7 -224 c 0
 124 -21 l 0
 129 -12 132 -6 132 0 c 0
 132 6 129 12 123 22 c 0
 7 224 l 0
79 219 m 0
 68 219 59 218 59 209 c 0
 59 204 62 198 67 189 c 0
 139 64 l 0
 144 54 150 50 156 50 c 0
 162 50 168 55 174 65 c 0
 241 181 l 0
 246 190 249 197 249 203 c 0
 249 213 241 219 221 219 c 0
 79 219 l 0
EndSplineSet
EndChar

StartChar: equivalence
Encoding: 186 8801 119
Width: 312
Flags: HW
LayerCount: 2
Fore
SplineSet
7 224 m 0
 3 231 0 238 0 243 c 0
 0 249 5 253 16 253 c 0
 291 253 l 0
 305 253 312 249 312 242 c 0
 312 238 310 232 306 226 c 0
 190 25 l 0
 184 13 180 6 180 0 c 0
 180 -8 185 -15 192 -28 c 0
 306 -226 l 0
 310 -232 312 -238 312 -242 c 0
 312 -249 305 -253 291 -253 c 0
 16 -253 l 0
 5 -253 0 -249 0 -243 c 0
 0 -238 3 -231 7 -224 c 0
 124 -21 l 0
 129 -12 132 -6 132 0 c 0
 132 6 129 12 123 22 c 0
 7 224 l 0
EndSplineSet
EndChar

StartChar: approxequal
Encoding: 187 8776 120
Width: 312
Flags: HW
LayerCount: 2
Fore
SplineSet
79 -226 m 0
 221 -226 l 0
 241 -226 249 -220 249 -210 c 0
 249 -204 246 -197 241 -188 c 0
 174 -72 l 0
 168 -62 162 -57 156 -57 c 0
 150 -57 144 -61 139 -71 c 0
 67 -196 l 0
 62 -205 59 -211 59 -216 c 0
 59 -225 68 -226 79 -226 c 0
7 19 m 0
 140 250 l 0
 146 260 151 265 156 265 c 0
 161 265 166 259 173 248 c 0
 306 17 l 0
 310 11 312 5 312 1 c 0
 312 -6 305 -10 291 -10 c 0
 206 -10 l 0
 193 -10 187 -15 187 -22 c 0
 187 -25 189 -29 191 -34 c 0
 306 -233 l 0
 310 -239 312 -245 312 -249 c 0
 312 -256 305 -260 291 -260 c 0
 16 -260 l 0
 5 -260 0 -256 0 -250 c 0
 0 -245 3 -238 7 -231 c 0
 120 -35 l 0
 123 -30 124 -26 124 -22 c 0
 124 -15 118 -10 103 -10 c 0
 16 -10 l 0
 5 -10 0 -6 0 0 c 0
 0 5 3 12 7 19 c 0
79 24 m 0
 221 24 l 0
 241 24 249 30 249 40 c 0
 249 46 246 53 241 62 c 0
 174 178 l 0
 168 188 162 193 156 193 c 0
 150 193 144 189 139 179 c 0
 67 54 l 0
 62 45 59 39 59 34 c 0
 59 25 68 24 79 24 c 0
EndSplineSet
EndChar

StartChar: parenright
Encoding: 41 41 121
Width: 980
Flags: HW
HStem: -13 26<0 980> 237 26<0 980> 487 26<0 980> 737 26<0 980> 987 26<0 980>
LayerCount: 2
Fore
SplineSet
0 987 m 0
 0 1013 l 0
 980 1013 l 0
 980 987 l 0
 0 987 l 0
0 737 m 0
 0 763 l 0
 980 763 l 0
 980 737 l 0
 0 737 l 0
0 487 m 0
 0 513 l 0
 980 513 l 0
 980 487 l 0
 0 487 l 0
0 237 m 0
 0 263 l 0
 980 263 l 0
 980 237 l 0
 0 237 l 0
0 -13 m 0
 0 13 l 0
 980 13 l 0
 980 -13 l 0
 0 -13 l 0
EndSplineSet
EndChar

StartChar: asteriskmath
Encoding: 42 8727 122
Width: 178
Flags: HW
LayerCount: 2
Back
SplineSet
227 -768 m 4
 234 -739 267 -655 267 -534 c 4
 267 -424 206 -338 149 -290 c 4
 129 -272 80 -240 56 -240 c 4
 24 -240 24 -281 24 -330 c 4
 0 -330 l 4
 0 19 l 4
 0 55 1 60 13 60 c 4
 30 60 29 34 33 13 c 4
 41 -37 73 -113 134 -181 c 4
 213 -269 300 -374 300 -539 c 4
 300 -623 273 -737 249 -777 c 4
 238 -795 220 -797 227 -768 c 4
EndSplineSet
Fore
SplineSet
178 16 m 0
 177 -37 127 -82 70 -82 c 0
 35 -82 0 -57 0 -17 c 0
 0 36 51 82 108 82 c 0
 115 82 121 81 128 79 c 0
 140 76 154 90 154 98 c 0
 154 575 l 0
 179 575 l 0
 179 522 199 482 236 438 c 0
 295 367 358 295 358 179 c 0
 358 126 346 82 332 39 c 0
 305 47 l 0
 316 86 328 121 328 179 c 0
 328 268 268 355 205 377 c 0
 199 379 194 380 189 380 c 0
 183 380 178 375 178 371 c 0
 178 16 l 0
EndSplineSet
EndChar

StartChar: plus
Encoding: 43 43 123
Width: 202
Flags: HW
LayerCount: 2
Fore
SplineSet
0 -26 m 0
 0 37 62 95 129 95 c 0
 140 95 151 93 161 89 c 0
 166 86 178 91 178 96 c 0
 178 600 l 0
 203 600 l 0
 203 566 223 529 268 493 c 0
 322 450 382 385 382 302 c 0
 382 265 370 232 358 211 c 0
 373 178 382 141 382 98 c 0
 382 37 361 -25 349 -46 c 0
 323 -36 l 0
 334 -10 352 38 352 99 c 0
 352 163 321 222 277 251 c 0
 254 266 233 276 213 276 c 0
 207 276 202 271 202 267 c 0
 202 27 l 0
 202 -37 141 -95 74 -95 c 0
 35 -95 0 -68 0 -26 c 0
203 434 m 0
 203 400 226 367 268 327 c 0
 296 300 321 273 340 243 c 0
 346 260 352 282 352 303 c 0
 352 354 324 404 264 433 c 0
 248 441 233 446 216 446 c 0
 208 446 203 443 203 434 c 0
EndSplineSet
EndChar

StartChar: comma
Encoding: 44 44 124
Width: 202
Flags: HW
LayerCount: 2
Fore
SplineSet
202 195 m 0
 202 27 l 0
 202 -37 141 -95 74 -95 c 0
 35 -95 0 -68 0 -26 c 0
 0 37 62 95 129 95 c 0
 135 95 146 94 152 94 c 0
 165 94 175 97 175 116 c 0
 175 720 l 0
 175 732 178 733 187 733 c 0
 201 733 204 733 204 714 c 0
 204 672 237 640 275 605 c 0
 337 546 377 496 377 427 c 0
 377 411 374 392 368 374 c 0
 361 350 358 340 366 321 c 0
 374 301 377 282 377 261 c 0
 377 244 373 223 367 205 c 0
 358 176 355 171 364 145 c 0
 372 120 377 91 377 57 c 0
 377 10 363 -47 349 -78 c 0
 341 -93 318 -88 325 -67 c 0
 341 -17 347 9 347 58 c 0
 347 133 320 185 270 212 c 0
 254.138 220.565 232 228 218 228 c 0
 205 228 202 216 202 195 c 0
204 548 m 0
 204 506 237 474 275 439 c 0
 319 393 l 0
 332 381 343 381 346 403 c 0
 347 411 347 420 347 429 c 0
 347 473 314 527 267 550 c 0
 252 558 234 564 220 564 c 0
 207 564 204 555 204 548 c 0
204 382 m 0
 204 338 235 305 275 271 c 0
 289 259 304 245 317 230 c 0
 329 215 342 208 346 236 c 0
 347 244 347 253 347 263 c 0
 347 307 314 361 267 384 c 0
 252 392 234 398 220 398 c 0
 207 398 204 389 204 382 c 0
EndSplineSet
EndChar

StartChar: minus
Encoding: 45 8722 125
Width: 202
Flags: HW
LayerCount: 2
Fore
SplineSet
202 187 m 0
 202 27 l 0
 202 -37 141 -95 74 -95 c 0
 35 -95 0 -68 0 -26 c 0
 0 37 62 95 129 95 c 0
 135 95 146 94 152 94 c 0
 165 94 175 97 175 116 c 0
 175 878 l 0
 175 890 178 891 187 891 c 0
 201 891 204 891 204 872 c 0
 204 830 237 798 275 763 c 0
 337 704 377 654 377 585 c 0
 377 569 374 550 368 532 c 0
 361 508 358 498 366 479 c 0
 374 460 377 440 377 419 c 0
 377 403 374 384 368 366 c 0
 361 342 358 332 366 313 c 0
 374 293 377 274 377 253 c 0
 377 236 373 215 367 197 c 0
 358 168 355 163 364 137 c 0
 372 112 377 83 377 49 c 0
 377 2 363 -55 349 -86 c 0
 341 -101 318 -96 325 -75 c 0
 341 -25 347 1 347 50 c 0
 347 125 320 177 270 204 c 0
 254.138 212.565 232 220 218 220 c 0
 205 220 202 208 202 187 c 0
204 706 m 0
 204 664 237 632 275 597 c 0
 319 551 l 0
 332 538 343 539 346 561 c 0
 347 569 347 578 347 587 c 0
 347 631 314 685 267 708 c 0
 252 716 234 722 220 722 c 0
 207 722 204 713 204 706 c 0
204 374 m 0
 204 330 235 297 275 263 c 0
 289 251 304 237 317 222 c 0
 329 207 342 200 346 228 c 0
 347 236 347 245 347 255 c 0
 347 299 314 353 267 376 c 0
 252 384 234 390 220 390 c 0
 207 390 204 381 204 374 c 0
204 540 m 0
 204 498 237 466 275 431 c 0
 319 385 l 0
 332 373 343 373 346 395 c 0
 347 403 347 412 347 421 c 0
 347 465 314 519 267 542 c 0
 252 550 234 556 220 556 c 0
 207 556 204 547 204 540 c 0
EndSplineSet
EndChar

StartChar: period
Encoding: 46 46 126
Width: 202
Flags: HW
LayerCount: 2
Fore
SplineSet
202 184 m 0
 202 27 l 0
 202 -37 141 -95 74 -95 c 0
 35 -95 0 -68 0 -26 c 0
 0 37 62 95 129 95 c 0
 135 95 146 94 152 94 c 0
 165 94 175 97 175 116 c 0
 175 1042 l 0
 175 1054 178 1055 187 1055 c 0
 201 1055 204 1055 204 1036 c 0
 204 994 237 962 275 927 c 0
 337 868 377 818 377 749 c 0
 377 733 374 714 368 696 c 0
 361 672 358 662 366 643 c 0
 373 624 377 604 377 583 c 0
 377 567 374 548 368 530 c 0
 361 506 358 496 366 477 c 0
 374 458 377 438 377 417 c 0
 377 401 374 382 368 364 c 0
 361 340 358 330 366 311 c 0
 374 291 377 272 377 251 c 0
 377 234 373 213 367 195 c 0
 358 166 355 161 364 135 c 0
 372 110 377 81 377 47 c 0
 377 0 363 -57 349 -88 c 0
 341 -103 318 -98 325 -77 c 0
 341 -27 347 -1 347 47 c 0
 347 122 320 174 270 201 c 0
 254.138 209.565 232 217 218 217 c 0
 205 217 202 205 202 184 c 0
204 870 m 0
 204 828 237 796 275 761 c 0
 319 715 l 0
 333 702 343 703 346 725 c 0
 347 733 347 742 347 751 c 0
 347 795 314 849 267 872 c 0
 252 880 234 886 220 886 c 0
 207 886 204 877 204 870 c 0
204 538 m 0
 204 496 237 464 275 429 c 0
 319 383 l 0
 332 371 343 371 346 393 c 0
 347 401 347 410 347 419 c 0
 347 463 314 517 267 540 c 0
 252 548 234 554 220 554 c 0
 207 554 204 545 204 538 c 0
204 372 m 0
 204 328 235 295 275 261 c 0
 289 249 304 235 317 220 c 0
 329 205 342 198 346 226 c 0
 347 234 347 243 347 253 c 0
 347 297 314 351 267 374 c 0
 252 382 234 388 220 388 c 0
 207 388 204 379 204 372 c 0
204 704 m 0
 204 662 237 630 275 595 c 0
 319 549 l 0
 332 536 343 537 346 559 c 0
 347 567 347 576 347 585 c 0
 347 629 314 683 267 706 c 0
 252 714 234 720 220 720 c 0
 207 720 204 711 204 704 c 0
EndSplineSet
EndChar

StartChar: slash
Encoding: 47 47 127
Width: 178
Flags: HW
LayerCount: 2
Fore
SplineSet
178 17 m 0
 178 -36 127 -82 70 -82 c 0
 35 -82 0 -57 0 -17 c 0
 0 36 51 82 108 82 c 0
 115 82 121 81 128 79 c 0
 140 76 154 90 154 98 c 0
 154 241 l 0
 43 201 l 0
 35 224 l 0
 154 267 l 0
 154 575 l 0
 179 575 l 0
 179 549 190 515 205 496 c 0
 238 453 296 404 330 331 c 0
 433 369 l 0
 441 346 l 0
 339 309 l 0
 351 278 358 244 358 204 c 0
 358 133 331 66 318 42 c 0
 293 54 l 0
 311 91 328 146 328 205 c 0
 328 240 321 271 309 298 c 0
 178 250 l 0
 178 17 l 0
178 276 m 0
 298 320 l 0
 283 344 265 363 247 376 c 0
 227 390 211 397 189 397 c 0
 183 397 178 392 178 388 c 0
 178 276 l 0
EndSplineSet
EndChar

StartChar: ellipsis
Encoding: 188 8230 128
Width: 312
Flags: HW
LayerCount: 2
Fore
SplineSet
7 19 m 0
 140 250 l 0
 146 260 151 265 156 265 c 0
 161 265 166 259 173 248 c 0
 306 17 l 0
 310 11 312 5 312 1 c 0
 312 -6 305 -10 291 -10 c 0
 206 -10 l 0
 193 -10 187 -15 187 -22 c 0
 187 -25 189 -29 191 -34 c 0
 306 -233 l 0
 310 -239 312 -245 312 -249 c 0
 312 -256 305 -260 291 -260 c 0
 16 -260 l 0
 5 -260 0 -256 0 -250 c 0
 0 -245 3 -238 7 -231 c 0
 120 -35 l 0
 123 -30 124 -26 124 -22 c 0
 124 -15 118 -10 103 -10 c 0
 16 -10 l 0
 5 -10 0 -6 0 0 c 0
 0 5 3 12 7 19 c 0
EndSplineSet
EndChar

StartChar: uniF8E6
Encoding: 189 63718 129
Width: 312
Flags: HW
LayerCount: 2
Fore
SplineSet
79 226 m 0
 68 226 59 225 59 216 c 0
 59 211 62 205 67 196 c 0
 139 71 l 0
 144 61 150 57 156 57 c 0
 162 57 168 62 174 72 c 0
 241 188 l 0
 246 197 249 204 249 210 c 0
 249 220 241 226 221 226 c 0
 79 226 l 0
7 -19 m 0
 3 -12 0 -5 0 0 c 0
 0 6 5 10 16 10 c 0
 103 10 l 0
 118 10 124 15 124 22 c 0
 124 26 123 30 120 35 c 0
 7 231 l 0
 3 238 0 245 0 250 c 0
 0 256 5 260 16 260 c 0
 291 260 l 0
 305 260 312 256 312 249 c 0
 312 245 310 239 306 233 c 0
 191 34 l 0
 189 29 187 25 187 22 c 0
 187 15 193 10 206 10 c 0
 291 10 l 0
 305 10 312 6 312 -1 c 0
 312 -5 310 -11 306 -17 c 0
 173 -248 l 0
 166 -259 161 -265 156 -265 c 0
 151 -265 146 -260 140 -250 c 0
 7 -19 l 0
79 -24 m 0
 68 -24 59 -25 59 -34 c 0
 59 -39 62 -45 67 -54 c 0
 139 -179 l 0
 144 -189 150 -193 156 -193 c 0
 162 -193 168 -188 174 -178 c 0
 241 -62 l 0
 246 -53 249 -46 249 -40 c 0
 249 -30 241 -24 221 -24 c 0
 79 -24 l 0
EndSplineSet
EndChar

StartChar: uniF8E7
Encoding: 190 63719 130
Width: 312
Flags: HW
LayerCount: 2
Fore
SplineSet
7 -19 m 0
 3 -12 0 -5 0 0 c 0
 0 6 5 10 16 10 c 0
 103 10 l 0
 118 10 124 15 124 22 c 0
 124 26 123 30 120 35 c 0
 7 231 l 0
 3 238 0 245 0 250 c 0
 0 256 5 260 16 260 c 0
 291 260 l 0
 305 260 312 256 312 249 c 0
 312 245 310 239 306 233 c 0
 191 34 l 0
 189 29 187 25 187 22 c 0
 187 15 193 10 206 10 c 0
 291 10 l 0
 305 10 312 6 312 -1 c 0
 312 -5 310 -11 306 -17 c 0
 173 -248 l 0
 166 -259 161 -265 156 -265 c 0
 151 -265 146 -260 140 -250 c 0
 7 -19 l 0
EndSplineSet
EndChar

StartChar: carriagereturn
Encoding: 191 8629 131
Width: 408
Flags: HW
LayerCount: 2
Fore
SplineSet
83 -219 m 0
 319 -219 l 0
 331 -219 337 -216 337 -211 c 0
 337 -207 334 -201 328 -193 c 0
 218 -51 l 0
 212 -44 206 -40 200 -40 c 0
 194 -40 187 -44 180 -53 c 0
 74 -190 l 0
 68 -198 65 -204 65 -209 c 0
 65 -216 72 -219 83 -219 c 0
2 227 m 0
 -3 235 -7 241 -7 245 c 0
 -7 250 -3 253 8 253 c 0
 394 253 l 0
 404 253 408 249 408 245 c 0
 408 242 407 239 405 236 c 0
 240 24 l 0
 232 14 228 7 228 0 c 0
 228 -7 232 -13 239 -22 c 0
 405 -236 l 0
 407 -239 408 -242 408 -245 c 0
 408 -249 404 -253 394 -253 c 0
 8 -253 l 0
 -3 -253 -7 -250 -7 -245 c 0
 -7 -241 -3 -235 2 -227 c 0
 162 -21 l 0
 168 -13 172 -7 172 -1 c 0
 172 6 168 14 158 26 c 0
 2 227 l 0
83 219 m 0
 72 219 65 216 65 209 c 0
 65 204 68 198 74 190 c 0
 180 53 l 0
 187 44 194 40 200 40 c 0
 206 40 212 44 218 51 c 0
 328 193 l 0
 334 201 337 207 337 211 c 0
 337 216 331 219 319 219 c 0
 83 219 l 0
EndSplineSet
EndChar

StartChar: aleph
Encoding: 192 8501 132
Width: 408
Flags: HW
LayerCount: 2
Fore
SplineSet
2 227 m 0
 -3 235 -7 241 -7 245 c 0
 -7 250 -3 253 8 253 c 0
 394 253 l 0
 404 253 408 249 408 245 c 0
 408 242 407 239 405 236 c 0
 240 24 l 0
 232 14 228 7 228 0 c 0
 228 -7 232 -13 239 -22 c 0
 405 -236 l 0
 407 -239 408 -242 408 -245 c 0
 408 -249 404 -253 394 -253 c 0
 8 -253 l 0
 -3 -253 -7 -250 -7 -245 c 0
 -7 -241 -3 -235 2 -227 c 0
 162 -21 l 0
 168 -13 172 -7 172 -1 c 0
 172 6 168 14 158 26 c 0
 2 227 l 0
EndSplineSet
EndChar

StartChar: Ifraktur
Encoding: 193 8465 133
Width: 408
Flags: HW
LayerCount: 2
Fore
SplineSet
83 -226 m 0
 319 -226 l 0
 331 -226 337 -223 337 -218 c 0
 337 -214 334 -208 328 -200 c 0
 218 -58 l 0
 212 -51 206 -47 200 -47 c 0
 194 -47 187 -51 180 -60 c 0
 74 -197 l 0
 68 -205 65 -211 65 -216 c 0
 65 -223 72 -226 83 -226 c 0
2 16 m 0
 181 246 l 0
 189 256 194 260 200 260 c 0
 206 260 212 255 219 246 c 0
 405 7 l 0
 407 4 408 1 408 -2 c 0
 408 -6 404 -10 394 -10 c 0
 266 -10 l 0
 249 -10 239 -13 239 -22 c 0
 239 -27 242 -33 249 -42 c 0
 405 -243 l 0
 407 -246 408 -249 408 -252 c 0
 408 -256 404 -260 394 -260 c 0
 8 -260 l 0
 -3 -260 -7 -257 -7 -252 c 0
 -7 -248 -3 -242 2 -234 c 0
 152 -42 l 0
 158 -34 160 -28 160 -23 c 0
 160 -14 149 -10 129 -10 c 0
 8 -10 l 0
 -3 -10 -7 -7 -7 -2 c 0
 -7 2 -3 8 2 16 c 0
83 24 m 0
 319 24 l 0
 331 24 337 27 337 32 c 0
 337 36 334 42 328 50 c 0
 218 192 l 0
 212 199 206 203 200 203 c 0
 194 203 187 199 180 190 c 0
 74 53 l 0
 68 45 65 39 65 34 c 0
 65 27 72 24 83 24 c 0
EndSplineSet
EndChar

StartChar: Rfraktur
Encoding: 194 8476 134
Width: 408
Flags: HW
LayerCount: 2
Fore
SplineSet
2 16 m 0
 181 246 l 0
 189 256 194 260 200 260 c 0
 206 260 212 255 219 246 c 0
 405 7 l 0
 407 4 408 1 408 -2 c 0
 408 -6 404 -10 394 -10 c 0
 266 -10 l 0
 249 -10 239 -13 239 -22 c 0
 239 -27 242 -33 249 -42 c 0
 405 -243 l 0
 407 -246 408 -249 408 -252 c 0
 408 -256 404 -260 394 -260 c 0
 8 -260 l 0
 -3 -260 -7 -257 -7 -252 c 0
 -7 -248 -3 -242 2 -234 c 0
 152 -42 l 0
 158 -34 160 -28 160 -23 c 0
 160 -14 149 -10 129 -10 c 0
 8 -10 l 0
 -3 -10 -7 -7 -7 -2 c 0
 -7 2 -3 8 2 16 c 0
EndSplineSet
EndChar

StartChar: weierstrass
Encoding: 195 8472 135
Width: 408
Flags: HW
LayerCount: 2
Fore
SplineSet
83 226 m 0
 319 226 l 0
 331 226 337 223 337 218 c 0
 337 214 334 208 328 200 c 0
 218 58 l 0
 212 51 206 47 200 47 c 0
 194 47 187 51 180 60 c 0
 74 197 l 0
 68 205 65 211 65 216 c 0
 65 223 72 226 83 226 c 0
2 -16 m 0
 181 -246 l 0
 189 -256 194 -260 200 -260 c 0
 206 -260 212 -255 219 -246 c 0
 405 -7 l 0
 407 -4 408 -1 408 2 c 0
 408 6 404 10 394 10 c 0
 266 10 l 0
 249 10 239 13 239 22 c 0
 239 27 242 33 249 42 c 0
 405 243 l 0
 407 246 408 249 408 252 c 0
 408 256 404 260 394 260 c 0
 8 260 l 0
 -3 260 -7 257 -7 252 c 0
 -7 248 -3 242 2 234 c 0
 152 42 l 0
 158 34 160 28 160 23 c 0
 160 14 149 10 129 10 c 0
 8 10 l 0
 -3 10 -7 7 -7 2 c 0
 -7 -2 -3 -8 2 -16 c 0
83 -24 m 0
 319 -24 l 0
 331 -24 337 -27 337 -32 c 0
 337 -36 334 -42 328 -50 c 0
 218 -192 l 0
 212 -199 206 -203 200 -203 c 0
 194 -203 187 -199 180 -190 c 0
 74 -53 l 0
 68 -45 65 -39 65 -34 c 0
 65 -27 72 -24 83 -24 c 0
EndSplineSet
EndChar

StartChar: circlemultiply
Encoding: 196 8855 136
Width: 408
Flags: HW
LayerCount: 2
Fore
SplineSet
2 -16 m 0
 -3 -8 -7 -2 -7 2 c 0
 -7 7 -3 10 8 10 c 0
 129 10 l 0
 149 10 160 14 160 23 c 0
 160 28 158 34 152 42 c 0
 2 234 l 0
 -3 242 -7 248 -7 252 c 0
 -7 257 -3 260 8 260 c 0
 394 260 l 0
 404 260 408 256 408 252 c 0
 408 249 407 246 405 243 c 0
 249 42 l 0
 242 33 239 27 239 22 c 0
 239 13 249 10 266 10 c 0
 394 10 l 0
 404 10 408 6 408 2 c 0
 408 -1 407 -4 405 -7 c 0
 219 -246 l 0
 212 -255 206 -260 200 -260 c 0
 194 -260 189 -256 181 -246 c 0
 2 -16 l 0
EndSplineSet
EndChar

StartChar: circleplus
Encoding: 197 8853 137
Width: 240
Flags: HW
LayerCount: 2
Fore
SplineSet
155 -101 m 0
 182 -101 l 0
 200 -101 206 -98 206 -75 c 0
 206 76 l 0
 206 95 202 101 181 101 c 0
 155 101 l 0
 79 101 34 56 34 0 c 0
 34 -53 76 -101 155 -101 c 0
155 -135 m 0
 60 -135 0 -74 0 0 c 0
 0 78 65 135 155 135 c 0
 223 135 l 0
 237 135 240 132 240 119 c 0
 240 -115 l 0
 240 -131 233 -135 218 -135 c 0
 155 -135 l 0
EndSplineSet
EndChar

StartChar: emptyset
Encoding: 198 8709 138
Width: 240
Flags: HW
LayerCount: 2
Fore
SplineSet
155 -135 m 0
 60 -135 0 -74 0 0 c 0
 0 78 65 135 155 135 c 0
 223 135 l 0
 237 135 240 132 240 119 c 0
 240 -115 l 0
 240 -131 233 -135 218 -135 c 0
 155 -135 l 0
EndSplineSet
EndChar

StartChar: intersection
Encoding: 199 8745 139
Width: 240
Flags: HW
LayerCount: 2
Fore
SplineSet
85 -101 m 0
 164 -101 206 -53 206 0 c 0
 206 56 161 101 85 101 c 0
 59 101 l 0
 38 101 34 95 34 76 c 0
 34 -75 l 0
 34 -98 40 -101 58 -101 c 0
 85 -101 l 0
85 -135 m 0
 22 -135 l 0
 7 -135 0 -131 0 -115 c 0
 0 119 l 0
 0 132 3 135 17 135 c 0
 85 135 l 0
 175 135 240 78 240 0 c 0
 240 -74 180 -135 85 -135 c 0
EndSplineSet
EndChar

StartChar: union
Encoding: 200 8746 140
Width: 240
Flags: HW
LayerCount: 2
Fore
SplineSet
85 -135 m 0
 22 -135 l 0
 7 -135 0 -131 0 -115 c 0
 0 119 l 0
 0 132 3 135 17 135 c 0
 85 135 l 0
 175 135 240 78 240 0 c 0
 240 -74 180 -135 85 -135 c 0
EndSplineSet
EndChar

StartChar: propersuperset
Encoding: 201 8835 141
Width: 270
Flags: HW
LayerCount: 2
Fore
SplineSet
34 -35 m 0
 34 -62 l 0
 34 -80 37 -86 60 -86 c 0
 211 -86 l 0
 230 -86 236 -82 236 -61 c 0
 236 -35 l 0
 236 41 191 86 135 86 c 0
 82 86 34 44 34 -35 c 0
0 -35 m 0
 0 60 61 120 135 120 c 0
 213 120 270 55 270 -35 c 0
 270 -103 l 0
 270 -117 267 -120 254 -120 c 0
 20 -120 l 0
 4 -120 0 -113 0 -98 c 0
 0 -35 l 0
EndSplineSet
EndChar

StartChar: reflexsuperset
Encoding: 202 8839 142
Width: 270
Flags: HW
LayerCount: 2
Fore
SplineSet
0 -35 m 0
 0 60 61 120 135 120 c 0
 213 120 270 55 270 -35 c 0
 270 -103 l 0
 270 -117 267 -120 254 -120 c 0
 20 -120 l 0
 4 -120 0 -113 0 -98 c 0
 0 -35 l 0
EndSplineSet
EndChar

StartChar: notsubset
Encoding: 203 8836 143
Width: 270
Flags: HW
LayerCount: 2
Fore
SplineSet
236 35 m 0
 236 62 l 0
 236 80 233 86 210 86 c 0
 59 86 l 0
 40 86 34 82 34 61 c 0
 34 35 l 0
 34 -41 79 -86 135 -86 c 0
 188 -86 236 -44 236 35 c 0
270 35 m 0
 270 -60 209 -120 135 -120 c 0
 57 -120 0 -55 0 35 c 0
 0 103 l 0
 0 117 3 120 16 120 c 0
 250 120 l 0
 266 120 270 113 270 98 c 0
 270 35 l 0
EndSplineSet
EndChar

StartChar: propersubset
Encoding: 204 8834 144
Width: 270
Flags: HW
LayerCount: 2
Fore
SplineSet
270 35 m 0
 270 -60 209 -120 135 -120 c 0
 57 -120 0 -55 0 35 c 0
 0 103 l 0
 0 117 3 120 16 120 c 0
 250 120 l 0
 266 120 270 113 270 98 c 0
 270 35 l 0
EndSplineSet
EndChar

StartChar: reflexsubset
Encoding: 205 8838 145
Width: 396
Flags: HW
LayerCount: 2
Fore
SplineSet
34 25 m 0
 34 -44 102 -106 198 -106 c 0
 290 -106 362 -47 362 25 c 0
 362 76 l 0
 362 96 359 101 333 101 c 0
 61 101 l 0
 38 101 34 98 34 76 c 0
 34 25 l 0
396 25 m 0
 396 -72 302 -140 198 -140 c 0
 90 -140 0 -69 0 25 c 0
 0 111 l 0
 0 134 0 135 23 135 c 0
 365 135 l 0
 393 135 396 134 396 104 c 0
 396 25 l 0
EndSplineSet
EndChar

StartChar: element
Encoding: 206 8712 146
Width: 396
Flags: HW
LayerCount: 2
Fore
SplineSet
396 25 m 0
 396 -72 302 -140 198 -140 c 0
 90 -140 0 -69 0 25 c 0
 0 111 l 0
 0 134 0 135 23 135 c 0
 365 135 l 0
 393 135 396 134 396 104 c 0
 396 25 l 0
EndSplineSet
EndChar

StartChar: colon
Encoding: 58 58 147
Width: 202
Flags: HW
LayerCount: 2
Fore
SplineSet
0 -26 m 0
 0 37 62 95 129 95 c 0
 135 95 146 94 152 94 c 0
 165 94 175 97 175 116 c 0
 175 295 l 0
 175 314 171 319 152 314 c 0
 81 295 l 0
 68 292 66 293 63 305 c 0
 59 318 59 320 71 323 c 0
 146 343 l 0
 165 348 175 352 175 369 c 0
 175 714 l 0
 175 725 178 727 187 727 c 0
 201 727 202 724 204 693 c 0
 211 597 321 556 362 426 c 0
 368 406 375 404 392 409 c 0
 452 425 l 0
 464 428 465 426 468 415 c 0
 472 401 472 400 460 397 c 0
 397 380 l 0
 378 374 375 367 376 351 c 0
 377 342 377 332 377 321 c 0
 377 274 358 207 344 176 c 0
 336 161 312 166 320 187 c 0
 338 237 347 273 347 321 c 0
 347 327 347 333 346 339 c 0
 345 363 341 365 316 358 c 0
 228 334 l 0
 209 329 202 328 202 308 c 0
 202 27 l 0
 202 -37 141 -95 74 -95 c 0
 35 -95 0 -68 0 -26 c 0
223 363 m 0
 305 385 l 0
 331 392 336 400 328 419 c 0
 313 454 290 480 266 499 c 0
 252 510 232 519 218 519 c 0
 205 519 202 509 202 488 c 0
 202 382 l 0
 202 365 206 359 223 363 c 0
EndSplineSet
EndChar

StartChar: semicolon
Encoding: 59 59 148
Width: 202
Flags: HW
LayerCount: 2
Fore
SplineSet
0 -26 m 0
 0 37 62 95 129 95 c 0
 135 95 146 94 152 94 c 0
 165 94 175 97 175 116 c 0
 175 420 l 0
 175 439 171 443 152 438 c 0
 81 419 l 0
 68 416 66 418 63 430 c 0
 59 443 59 445 71 448 c 0
 146 468 l 0
 165 473 175 477 175 494 c 0
 175 839 l 0
 175 850 178 852 187 852 c 0
 201 852 202 849 204 818 c 0
 211 722 321 681 362 551 c 0
 368 531 375 529 392 534 c 0
 452 550 l 0
 464 553 465 551 468 540 c 0
 472 526 472 524 460 521 c 0
 397 504 l 0
 378 498 375 492 376 476 c 0
 377 467 377 457 377 446 c 0
 377 399 358 332 344 301 c 0
 336 286 312 291 320 312 c 0
 338 362 347 398 347 446 c 0
 347 452 347 458 346 464 c 0
 345 488 341 489 316 482 c 0
 228 458 l 0
 209 453 202 453 202 433 c 0
 202 27 l 0
 202 -37 141 -95 74 -95 c 0
 35 -95 0 -68 0 -26 c 0
223 488 m 0
 305 510 l 0
 331 517 336 525 328 544 c 0
 313 579 290 605 266 624 c 0
 252 635 232 644 218 644 c 0
 205 644 202 634 202 613 c 0
 202 507 l 0
 202 490 206 484 223 488 c 0
EndSplineSet
EndChar

StartChar: less
Encoding: 60 60 149
Width: 202
Flags: HW
LayerCount: 2
Fore
SplineSet
202 229 m 0
 202 27 l 0
 202 -37 141 -95 74 -95 c 0
 35 -95 0 -68 0 -26 c 0
 0 37 62 95 129 95 c 0
 135 95 146 94 152 94 c 0
 165 94 175 97 175 116 c 0
 175 280 l 0
 175 298 170 300 156 295 c 0
 81 268 l 0
 69 263 66 265 62 276 c 0
 58 289 58 291 69 295 c 0
 153 326 l 0
 167 331 175 337 175 357 c 0
 175 589 l 0
 175 601 178 602 187 602 c 0
 201 602 204 602 204 583 c 0
 204 541 237 509 275 474 c 0
 297 453 316 433 332 414 c 0
 343 399 350 397 369 404 c 0
 440 430 l 0
 451 434 453 432 457 421 c 0
 462 408 462 406 450 402 c 0
 381 377 l 0
 368 372 361 368 367 353 c 0
 373 335 377 316 377 296 c 0
 377 279 373 258 367 240 c 0
 358 211 355 206 364 180 c 0
 372 155 377 126 377 92 c 0
 377 45 363 -12 349 -43 c 0
 341 -58 318 -53 325 -32 c 0
 341 18 346 44 347 92 c 0
 347 167 320 219 270 246 c 0
 254.138 254.565 232 262 218 262 c 0
 205 262 202.104 250 202 229 c 0
298 398 m 0
 288 406 278 414 267 419 c 0
 252 427 234 433 220 433 c 0
 207 433 204 424 204 417 c 0
 204 400 209 385 217 370 c 0
 225 356 232 354 248 360 c 0
 294 377 l 0
 308 382 310 387 298 398 c 0
307 350 m 0
 268 336 l 0
 254 331 252 326 263 316 c 0
 275 306 l 0
 289 294 304 280 317 265 c 0
 329 250 342 243 346 271 c 0
 347 279 347 288 347 298 c 0
 347 312 344 327 338 342 c 0
 331 357 327 357 307 350 c 0
EndSplineSet
EndChar

StartChar: equal
Encoding: 61 61 150
Width: 202
Flags: HW
LayerCount: 2
Fore
SplineSet
270 371 m 0
 254 380 232 387 218 387 c 0
 205 387 202 375 202 354 c 0
 202 261 l 0
 202 241 207 240 222 244 c 0
 316 269 l 0
 335 274 340 280 332 298 c 0
 320 323 303 353 270 371 c 0
204 542 m 0
 204 498 235 465 275 431 c 0
 289 419 304 405 317 390 c 0
 329 375 342 368 346 396 c 0
 347 404 347 413 347 423 c 0
 347 467 314 521 267 544 c 0
 252 552 234 558 220 558 c 0
 207 558 204 549 204 542 c 0
0 -26 m 0
 0 37 62 95 129 95 c 0
 135 95 146 94 152 94 c 0
 165 94 175 97 175 116 c 0
 175 180 l 0
 175 199 168 199 153 195 c 0
 82 176 l 0
 69 173 67 175 64 186 c 0
 60 200 60 201 72 204 c 0
 151 225 l 0
 167 230 175 235 175 255 c 0
 175 714 l 0
 175 726 178 727 187 727 c 0
 201 727 204 727 204 708 c 0
 204 666 237 634 275 599 c 0
 337 540 377 490 377 421 c 0
 377 404 373 383 367 365 c 0
 358 336 356 331 364 305 c 0
 369 289 373 285 389 289 c 0
 454 306 l 0
 465 309 466 307 469 296 c 0
 473 282 473 281 462 278 c 0
 396 260 l 0
 382 256 376 253 377 235 c 0
 377 217 l 0
 377 170 363 113 349 82 c 0
 341 67 318 72 325 93 c 0
 341 143 347 169 347 217 c 0
 347 243 341 246 320 240 c 0
 223 214 l 0
 207 210 202 205 202 188 c 0
 202 27 l 0
 202 -37 141 -95 74 -95 c 0
 35 -95 0 -68 0 -26 c 0
EndSplineSet
EndChar

StartChar: greater
Encoding: 62 62 151
Width: 202
Flags: HW
LayerCount: 2
Fore
SplineSet
270 497 m 0
 254 506 232 513 218 513 c 0
 205 513 202 501 202 480 c 0
 202 387 l 0
 202 367 207 366 222 370 c 0
 316 395 l 0
 335 400 340 406 332 424 c 0
 320 449 303 479 270 497 c 0
204 668 m 0
 204 624 235 591 275 557 c 0
 289 545 304 531 317 516 c 0
 329 501 342 494 346 522 c 0
 347 530 347 539 347 549 c 0
 347 593 314 647 267 670 c 0
 252 678 234 684 220 684 c 0
 207 684 204 675 204 668 c 0
0 -26 m 0
 0 37 62 95 129 95 c 0
 135 95 146 94 152 94 c 0
 165 94 175 97 175 116 c 0
 175 306 l 0
 175 325 168 325 153 321 c 0
 82 302 l 0
 69 299 67 301 64 312 c 0
 60 326 60 327 72 330 c 0
 151 351 l 0
 167 356 175 361 175 381 c 0
 175 840 l 0
 175 852 178 853 187 853 c 0
 201 853 204 853 204 834 c 0
 204 792 237 760 275 725 c 0
 337 666 377 616 377 547 c 0
 377 530 373 509 367 491 c 0
 358 462 356 457 364 431 c 0
 369 415 373 411 389 415 c 0
 454 432 l 0
 465 435 466 433 469 422 c 0
 473 408 473 407 462 404 c 0
 396 386 l 0
 382 382 376 379 377 361 c 0
 377 343 l 0
 377 296 363 239 349 208 c 0
 341 193 318 198 325 219 c 0
 341 269 347 295 347 343 c 0
 347 369 341 372 320 366 c 0
 223 340 l 0
 207 336 202 331 202 314 c 0
 202 27 l 0
 202 -37 141 -95 74 -95 c 0
 35 -95 0 -68 0 -26 c 0
EndSplineSet
EndChar

StartChar: question
Encoding: 63 63 152
Width: 202
Flags: HW
LayerCount: 2
Fore
SplineSet
175 411 m 0
 175 429 170 431 156 426 c 0
 81 399 l 0
 69 394 66 396 62 407 c 0
 58 420 58 422 69 426 c 0
 153 457 l 0
 167 462 175 468 175 488 c 0
 175 720 l 0
 175 732 178 733 187 733 c 0
 201 733 204 733 204 714 c 0
 204 672 236 640 275 605 c 0
 297 584 316 564 332 545 c 0
 343 530 350 528 369 535 c 0
 440 561 l 0
 451 565 453 563 457 552 c 0
 462 539 462 537 450 533 c 0
 381 508 l 0
 368 503 361 499 367 484 c 0
 373 466 377 447 377 427 c 0
 376 411 374 392 368 374 c 0
 361 350 358 340 366 321 c 0
 374 301 377 282 377 261 c 0
 377 244 373 223 367 205 c 0
 358 176 355 171 364 145 c 0
 372 120 377 91 377 57 c 0
 377 10 363 -47 349 -78 c 0
 341 -93 318 -88 325 -67 c 0
 341 -17 347 9 347 58 c 0
 347 133 320 185 270 212 c 0
 254.138 220.565 232 228 218 228 c 0
 205 228 202 216 202 195 c 0
 202 27 l 0
 202 -37 141 -95 74 -95 c 0
 35 -95 0 -68 0 -26 c 0
 0 37 62 95 129 95 c 0
 135 95 146 94 152 94 c 0
 165 94 175 97 175 116 c 0
 175 411 l 0
267 550 m 0
 251 558 234 564 220 564 c 0
 207 564 203 555 204 548 c 0
 204 531 209 516 217 501 c 0
 225 487 232 485 248 491 c 0
 294 508 l 0
 308 513 310 518 298 529 c 0
 288 537 278 545 267 550 c 0
275 439 m 0
 319 393 l 0
 332 381 343 381 346 403 c 0
 347 411 346 420 347 429 c 0
 347 443 344 458 338 473 c 0
 331 488 327 488 307 481 c 0
 268 467 l 0
 254 462 253.579 457.517 265 448 c 0
 275 439 l 0
204 382 m 0
 204 338 235 305 275 271 c 0
 289 259 304 245 317 230 c 0
 329 215 342 208 346 236 c 0
 347 244 347 253 347 263 c 0
 347 307 314 361 267 384 c 0
 252 392 234 398 220 398 c 0
 207 398 204 389 204 382 c 0
EndSplineSet
EndChar

StartChar: tau
Encoding: 116 964 153
Width: 304
Flags: HW
LayerCount: 2
Fore
SplineSet
97 76 m 0
 225 -52 l 0
 231 -58 247 -59 252 -48 c 0
 272 -7 266 44 231 79 c 0
 196 114 142 121 99 98 c 0
 93 95 93 80 97 76 c 0
269 -96 m 0
 411 -238 l 0
 390 -259 l 0
 248 -117 l 0
 186 -167 98 -160 45 -107 c 0
 -12 -50 -12 39 35 96 c 0
 -107 238 l 0
 -86 259 l 0
 56 117 l 0
 118 167 206 160 259 107 c 0
 316 50 316 -39 269 -96 c 0
EndSplineSet
EndChar

StartChar: upsilon
Encoding: 117 965 154
Width: 304
Flags: HW
LayerCount: 2
Fore
SplineSet
269 -96 m 0
 411 -238 l 0
 390 -259 l 0
 248 -117 l 0
 186 -167 98 -160 45 -107 c 0
 -12 -50 -12 39 35 96 c 0
 -107 238 l 0
 -86 259 l 0
 56 117 l 0
 118 167 206 160 259 107 c 0
 316 50 316 -39 269 -96 c 0
52 49 m 0
 32 8 38 -44 73 -79 c 0
 106 -112 157 -121 199 -101 c 0
 207 -97 211 -80 204 -73 c 0
 76 54 l 0
 70 60 56 57 52 49 c 0
EndSplineSet
EndChar

StartChar: rho
Encoding: 114 961 155
Width: 304
Flags: HW
LayerCount: 2
Fore
SplineSet
56 -117 m 0
 -86 -259 l 0
 -107 -238 l 0
 35 -96 l 0
 -15 -34 -8 54 45 107 c 0
 102 164 191 164 248 117 c 0
 390 259 l 0
 411 238 l 0
 269 96 l 0
 319 34 312 -54 259 -107 c 0
 202 -164 113 -164 56 -117 c 0
EndSplineSet
EndChar

StartChar: sigma
Encoding: 115 963 156
Width: 304
Flags: HW
LayerCount: 2
Fore
SplineSet
97 76 m 0
 225 -52 l 0
 231 -58 247 -59 252 -48 c 0
 272 -7 266 44 231 79 c 0
 196 114 142 121 99 98 c 0
 93 95 93 80 97 76 c 0
269 -96 m 0
 411 -238 l 0
 390 -259 l 0
 248 -117 l 0
 186 -167 98 -160 45 -107 c 0
 -12 -50 -12 39 35 96 c 0
 -107 238 l 0
 -86 259 l 0
 56 117 l 0
 118 167 206 160 259 107 c 0
 316 50 316 -39 269 -96 c 0
52 49 m 0
 32 8 38 -44 73 -79 c 0
 106 -112 157 -121 199 -101 c 0
 207 -97 211 -80 204 -73 c 0
 76 54 l 0
 70 60 56 57 52 49 c 0
EndSplineSet
EndChar

StartChar: pi
Encoding: 112 960 157
Width: 304
Flags: HW
LayerCount: 2
Fore
SplineSet
228 55 m 0
 100 -73 l 0
 94 -79 93 -95 104 -100 c 0
 145 -120 196 -114 231 -79 c 0
 266 -44 273 10 250 53 c 0
 247 59 232 59 228 55 c 0
56 -117 m 0
 -86 -259 l 0
 -107 -238 l 0
 35 -96 l 0
 -15 -34 -8 54 45 107 c 0
 102 164 191 164 248 117 c 0
 390 259 l 0
 411 238 l 0
 269 96 l 0
 319 34 312 -54 259 -107 c 0
 202 -164 113 -164 56 -117 c 0
EndSplineSet
EndChar

StartChar: theta
Encoding: 113 952 158
Width: 304
Flags: HW
LayerCount: 2
Fore
SplineSet
56 -117 m 0
 -86 -259 l 0
 -107 -238 l 0
 35 -96 l 0
 -15 -34 -8 54 45 107 c 0
 102 164 191 164 248 117 c 0
 390 259 l 0
 411 238 l 0
 269 96 l 0
 319 34 312 -54 259 -107 c 0
 202 -164 113 -164 56 -117 c 0
201 100 m 0
 160 120 108 114 73 79 c 0
 40 46 31 -5 51 -47 c 0
 55 -55 72 -59 79 -52 c 0
 206 76 l 0
 212 82 209 96 201 100 c 0
EndSplineSet
EndChar

StartChar: Omicron
Encoding: 79 927 159
Width: 510
Flags: W
HStem: -95 190<59.623 143.943> 30 190<367.623 451.943>
VStem: 172 30<93.5603 400.191 476.404 533.258> 480 30<218.56 434.245 511.515 568.771>
LayerCount: 2
Fore
SplineSet
0 -26 m 0xb0
 0 37 62 95 129 95 c 0xb0
 140 95 145 93 151 93 c 0
 162 93 172 98 172 113 c 0
 172 573 l 0
 172 598 173 600 189 602 c 0
 489 644 l 0
 506 647 510 644 510 615 c 0
 510 152 l 0
 510 88 449 30 382 30 c 0
 343 30 308 57 308 99 c 0
 308 162 370 220 437 220 c 0x70
 448 220 453 218 459 218 c 0
 470 218 480 223 480 238 c 0
 480 402 l 0
 480 431 470 439 440 435 c 0
 239 406 l 0
 206 402 202 390 202 365 c 0
 202 27 l 0
 202 -37 141 -95 74 -95 c 0
 35 -95 0 -68 0 -26 c 0xb0
202 509 m 0
 202 500 l 0
 202 484 208 473 232 476 c 0
 441 505 l 0
 472 510 480 517 480 542 c 0
 480 547 l 0
 480 568 470 571 450 568 c 0
 229 537 l 0
 208 534 202 520 202 509 c 0
EndSplineSet
EndChar

StartChar: notelement
Encoding: 207 8713 160
Width: 396
Flags: HW
LayerCount: 2
Fore
SplineSet
34 -25 m 0
 34 -76 l 0
 34 -98 38 -101 61 -101 c 0
 333 -101 l 0
 359 -101 362 -96 362 -76 c 0
 362 -25 l 0
 362 47 290 106 198 106 c 0
 102 106 34 44 34 -25 c 0
396 -25 m 0
 396 -104 l 0
 396 -134 393 -135 365 -135 c 0
 23 -135 l 0
 0 -135 0 -134 0 -111 c 0
 0 -25 l 0
 0 69 90 140 198 140 c 0
 302 140 396 72 396 -25 c 0
EndSplineSet
EndChar

StartChar: angle
Encoding: 208 8736 161
Width: 396
Flags: HW
LayerCount: 2
Fore
SplineSet
396 -25 m 0
 396 -104 l 0
 396 -134 393 -135 365 -135 c 0
 23 -135 l 0
 0 -135 0 -134 0 -111 c 0
 0 -25 l 0
 0 69 90 140 198 140 c 0
 302 140 396 72 396 -25 c 0
EndSplineSet
EndChar

StartChar: gradient
Encoding: 209 8711 162
Width: 318
Flags: HW
LayerCount: 2
Fore
SplineSet
418 235 m 0
 422 235 435 219 435 214 c 0
 435 211 433 209 428 204 c 0
 322 116 l 0
 314 109 311 103 311 96 c 0
 311 92 312 88 314 83 c 0
 317 73 318 64 318 54 c 0
 318 -4 273 -68 234 -98 c 0
 203 -121 149 -143 100 -143 c 0
 84 -143 69 -141 56 -136 c 0
 49 -133 43 -132 38 -132 c 0
 29 -132 23 -135 15 -142 c 0
 -84 -225 l 0
 -90 -230 -93 -233 -97 -233 c 0
 -102 -233 -114 -217 -114 -213 c 0
 -114 -209 -110 -205 -103 -199 c 0
 -6 -117 l 0
 2 -111 6 -106 6 -97 c 0
 6 -86 0 -67 0 -54 c 0
 0 4 47 69 86 99 c 0
 117 122 170 143 218 143 c 0
 237 143 255 140 271 132 c 0
 275 130 279 129 282 129 c 0
 287 129 291 132 296 136 c 0
 407 229 l 0
 412 233 415 235 418 235 c 0
EndSplineSet
EndChar

StartChar: registered
Encoding: 210 174 163
Width: 318
Flags: HW
LayerCount: 2
Fore
SplineSet
-100 201 m 0
 -100 207 -86 222 -82 222 c 0
 -79 222 -76 220 -71 216 c 0
 58 108 l 0
 64 102 70 99 76 99 c 0
 83 99 90 102 100 109 c 0
 132 127 177 143 218 143 c 0
 251 143 282 133 301 107 c 0
 313 91 318 73 318 54 c 0
 318 21 303 -15 283 -44 c 0
 277 -54 274 -60 274 -65 c 0
 274 -72 278 -77 286 -84 c 0
 409 -187 l 0
 416 -193 419 -196 419 -199 c 0
 419 -205 406 -220 402 -220 c 0
 398 -220 394 -216 387 -210 c 0
 262 -105 l 0
 255 -99 250 -96 244 -96 c 0
 239 -96 233 -99 225 -104 c 0
 193 -125 144 -143 100 -143 c 0
 67 -143 36 -133 17 -107 c 0
 5 -91 0 -73 0 -54 c 0
 0 -18 18 20 41 51 c 0
 45 57 47 62 47 66 c 0
 47 73 43 79 35 85 c 0
 -92 191 l 0
 -97 196 -100 198 -100 201 c 0
EndSplineSet
EndChar

StartChar: copyright
Encoding: 211 169 164
Width: 318
Flags: HW
LayerCount: 2
Fore
SplineSet
-106 207 m 0
 -106 213 -92 227 -88 227 c 0
 -85 227 -82 225 -78 221 c 0
 49 115 l 0
 59 107 68 102 78 102 c 0
 86 102 94 105 104 110 c 0
 135 128 178 143 218 143 c 0
 237 143 255 140 271 132 c 0
 275 130 279 129 282 129 c 0
 287 129 291 132 296 136 c 0
 407 229 l 0
 412 233 415 235 418 235 c 0
 422 235 435 219 435 214 c 0
 435 211 433 209 428 204 c 0
 322 116 l 0
 314 109 311 103 311 96 c 0
 311 92 312 88 314 83 c 0
 317 73 318 64 318 54 c 0
 318 21 303 -14 283 -44 c 0
 278 -53 275 -59 275 -65 c 0
 275 -72 279 -78 288 -85 c 0
 416 -192 l 0
 422 -198 426 -201 426 -205 c 0
 426 -211 412 -225 408 -225 c 0
 404 -225 400 -221 393 -216 c 0
 268 -111 l 0
 259 -102 251 -98 243 -98 c 0
 238 -98 231 -100 223 -106 c 0
 191 -126 144 -143 100 -143 c 0
 84 -143 69 -141 56 -136 c 0
 49 -133 43 -132 38 -132 c 0
 29 -132 23 -135 15 -142 c 0
 -84 -225 l 0
 -90 -230 -93 -233 -97 -233 c 0
 -102 -233 -114 -217 -114 -213 c 0
 -114 -209 -110 -205 -103 -199 c 0
 -6 -117 l 0
 2 -111 6 -106 6 -97 c 0
 6 -86 0 -67 0 -54 c 0
 0 -21 15 15 36 44 c 0
 42 53 44 60 44 66 c 0
 44 75 38 82 28 91 c 0
 -98 197 l 0
 -104 201 -106 204 -106 207 c 0
EndSplineSet
EndChar

StartChar: trademark
Encoding: 212 8482 165
Width: 353
Flags: HW
LayerCount: 2
Fore
SplineSet
463 194 m 0
 467 194 478 177 478 172 c 0
 478 168 475 166 469 162 c 0
 368 99 l 0
 355 91 353 87 353 65 c 0
 353 10 310 -64 243 -106 c 0
 202 -131 154 -144 112 -144 c 0
 88 -144 65 -140 46 -132 c 0
 34 -127 26 -125 19 -125 c 0
 12 -125 6 -127 -2 -132 c 0
 -97 -191 l 0
 -103 -195 -107 -198 -110 -198 c 0
 -115 -198 -125 -182 -125 -176 c 0
 -125 -172 -121 -169 -112 -163 c 0
 -15 -102 l 0
 -1 -94 0 -88 0 -72 c 0
 0 -64 l 0
 0 -10 44 64 111 106 c 0
 152 132 200 144 243 144 c 0
 270 144 296 140 315 129 c 0
 326 124 332 121 337 121 c 0
 342 121 347 124 355 128 c 0
 452 189 l 0
 457 192 460 194 463 194 c 0
54 -59 m 0
 284 84 l 0
 289 87 296 94 296 100 c 0
 296 103 292 106 284 106 c 0
 281 106 277 106 273 105 c 0
 243 100 203 75 151 42 c 0
 96 9 54 -18 38 -43 c 0
 34 -50 32 -55 32 -59 c 0
 32 -63 34 -65 38 -65 c 0
 43 -65 49 -63 54 -59 c 0
87 -103 m 0
 117 -96 155 -73 203 -42 c 0
 261 -7 304 20 318 47 c 0
 321 52 322 57 322 59 c 0
 322 63 321 64 318 64 c 0
 314 64 309 62 303 58 c 0
 71 -86 l 0
 64 -91 60 -96 60 -100 c 0
 60 -103 63 -105 71 -105 c 0
 75 -105 80 -105 87 -103 c 0
EndSplineSet
EndChar

StartChar: product
Encoding: 213 8719 166
Width: 353
Flags: HW
LayerCount: 2
Fore
SplineSet
-110 162 m 0
 -110 169 -98 185 -94 185 c 0
 -92 185 -88 183 -84 180 c 0
 48 98 l 0
 58 92 66 89 74 89 c 0
 83 89 92 93 104 101 c 0
 145 128 191 144 243 144 c 0
 303 144 353 123 353 65 c 0
 353 34 340 -2 317 -35 c 0
 310 -44 307 -51 307 -56 c 0
 307 -61 311 -66 319 -71 c 0
 453 -154 l 0
 461 -160 465 -162 465 -166 c 0
 465 -172 453 -188 449 -188 c 0
 446 -188 442 -184 435 -180 c 0
 297 -95 l 0
 290 -91 284 -88 278 -88 c 0
 268 -88 253 -100 243 -106 c 0
 202 -131 154 -144 112 -144 c 0
 51 -144 0 -122 0 -64 c 0
 0 -34 13 2 37 35 c 0
 43 43 46 49 46 54 c 0
 46 61 40 66 30 72 c 0
 -101 153 l 0
 -107 157 -110 159 -110 162 c 0
323 65 m 0
 323 88 302 106 283 106 c 0
 256 106 219 85 171 55 c 0
 160 48 155 42 155 37 c 0
 155 33 159 29 164 26 c 0
 216 -7 l 0
 225 -12 232 -15 238 -15 c 0
 244 -15 250 -13 258 -7 c 0
 299 19 323 42 323 65 c 0
181 -22 m 0
 134 7 l 0
 127 11 121 14 115 14 c 0
 108 14 101 11 90 3 c 0
 53 -21 31 -43 31 -65 c 0
 31 -88 52 -105 71 -105 c 0
 98 -105 134 -86 180 -57 c 0
 191 -50 196 -44 196 -39 c 0
 196 -33 190 -28 181 -22 c 0
EndSplineSet
EndChar

StartChar: Pi
Encoding: 80 928 167
Width: 184
Flags: W
HStem: -174 40<106.234 172.125> 130 65<111.182 176.648>
VStem: 0 40<-64.5662 66.415>
LayerCount: 2
Fore
SplineSet
0 0 m 0
 0 70 40 156 154 191 c 0
 159 193 169 195 173 195 c 0
 182 195 184 190 184 183 c 0
 184 177 l 0
 177 146 171 134 154 130 c 0
 82 114 40 60 40 0 c 0
 40 -60 91 -118 146 -134 c 0
 162 -139 173 -148 173 -159 c 0
 173 -167 166 -174 151 -174 c 0
 85 -174 0 -98 0 0 c 0
EndSplineSet
EndChar

StartChar: Theta
Encoding: 81 920 168
Width: 184
Flags: W
HStem: -195 65<111.182 176.648> 134 40<106.234 172.125>
VStem: 0 40<-66.415 64.5662>
LayerCount: 2
Fore
SplineSet
0 0 m 0
 0 98 85 174 151 174 c 0
 166 174 173 167 173 159 c 0
 173 148 162 139 146 134 c 0
 91 118 40 60 40 0 c 0
 40 -60 82 -114 154 -130 c 0
 171 -134 177 -146 184 -177 c 0
 184 -183 l 0
 184 -190 182 -195 173 -195 c 0
 169 -195 159 -193 154 -191 c 0
 40 -156 0 -70 0 0 c 0
EndSplineSet
EndChar

StartChar: Rho
Encoding: 82 929 169
Width: 413
Flags: HW
LayerCount: 2
Fore
SplineSet
229 -268 m 0
 229 -378 l 0
 229 -390 227 -395 215 -395 c 0
 199 -395 198 -390 198 -377 c 0
 198 -243 l 0
 198 -221 193 -210 175 -198 c 0
 159 -187 139 -179 114 -179 c 0
 91 -179 70 -195 56 -230 c 0
 50 -246 47 -252 36 -252 c 0
 28 -252 25 -244 25 -225 c 0
 27 -122 88 -58 164 -17 c 0
 191 -3 198 7 198 37 c 0
 198 188 l 0
 198 206 189 214 170 211 c 0
 143 207 117 196 117 175 c 0
 117 147 146 146 146 104 c 0
 146 73 122 52 87 52 c 0
 58 52 31 75 31 110 c 0
 31 172 81 230 168 247 c 0
 190 251 198 254 198 278 c 0
 198 382 l 0
 198 391 200 395 214 395 c 0
 230 395 229 388 229 380 c 0
 229 280 l 0
 229 257 235 253 257 249 c 0
 337 237 388 177 388 109 c 0
 388 42 335 -2 257 -25 c 0
 235 -32 229 -41 229 -59 c 0
 229 -121 l 0
 229 -144 233 -153 252 -159 c 0
 261 -162 271 -164 282 -164 c 0
 316 -164 343 -134 354 -106 c 0
 360 -90 364 -70 376 -70 c 0
 384 -70 388 -78 388 -88 c 0
 388 -158 343 -252 267 -252 c 0
 261 -252 255 -251 250 -250 c 0
 233 -245 229 -256 229 -268 c 0
229 183 m 0
 229 50 l 0
 229 27 235 17 256 30 c 0
 283 48 300 70 300 109 c 0
 300 152 284 185 255 202 c 0
 236 213 229 203 229 183 c 0
198 -108 m 0
 198 -68 l 0
 198 -49 191 -43 170 -53 c 0
 157 -59 145 -67 132 -78 c 0
 120 -88 88 -127 132 -127 c 0
 146 -127 158 -128 169 -130 c 0
 193 -134 198 -125 198 -108 c 0
EndSplineSet
EndChar

StartChar: logicalnot
Encoding: 216 172 170
Width: 353
Flags: HW
LayerCount: 2
Fore
SplineSet
-66 0 m 0
 -66 -132 40 -241 176 -241 c 0
 308 -241 418 -135 418 0 c 0
 418 132 312 241 176 241 c 0
 44 241 -66 135 -66 0 c 0
-98 0 m 0
 -98 154 27 273 176 273 c 0
 329 273 450 149 450 0 c 0
 450 -154 325 -273 176 -273 c 0
 23 -273 -98 -149 -98 0 c 0
323 65 m 0
 323 88 302 106 283 106 c 0
 252 106 209 79 151 42 c 0
 80 -1 31 -32 31 -65 c 0
 31 -88 52 -105 71 -105 c 0
 102 -105 146 -79 203 -42 c 0
 274 1 323 32 323 65 c 0
243 144 m 0
 303 144 353 123 353 65 c 0
 353 10 310 -64 243 -106 c 0
 202 -131 154 -144 112 -144 c 0
 51 -144 0 -122 0 -64 c 0
 0 -10 44 64 111 106 c 0
 152 132 200 144 243 144 c 0
EndSplineSet
EndChar

StartChar: logicaland
Encoding: 217 8743 171
Width: 280
Flags: HW
LayerCount: 2
Fore
SplineSet
259 140 m 0
 264 140 279 124 279 119 c 0
 279 116 277 113 273 109 c 0
 182 18 l 0
 175 11 172 5 172 0 c 0
 172 -6 175 -11 181 -17 c 0
 273 -109 l 0
 277 -113 280 -116 280 -119 c 0
 280 -125 264 -140 259 -140 c 0
 256 -140 253 -137 249 -133 c 0
 157 -41 l 0
 149 -33 144 -29 140 -29 c 0
 136 -29 132 -32 126 -38 c 0
 33 -131 l 0
 27 -137 24 -140 20 -140 c 0
 15 -140 0 -124 0 -120 c 0
 0 -116 4 -112 11 -105 c 0
 99 -16 l 0
 105 -9 109 -5 109 0 c 0
 109 4 106 9 99 16 c 0
 9 107 l 0
 3 113 0 116 0 119 c 0
 0 125 15 139 20 139 c 0
 24 139 28 136 35 129 c 0
 121 43 l 0
 129 35 135 31 140 31 c 0
 145 31 150 34 157 41 c 0
 249 133 l 0
 253 137 256 140 259 140 c 0
EndSplineSet
EndChar

StartChar: logicalor
Encoding: 218 8744 172
Width: 280
Flags: W
HStem: -211 32<69.3508 212.566> -29 60<113.969 166.25> 179 32<68.092 210.649>
VStem: -71 32<-72.892 73.6274> 109 63<-27.25 26.9688> 319 32<-70.5999 72.1764>
LayerCount: 2
Fore
SplineSet
-71 0 m 0
 -71 119 26 211 140 211 c 0
 259 211 351 114 351 0 c 0
 351 -119 254 -211 140 -211 c 0
 21 -211 -71 -114 -71 0 c 0
45 119 m 0
 121 43 l 0
 129 35 135 31 140 31 c 0
 145 31 150 34 157 41 c 0
 234 118 l 0
 241 125 245 131 245 137 c 0
 245 143 240 149 229 155 c 0
 203 170 173 179 140 179 c 0
 106 179 74 169 46 152 c 0
 37 146 33 142 33 137 c 0
 33 132 38 126 45 119 c 0
-14 92 m 0
 -30 65 -39 34 -39 0 c 0
 -39 -32 -31 -62 -16 -88 c 0
 -8 -102 -2 -107 4 -107 c 0
 11 -107 18 -98 27 -88 c 0
 99 -16 l 0
 105 -9 109 -5 109 0 c 0
 109 4 106 9 99 16 c 0
 22 94 l 0
 15 101 8 106 3 106 c 0
 -3 106 -8 101 -14 92 c 0
256 92 m 0
 182 18 l 0
 175 11 172 5 172 0 c 0
 172 -6 175 -11 181 -17 c 0
 254 -90 l 0
 262 -98 269 -103 277 -103 c 0
 283 -103 289 -99 295 -89 c 0
 310 -63 319 -32 319 0 c 0
 319 34 310 65 293 93 c 0
 287 103 283 108 278 108 c 0
 273 108 267 103 256 92 c 0
231 -115 m 0
 157 -41 l 0
 149 -33 144 -29 140 -29 c 0
 136 -29 132 -32 126 -38 c 0
 49 -115 l 0
 40 -124 35 -131 35 -137 c 0
 35 -143 40 -149 51 -155 c 0
 77 -170 107 -179 140 -179 c 0
 171 -179 200 -171 226 -157 c 0
 239 -150 245 -144 245 -137 c 0
 245 -131 240 -124 231 -115 c 0
EndSplineSet
EndChar

StartChar: arrowdblboth
Encoding: 219 8660 173
Width: 272
Flags: W
HStem: -211 32<62.1226 208.176> -28 56<108.365 163.635> 179 32<64.1407 210.114>
VStem: -75 32<-72.2344 74.0651> 108 56<-27.8361 27.4565> 315 32<-73.3838 72.3946>
CounterMasks: 1 fc
LayerCount: 2
Fore
SplineSet
136 -28 m 0
 135 -28 l 0
 112 -28 93 -62 93 -107 c 0
 93 -120 92 -125 79 -127 c 0
 66 -128 30 -131 30 -140 c 0
 30 -143 34 -147 42 -153 c 0
 69 -169 101 -179 136 -179 c 0
 170 -179 201 -170 229 -153 c 0
 236 -149 240 -144 240 -141 c 0
 240 -131 204 -127 193 -126 c 0
 180 -125 179 -120 179 -106 c 0
 179 -60 159 -28 136 -28 c 0
-75 0 m 0
 -75 119 22 211 136 211 c 0
 255 211 347 114 347 0 c 0
 347 -119 250 -211 136 -211 c 0
 17 -211 -75 -114 -75 0 c 0
37 142 m 0
 37 130 67 127 79 126 c 0
 92 125 93 120 93 106 c 0
 93 60 113 28 136 28 c 0
 137 28 l 0
 160 28 179 62 179 107 c 0
 179 120 180 125 193 127 c 0
 207 129 237 131 237 141 c 0
 237 147 230 153 219 159 c 0
 194 172 166 179 136 179 c 0
 104 179 74 170 47 155 c 0
 40 151 37 146 37 142 c 0
-21 87 m 0
 -35 61 -43 32 -43 0 c 0
 -43 -30 -35 -60 -21 -85 c 0
 -16 -94 -11 -99 -6 -99 c 0
 6 -99 9 -69 10 -57 c 0
 11 -44 16 -43 30 -43 c 0
 76 -43 108 -23 108 0 c 0
 108 24 75 43 29 43 c 0
 16 43 11 44 9 57 c 0
 8 70 6 103 -5 103 c 0
 -9 103 -15 98 -21 87 c 0
277 103 m 0
 268 103 263 70 262 57 c 0
 261 44 256 43 242 43 c 0
 196 43 164 24 164 0 c 0
 164 -23 197 -43 243 -43 c 0
 256 -43 261 -44 263 -57 c 0
 264 -66 265 -103 276 -103 c 0
 281 -103 286 -98 289 -93 c 0
 305 -66 315 -34 315 0 c 0
 315 31 307 61 292 87 c 0
 287 96 282 103 277 103 c 0
EndSplineSet
EndChar

StartChar: arrowdblleft
Encoding: 220 8656 174
Width: 370
Flags: HW
LayerCount: 2
Fore
SplineSet
370 -149 m 0
 370 -158 365 -159 359 -159 c 0
 321 -159 272 -87 185 -87 c 0
 101 -87 36 -159 7 -159 c 0
 1 -159 0 -157 0 -149 c 0
 0 -128 34 -91 104 31 c 0
 162 132 166 185 185 185 c 0
 204 185 208 136 270 29 c 0
 336 -81 370 -124 370 -149 c 0
EndSplineSet
EndChar

StartChar: arrowdblup
Encoding: 221 8657 175
Width: 370
Flags: HW
LayerCount: 2
Fore
SplineSet
0 149 m 0
 0 158 5 159 11 159 c 0
 49 159 98 87 185 87 c 0
 269 87 334 159 363 159 c 0
 369 159 370 157 370 149 c 0
 370 128 336 91 266 -31 c 0
 208 -132 204 -185 185 -185 c 0
 166 -185 162 -136 100 -29 c 0
 34 81 0 124 0 149 c 0
EndSplineSet
EndChar

StartChar: arrowdblright
Encoding: 222 8658 176
Width: 110
Flags: HW
LayerCount: 2
Fore
SplineSet
110 48 m 0
 110 28 114 16 147 14 c 0
 147 14 148 10 148 7 c 0
 148 4 147 0 147 0 c 0
 -37 0 l 0
 -37 0 -38 4 -38 7 c 0
 -38 10 -37 14 -37 14 c 0
 -4 16 0 28 0 48 c 0
 0 202 l 0
 0 222 -4 234 -37 236 c 0
 -37 236 -38 240 -38 243 c 0
 -38 246 -37 250 -37 250 c 0
 147 250 l 0
 147 250 148 246 148 243 c 0
 148 240 147 236 147 236 c 0
 114 234 110 222 110 202 c 0
 110 48 l 0
EndSplineSet
EndChar

StartChar: arrowdbldown
Encoding: 223 8659 177
Width: 277
Flags: HW
LayerCount: 2
Fore
SplineSet
25 143 m 0
 6 143 0 159.854 0 176 c 0
 0 204 l 0
 0 229 -15 235 -37 236 c 0
 -37 236 -38 240 -38 243 c 0
 -38 246 -37 250 -37 250 c 0
 314 250 l 0
 314 250 315 246 315 243 c 0
 315 240 314 236 314 236 c 0
 281 234 277 221.598 277 202 c 0
 277 180 l 0
 277 139 265 143 252 143 c 0
 25 143 l 0
EndSplineSet
EndChar

StartChar: uni22C4
Encoding: 224 8900 178
Width: 257
Flags: HW
CounterMasks: 1 fc
LayerCount: 2
Fore
SplineSet
232 107 m 0
 251 107 257 90.1465 257 74 c 0
 257 46 l 0
 257 21 272 15 294 14 c 0
 294 14 295 10 295 7 c 0
 295 4 294 0 294 0 c 0
 -37 0 l 0
 -37 0 -38 4 -38 7 c 0
 -38 10 -37 14 -37 14 c 0
 -4 16 0 28.4023 0 48 c 0
 0 70 l 0
 0 111 12 107 25 107 c 0
 232 107 l 0
EndSplineSet
EndChar

StartChar: angleleft
Encoding: 225 9001 179
Width: 212
Flags: HW
LayerCount: 2
Fore
SplineSet
14 263 m 0
 7 263 0 251 0 246 c 0
 0 242 2 238 7 234 c 0
 36 204 99 149 99 105 c 0
 99 42 47 -14 47 -48 c 0
 47 -63 93 -92 117 -115 c 0
 122 -119 125 -123 125 -126 c 0
 125 -130 120 -133 107 -133 c 0
 101 -133 97 -132 89 -132 c 0
 46 -132 14 -164 14 -211 c 0
 14 -265 71 -317 108 -342 c 0
 112 -345 116 -347 120 -347 c 0
 125 -347 130 -339 130 -333 c 0
 130 -329 129 -326 124 -322 c 0
 109 -310 74 -279 74 -242 c 0
 74 -196 104 -169 141 -169 c 0
 157 -169 174 -173 190 -184 c 0
 196 -187 200 -189 203 -189 c 0
 208 -189 212 -181 212 -175 c 0
 212 -170 209 -165 204 -161 c 0
 167 -134 130 -101 130 -71 c 0
 130 -29 180 33 180 73 c 0
 180 88 172 104 154 124 c 0
 122 160 75 207 27 255 c 0
 22 260 18 263 14 263 c 0
EndSplineSet
EndChar

StartChar: uniF8E8
Encoding: 226 63720 180
Width: 212
Flags: HW
LayerCount: 2
Fore
SplineSet
178 161 m 0
 186 179 192 181 201 181 c 0
 210 181 212 175 212 168 c 0
 212 165 212 161 211 158 c 0
 200 105 l 0
 178 0 174 -24 154 -148 c 0
 152 -157 148 -162 124 -162 c 0
 109 -162 104 -158 104 -151 c 0
 104 -148 105 -145 106 -141 c 0
 134 -45 151 10 163 69 c 0
 165 79 165 92 157 92 c 0
 151 92 143 88 134 84 c 0
 119 78 101 69 72 69 c 0
 25 69 0 95 0 132 c 0
 0 161 20 184 47 184 c 0
 70 184 86 168 86 141 c 0
 86 128 83 124 83 114 c 0
 83 108 86 102 96 102 c 0
 107 102 122 107 135 114 c 0
 154 125 167 137 178 161 c 0
EndSplineSet
EndChar

StartChar: uniF8E9
Encoding: 227 63721 181
Width: 248
Flags: HW
LayerCount: 2
Fore
SplineSet
214 341 m 0
 222 359 228 361 237 361 c 0
 246 361 248 355 248 348 c 0
 248 345 248 341 247 338 c 0
 200 105 l 0
 178 0 174 -24 154 -148 c 0
 152 -157 148 -162 124 -162 c 0
 109 -162 104 -158 104 -151 c 0
 104 -148 105 -145 106 -141 c 0
 134 -45 151 10 163 69 c 0
 164 74 164 78 164 81 c 0
 164 89 162 92 157 92 c 0
 151 92 143 88 134 84 c 0
 119 78 101 69 72 69 c 0
 25 69 0 95 0 132 c 0
 0 161 20 184 47 184 c 0
 70 184 86 168 86 141 c 0
 86 128 83 124 83 114 c 0
 83 108 86 102 96 102 c 0
 107 102 122 107 135 114 c 0
 149 122 160 131 169 145 c 0
 177 157 183 172 187 189 c 0
 191 207 196 228 199 249 c 0
 201 259 202 272 193 272 c 0
 187 272 179 268 170 264 c 0
 155 258 137 249 108 249 c 0
 61 249 36 275 36 312 c 0
 36 341 56 364 83 364 c 0
 106 364 122 348 122 321 c 0
 122 308 119 304 119 294 c 0
 119 288 122 282 132 282 c 0
 143 282 158 287 171 294 c 0
 190 305 203 317 214 341 c 0
EndSplineSet
EndChar

StartChar: uniF8EA
Encoding: 228 63722 182
Width: 284
Flags: HW
LayerCount: 2
Fore
SplineSet
250 341 m 0
 258 359 264 361 273 361 c 0
 282 361 284 355 284 348 c 0
 284 345 284 341 283 338 c 0
 200 -75 l 0
 179 -180 174 -204 154 -328 c 0
 152 -337 148 -342 124 -342 c 0
 109 -342 104 -338 104 -331 c 0
 104 -328 105 -325 106 -321 c 0
 134 -225 151 -170 163 -111 c 0
 164 -106 164 -102 164 -99 c 0
 164 -91 162 -88 157 -88 c 0
 151 -88 143 -92 134 -96 c 0
 119 -102 101 -111 72 -111 c 0
 25 -111 0 -85 0 -48 c 0
 0 -19 20 4 47 4 c 0
 70 4 86 -12 86 -39 c 0
 86 -52 83 -56 83 -66 c 0
 83 -72 86 -78 96 -78 c 0
 107 -78 122 -73 135 -66 c 0
 149 -58 160 -49 169 -35 c 0
 177 -23 183 -8 187 9 c 0
 191 27 196 48 199 69 c 0
 201 79 202 92 193 92 c 0
 187 92 179 88 170 84 c 0
 155 78 137 69 108 69 c 0
 61 69 36 95 36 132 c 0
 36 161 56 184 83 184 c 0
 106 184 122 168 122 141 c 0
 122 128 119 124 119 114 c 0
 119 108 122 102 132 102 c 0
 143 102 158 107 171 114 c 0
 184 122 195 130 203 142 c 0
 214 157 220 175 225 197 c 0
 228 213 232 231 235 249 c 0
 237 259 238 272 229 272 c 0
 223 272 215 268 206 264 c 0
 191 258 173 249 144 249 c 0
 97 249 72 275 72 312 c 0
 72 341 92 364 119 364 c 0
 142 364 158 348 158 321 c 0
 158 308 155 304 155 294 c 0
 155 288 158 282 168 282 c 0
 179 282 194 287 207 294 c 0
 226 305 239 317 250 341 c 0
EndSplineSet
EndChar

StartChar: Sigma
Encoding: 83 931 183
Width: 426
Flags: HW
LayerCount: 2
Fore
SplineSet
0 -16 m 0
 0 148 91 255 233 255 c 0
 340 255 416 194 416 112 c 0
 416 76 385 42 348 42 c 0
 314 42 290 68 290 102 c 0
 290 142 323 153 323 174 c 0
 323 202 290 219 243 219 c 0
 117 219 103 115 103 -16 c 0
 103 -120 134 -222 230 -222 c 0
 340 -222 378 -99 383 -54 c 0
 387 -23 418 -19 418 -53 c 0
 418 -121 363 -258 230 -258 c 0
 79 -258 0 -156 0 -16 c 0
EndSplineSet
EndChar

StartChar: Tau
Encoding: 84 932 184
Width: 418
Flags: HW
LayerCount: 2
Fore
SplineSet
223 -303 m 0
 223 -378 l 0
 223 -390 221 -395 209 -395 c 0
 193 -395 192 -390 192 -377 c 0
 192 -293 l 0
 192 -262 186 -257 154 -248 c 0
 53 -219 0 -130 0 -16 c 0
 0 113 56 206 149 241 c 0
 180 252 192 250 192 287 c 0
 192 382 l 0
 192 391 194 395 208 395 c 0
 224 395 223 388 223 380 c 0
 223 289 l 0
 223 264 225 256 254 254 c 0
 350 247 416 189 416 112 c 0
 416 76 385 42 348 42 c 0
 314 42 290 68 290 102 c 0
 290 142 323 153 323 174 c 0
 323 200 295 216 254 219 c 0
 223 221 223 211 223 186 c 0
 223 -166 l 0
 223 -211 222 -229 265 -218 c 0
 348 -195 379 -94 383 -54 c 0
 387 -23 418 -19 418 -53 c 0
 418 -114 374 -231 268 -254 c 0
 228 -263 223 -264 223 -303 c 0
192 -162 m 0
 192 177 l 0
 192 209 178 211 156 192 c 0
 110 153 103 75 103 -16 c 0
 103 -79 114 -141 144 -180 c 0
 172 -216 192 -205 192 -162 c 0
EndSplineSet
EndChar

StartChar: Upsilon
Encoding: 85 933 185
Width: 335
Flags: HW
LayerCount: 2
Fore
SplineSet
359 439 m 0
 403 439 445 412 445 369 c 0
 445 339 422 314 392 314 c 0
 371 314 353 329 353 350 c 0
 353 386 385 390 385 403 c 0
 385 410 373 413 363 413 c 0
 323 413 295 371 264 282 c 0
 255 255 262 244 284 244 c 0
 324 244 l 0
 333 244 338 243 334 230 c 0
 330 218 324 216 313 216 c 0
 277 216 l 0
 254 216 242 209 234 181 c 0
 224 143 l 0
 170 -56 76 -200 -26 -200 c 0
 -69 -200 -110 -171 -110 -127 c 0
 -110 -97 -85 -74 -55 -74 c 0
 -35 -74 -15 -86 -15 -105 c 0
 -15 -146 -53 -150 -53 -164 c 0
 -53 -175 -44 -178 -31 -178 c 0
 42 -178 89 -22 138 138 c 0
 152 184 l 0
 157 200 158 216 128 216 c 0
 88 216 l 0
 80 216 73 218 77 232 c 0
 81 245 88 244 100 244 c 0
 140 244 l 0
 167 244 175 251 186 276 c 0
 228 376 279 439 359 439 c 0
EndSplineSet
EndChar

StartChar: sigma1
Encoding: 86 962 186
Width: 448
Flags: HW
LayerCount: 2
Fore
SplineSet
157 -179 m 0
 -71 -179 l 0
 -80 -179 -82 -174 -81 -165 c 0
 -80 -154 -75 -150 -63 -150 c 0
 -31 -150 l 0
 -2 -150 2 -142 12 -120 c 0
 136 150 l 0
 148 177 160 208 160 223 c 0
 160 236 153 241 144 241 c 0
 106 241 64 160 35 108 c 0
 29 96 23 89 18 89 c 0
 12 89 7 92 7 99 c 0
 7 103 8 109 11 116 c 0
 45 188 95 288 180 288 c 0
 210 288 233 270 243 243 c 0
 253 218 260 217 279 235 c 0
 308 264 340 284 372 284 c 0
 411 284 448 250 448 200 c 0
 448 97 367 -22 268 -22 c 0
 235 -22 216 -6 206 14 c 0
 194 37 184 40 172 15 c 0
 112 -116 l 0
 101 -140 104 -150 126 -150 c 0
 165 -150 l 0
 177 -150 178 -157 176 -165 c 0
 175 -174 167 -179 157 -179 c 0
210 72 m 0
 210 44 224 11 248 11 c 0
 285 11 317 60 341 110 c 0
 356 141 367 174 367 199 c 0
 367 228 360 243 343 243 c 0
 309 243 260 199 233 150 c 0
 218 122 210 101 210 72 c 0
EndSplineSet
EndChar

StartChar: summation
Encoding: 229 8721 187
Width: 320
Flags: HW
LayerCount: 2
Fore
SplineSet
286 341 m 0
 294 359 300 361 309 361 c 0
 318 361 320 355 320 348 c 0
 320 345 320 341 319 338 c 0
 200 -255 l 0
 179 -360 174 -384 154 -508 c 0
 152 -517 148 -522 124 -522 c 0
 109 -522 104 -518 104 -511 c 0
 104 -508 105 -505 106 -501 c 0
 134 -405 151 -350 163 -291 c 0
 164 -286 164 -282 164 -279 c 0
 164 -271 162 -268 157 -268 c 0
 151 -268 143 -272 134 -276 c 0
 119 -282 101 -291 72 -291 c 0
 25 -291 0 -265 0 -228 c 0
 0 -199 20 -176 47 -176 c 0
 70 -176 86 -192 86 -219 c 0
 86 -232 83 -236 83 -246 c 0
 83 -252 86 -258 96 -258 c 0
 107 -258 122 -253 135 -246 c 0
 149 -238 160 -229 169 -215 c 0
 177 -203 183 -188 187 -171 c 0
 191 -153 196 -132 199 -111 c 0
 201 -101 202 -88 193 -88 c 0
 187 -88 179 -92 170 -96 c 0
 155 -102 137 -111 108 -111 c 0
 61 -111 36 -85 36 -48 c 0
 36 -19 56 4 83 4 c 0
 106 4 122 -12 122 -39 c 0
 122 -52 119 -56 119 -66 c 0
 119 -72 122 -78 132 -78 c 0
 143 -78 158 -73 171 -66 c 0
 184 -58 195 -50 203 -38 c 0
 214 -23 220 -5 225 17 c 0
 228 33 232 51 235 69 c 0
 237 79 238 92 229 92 c 0
 223 92 215 88 206 84 c 0
 191 78 173 69 144 69 c 0
 97 69 72 95 72 132 c 0
 72 161 92 184 119 184 c 0
 142 184 158 168 158 141 c 0
 158 128 155 124 155 114 c 0
 155 108 158 102 168 102 c 0
 179 102 194 107 207 114 c 0
 217 120 226 126 234 135 c 0
 248 151 255 174 261 200 c 0
 265 216 268 232 271 249 c 0
 273 259 274 272 265 272 c 0
 259 272 251 268 242 264 c 0
 227 258 209 249 180 249 c 0
 133 249 108 275 108 312 c 0
 108 341 128 364 155 364 c 0
 178 364 194 348 194 321 c 0
 194 308 191 304 191 294 c 0
 191 288 194 282 204 282 c 0
 215 282 230 287 243 294 c 0
 262 305 275 317 286 341 c 0
EndSplineSet
EndChar

StartChar: uniF8EB
Encoding: 230 63723 188
Width: 356
Flags: HW
LayerCount: 2
Fore
SplineSet
322 341 m 0
 330 359 336 361 345 361 c 0
 354 361 356 355 356 348 c 0
 356 345 356 341 355 338 c 0
 200 -435 l 0
 179 -540 174 -564 154 -688 c 0
 152 -697 148 -702 124 -702 c 0
 109 -702 104 -698 104 -691 c 0
 104 -688 105 -685 106 -681 c 0
 134 -585 151 -530 163 -471 c 0
 164 -466 164 -462 164 -459 c 0
 164 -451 162 -448 157 -448 c 0
 151 -448 143 -452 134 -456 c 0
 119 -462 101 -471 72 -471 c 0
 25 -471 0 -445 0 -408 c 0
 0 -379 20 -356 47 -356 c 0
 70 -356 86 -372 86 -399 c 0
 86 -412 83 -416 83 -426 c 0
 83 -432 86 -438 96 -438 c 0
 107 -438 122 -433 135 -426 c 0
 149 -418 160 -409 169 -395 c 0
 177 -383 183 -368 187 -351 c 0
 191 -333 196 -312 199 -291 c 0
 201 -281 202 -268 193 -268 c 0
 187 -268 179 -272 170 -276 c 0
 155 -282 137 -291 108 -291 c 0
 61 -291 36 -265 36 -228 c 0
 36 -199 56 -176 83 -176 c 0
 106 -176 122 -192 122 -219 c 0
 122 -232 119 -236 119 -246 c 0
 119 -252 122 -258 132 -258 c 0
 143 -258 158 -253 171 -246 c 0
 184 -238 195 -230 203 -218 c 0
 214 -203 220 -185 225 -163 c 0
 228 -147 232 -129 235 -111 c 0
 237 -101 238 -88 229 -88 c 0
 223 -88 215 -92 206 -96 c 0
 191 -102 173 -111 144 -111 c 0
 97 -111 72 -85 72 -48 c 0
 72 -19 92 4 119 4 c 0
 142 4 158 -12 158 -39 c 0
 158 -52 155 -56 155 -66 c 0
 155 -72 158 -78 168 -78 c 0
 179 -78 194 -73 207 -66 c 0
 217 -60 226 -54 234 -45 c 0
 248 -29 255 -6 261 20 c 0
 265 36 268 52 271 69 c 0
 273 79 274 92 265 92 c 0
 259 92 251 88 242 84 c 0
 227 78 209 69 180 69 c 0
 133 69 108 95 108 132 c 0
 108 161 128 184 155 184 c 0
 178 184 194 168 194 141 c 0
 194 128 191 124 191 114 c 0
 191 108 194 102 204 102 c 0
 215 102 230 107 243 114 c 0
 257 122 268 131 277 144 c 0
 286 159 292 175 296 195 c 0
 300 212 304 230 307 249 c 0
 309 259 310 272 301 272 c 0
 295 272 287 268 278 264 c 0
 263 258 245 249 216 249 c 0
 169 249 144 275 144 312 c 0
 144 341 164 364 191 364 c 0
 214 364 230 348 230 321 c 0
 230 308 227 304 227 294 c 0
 227 288 230 282 240 282 c 0
 251 282 266 287 279 294 c 0
 298 305 311 317 322 341 c 0
EndSplineSet
EndChar

StartChar: Omega
Encoding: 87 937 189
Width: 706
Flags: HW
LayerCount: 2
Fore
SplineSet
353 280 m 0
 184 280 57 185 31 -23 c 0
 29 -42 21 -52 14 -52 c 0
 7 -52 0 -43 0 -25 c 0
 0 -22 1 -19 1 -15 c 0
 22 177 150 368 353 368 c 0
 555 368 684 177 705 -15 c 0
 705 -19 706 -22 706 -25 c 0
 706 -43 699 -52 692 -52 c 0
 685 -52 677 -42 675 -23 c 0
 649 185 521 280 353 280 c 0
303 19 m 0
 303 47 325 69 353 69 c 0
 381 69 403 47 403 19 c 0
 403 -9 381 -31 353 -31 c 0
 325 -31 303 -9 303 19 c 0
EndSplineSet
EndChar

StartChar: Xi
Encoding: 88 926 190
Width: 706
Flags: HW
LayerCount: 2
Fore
SplineSet
353 -280 m 0
 522 -280 649 -185 675 23 c 0
 677 42 685 52 692 52 c 0
 699 52 706 43 706 25 c 0
 706 22 705 19 705 15 c 0
 684 -177 556 -368 353 -368 c 0
 151 -368 22 -177 1 15 c 0
 1 19 0 22 0 25 c 0
 0 43 7 52 14 52 c 0
 21 52 29 42 31 23 c 0
 57 -185 185 -280 353 -280 c 0
403 -19 m 0
 403 -47 381 -69 353 -69 c 0
 325 -69 303 -47 303 -19 c 0
 303 9 325 31 353 31 c 0
 381 31 403 9 403 -19 c 0
EndSplineSet
EndChar

StartChar: uniF8EC
Encoding: 231 63724 191
Width: 262
Flags: HW
LayerCount: 2
Fore
SplineSet
228 411 m 0
 236 429 242 431 251 431 c 0
 260 431 262 425 262 418 c 0
 262 415 262 411 261 408 c 0
 200 105 l 0
 178 0 174 -24 154 -148 c 0
 152 -157 148 -162 124 -162 c 0
 109 -162 104 -158 104 -151 c 0
 104 -148 105 -145 106 -141 c 0
 134 -45 151 10 163 69 c 0
 165 79 165 92 157 92 c 0
 151 92 143 88 134 84 c 0
 119 78 101 69 72 69 c 0
 25 69 0 95 0 132 c 0
 0 161 20 184 47 184 c 0
 70 184 86 168 86 141 c 0
 86 128 83 124 83 114 c 0
 83 108 86 102 96 102 c 0
 107 102 122 107 135 114 c 0
 149 122 160 131 169 144 c 0
 179 160 183 175 188 198 c 0
 197 240 208 289 213 319 c 0
 215 329 216 342 207 342 c 0
 201 342 193 338 184 334 c 0
 169 328 151 319 122 319 c 0
 75 319 50 345 50 382 c 0
 50 411 70 434 97 434 c 0
 120 434 136 418 136 391 c 0
 136 378 133 374 133 364 c 0
 133 358 136 352 146 352 c 0
 157 352 172 357 185 364 c 0
 204 375 217 387 228 411 c 0
EndSplineSet
EndChar

StartChar: uniF8ED
Encoding: 232 63725 192
Width: 312
Flags: HW
LayerCount: 2
Fore
SplineSet
278 411 m 0
 286 429 292 431 301 431 c 0
 310 431 312 425 312 418 c 0
 312 415 312 411 311 408 c 0
 200 -145 l 0
 179 -250 174 -274 154 -398 c 0
 152 -407 148 -412 124 -412 c 0
 109 -412 104 -408 104 -401 c 0
 104 -398 105 -395 106 -391 c 0
 134 -295 151 -240 163 -181 c 0
 165 -171 165 -158 157 -158 c 0
 151 -158 143 -162 134 -166 c 0
 119 -172 101 -181 72 -181 c 0
 25 -181 0 -155 0 -118 c 0
 0 -89 20 -66 47 -66 c 0
 70 -66 86 -82 86 -109 c 0
 86 -122 83 -126 83 -136 c 0
 83 -142 86 -148 96 -148 c 0
 107 -148 122 -143 135 -136 c 0
 149 -128 160 -119 169 -106 c 0
 179 -90 183 -75 188 -52 c 0
 197 -10 208 39 213 69 c 0
 215 79 216 92 207 92 c 0
 201 92 193 88 184 84 c 0
 169 78 151 69 122 69 c 0
 75 69 50 95 50 132 c 0
 50 161 70 184 97 184 c 0
 120 184 136 168 136 141 c 0
 136 128 133 124 133 114 c 0
 133 108 136 102 146 102 c 0
 157 102 172 107 185 114 c 0
 197 121 206 128 215 138 c 0
 228 155 233 173 238 198 c 0
 247 241 258 289 263 319 c 0
 265 329 266 342 257 342 c 0
 251 342 243 338 234 334 c 0
 219 328 201 319 172 319 c 0
 125 319 100 345 100 382 c 0
 100 411 120 434 147 434 c 0
 170 434 186 418 186 391 c 0
 186 378 183 374 183 364 c 0
 183 358 186 352 196 352 c 0
 207 352 222 357 235 364 c 0
 254 375 267 387 278 411 c 0
EndSplineSet
EndChar

StartChar: uniF8EE
Encoding: 233 63726 193
Width: 362
Flags: HW
LayerCount: 2
Fore
SplineSet
328 411 m 0
 336 429 342 431 351 431 c 0
 360 431 362 425 362 418 c 0
 362 415 362 411 361 408 c 0
 200 -395 l 0
 179 -500 174 -524 154 -648 c 0
 152 -657 148 -662 124 -662 c 0
 109 -662 104 -658 104 -651 c 0
 104 -648 105 -645 106 -641 c 0
 134 -545 151 -490 163 -431 c 0
 165 -421 165 -408 157 -408 c 0
 151 -408 143 -412 134 -416 c 0
 119 -422 101 -431 72 -431 c 0
 25 -431 0 -405 0 -368 c 0
 0 -339 20 -316 47 -316 c 0
 70 -316 86 -332 86 -359 c 0
 86 -372 83 -376 83 -386 c 0
 83 -392 86 -398 96 -398 c 0
 107 -398 122 -393 135 -386 c 0
 149 -378 160 -369 169 -356 c 0
 179 -340 183 -325 188 -302 c 0
 197 -260 208 -211 213 -181 c 0
 215 -171 216 -158 207 -158 c 0
 201 -158 193 -162 184 -166 c 0
 169 -172 151 -181 122 -181 c 0
 75 -181 50 -155 50 -118 c 0
 50 -89 70 -66 97 -66 c 0
 120 -66 136 -82 136 -109 c 0
 136 -122 133 -126 133 -136 c 0
 133 -142 136 -148 146 -148 c 0
 157 -148 172 -143 185 -136 c 0
 197 -129 206 -122 215 -112 c 0
 228 -95 233 -77 238 -52 c 0
 247 -9 258 39 263 69 c 0
 265 79 266 92 257 92 c 0
 251 92 243 88 234 84 c 0
 219 78 201 69 172 69 c 0
 125 69 100 95 100 132 c 0
 100 161 120 184 147 184 c 0
 170 184 186 168 186 141 c 0
 186 128 183 124 183 114 c 0
 183 108 186 102 196 102 c 0
 207 102 222 107 235 114 c 0
 248 122 258 130 267 142 c 0
 279 158 283 175 288 200 c 0
 297 241 308 290 313 319 c 0
 315 329 316 342 307 342 c 0
 301 342 293 338 284 334 c 0
 269 328 251 319 222 319 c 0
 175 319 150 345 150 382 c 0
 150 411 170 434 197 434 c 0
 220 434 236 418 236 391 c 0
 236 378 233 374 233 364 c 0
 233 358 236 352 246 352 c 0
 257 352 272 357 285 364 c 0
 304 375 317 387 328 411 c 0
EndSplineSet
EndChar

StartChar: uniF8EF
Encoding: 234 63727 194
Width: 412
Flags: HW
LayerCount: 2
Fore
SplineSet
378 411 m 0
 386 429 392 431 401 431 c 0
 410 431 412 425 412 418 c 0
 412 415 412 411 411 408 c 0
 200 -645 l 0
 179 -750 174 -774 154 -898 c 0
 152 -907 148 -912 124 -912 c 0
 109 -912 104 -908 104 -901 c 0
 104 -898 105 -895 106 -891 c 0
 134 -795 151 -740 163 -681 c 0
 165 -671 165 -658 157 -658 c 0
 151 -658 143 -662 134 -666 c 0
 119 -672 101 -681 72 -681 c 0
 25 -681 0 -655 0 -618 c 0
 0 -589 20 -566 47 -566 c 0
 70 -566 86 -582 86 -609 c 0
 86 -622 83 -626 83 -636 c 0
 83 -642 86 -648 96 -648 c 0
 107 -648 122 -643 135 -636 c 0
 149 -628 160 -619 169 -606 c 0
 179 -590 183 -575 188 -552 c 0
 197 -510 208 -461 213 -431 c 0
 215 -421 216 -408 207 -408 c 0
 201 -408 193 -412 184 -416 c 0
 169 -422 151 -431 122 -431 c 0
 75 -431 50 -405 50 -368 c 0
 50 -339 70 -316 97 -316 c 0
 120 -316 136 -332 136 -359 c 0
 136 -372 133 -376 133 -386 c 0
 133 -392 136 -398 146 -398 c 0
 157 -398 172 -393 185 -386 c 0
 197 -379 206 -372 215 -362 c 0
 228 -345 233 -327 238 -302 c 0
 247 -259 258 -211 263 -181 c 0
 265 -171 266 -158 257 -158 c 0
 251 -158 243 -162 234 -166 c 0
 219 -172 201 -181 172 -181 c 0
 125 -181 100 -155 100 -118 c 0
 100 -89 120 -66 147 -66 c 0
 170 -66 186 -82 186 -109 c 0
 186 -122 183 -126 183 -136 c 0
 183 -142 186 -148 196 -148 c 0
 207 -148 222 -143 235 -136 c 0
 248 -128 258 -120 267 -108 c 0
 279 -92 283 -75 288 -50 c 0
 297 -9 308 40 313 69 c 0
 315 79 316 92 307 92 c 0
 301 92 293 88 284 84 c 0
 269 78 251 69 222 69 c 0
 175 69 150 95 150 132 c 0
 150 161 170 184 197 184 c 0
 220 184 236 168 236 141 c 0
 236 128 233 124 233 114 c 0
 233 108 236 102 246 102 c 0
 257 102 272 107 285 114 c 0
 297 121 307 129 316 140 c 0
 330 159 334 181 341 210 c 0
 349 249 359 292 363 319 c 0
 365 329 366 342 357 342 c 0
 351 342 343 338 334 334 c 0
 319 328 301 319 272 319 c 0
 225 319 200 345 200 382 c 0
 200 411 220 434 247 434 c 0
 270 434 286 418 286 391 c 0
 286 378 283 374 283 364 c 0
 283 358 286 352 296 352 c 0
 307 352 322 357 335 364 c 0
 354 375 367 387 378 411 c 0
EndSplineSet
EndChar

StartChar: uniF8F0
Encoding: 235 63728 195
Width: 698
Flags: HW
LayerCount: 2
Fore
SplineSet
66 152 m 0
 11 21 l 0
 10 17 9 13 9 10 c 0
 9 0 18 -2 28 -2 c 0
 35 -2 l 0
 57 -2 59 8 66 23 c 0
 106 117 l 0
 122 158 150 204 191 204 c 0
 203 204 208 193 208 180 c 0
 208 166 201 146 197 135 c 0
 148 21 l 0
 147 17 146 13 146 10 c 0
 146 0 155 -2 165 -2 c 0
 173 -2 l 0
 195 -2 197 8 204 23 c 0
 243 117 l 0
 259 158 287 204 322 204 c 0
 333 204 338 195 338 183 c 0
 338 168 332 147 326 135 c 0
 302 81 l 0
 296 67 294 53 294 42 c 0
 294 11 311 -9 339 -9 c 0
 372 -9 390 12 405 45 c 0
 406 47 407 50 407 52 c 0
 407 56 404 58 400 58 c 0
 397 58 392 56 389 50 c 0
 377 30 370 13 349 13 c 0
 340 13 337 19 337 28 c 0
 337 41 345 61 349 72 c 0
 374 134 l 0
 383 157 389 180 389 200 c 0
 389 224 379 242 355 242 c 0
 318 242 300 209 276 209 c 0
 257 209 262 245 229 245 c 0
 191 245 170 210 145 210 c 0
 122 210 144 252 108 252 c 0
 58 252 17 200 2 165 c 0
 1 162 0 158 0 155 c 0
 0 149 3 146 6 146 c 0
 9 146 14 148 18 154 c 0
 36 178 49 207 70 207 c 0
 77 207 79 203 79 196 c 0
 79 184 72 165 66 152 c 0
722 439 m 0
 766 439 808 412 808 369 c 0
 808 339 785 314 755 314 c 0
 734 314 716 329 716 350 c 0
 716 386 748 390 748 403 c 0
 748 410 736 413 726 413 c 0
 686 413 658 371 627 282 c 0
 618 255 625 244 647 244 c 0
 687 244 l 0
 696 244 701 243 697 230 c 0
 693 218 687 216 676 216 c 0
 640 216 l 0
 617 216 605 209 597 181 c 0
 587 143 l 0
 533 -56 439 -200 337 -200 c 0
 294 -200 253 -171 253 -127 c 0
 253 -97 278 -74 308 -74 c 0
 328 -74 348 -86 348 -105 c 0
 348 -146 310 -150 310 -164 c 0
 310 -175 319 -178 332 -178 c 0
 405 -178 452 -22 501 138 c 0
 515 184 l 0
 520 200 521 216 491 216 c 0
 451 216 l 0
 443 216 436 218 440 232 c 0
 444 245 451 244 463 244 c 0
 503 244 l 0
 530 244 538 251 549 276 c 0
 591 376 642 439 722 439 c 0
EndSplineSet
EndChar

StartChar: radical
Encoding: 214 8730 196
Width: 353
Flags: HW
LayerCount: 2
Fore
SplineSet
199 -39 m 0
 199 -33 186 -24 178 -24 c 0
 172 -24 166 -27 159 -32 c 0
 71 -86 l 0
 64 -91 60 -96 60 -100 c 0
 60 -103 63 -105 71 -105 c 0
 75 -105 80 -105 87 -103 c 0
 114 -97 147 -78 188 -52 c 0
 195 -47 199 -43 199 -39 c 0
-117 167 m 0
 -117 174 -105 189 -101 189 c 0
 -98 189 -95 187 -90 184 c 0
 48 98 l 0
 58 92 66 89 74 89 c 0
 85 89 100 99 111 106 c 0
 152 132 200 144 243 144 c 0
 270 144 296 140 315 129 c 0
 326 124 332 121 337 121 c 0
 342 121 347 124 355 128 c 0
 452 189 l 0
 457 192 460 194 463 194 c 0
 467 194 478 177 478 172 c 0
 478 168 475 166 469 162 c 0
 368 99 l 0
 355 91 353 87 353 65 c 0
 353 34 340 -2 317 -35 c 0
 311 -43 308 -50 308 -55 c 0
 308 -61 311 -66 319 -71 c 0
 460 -159 l 0
 468 -164 472 -166 472 -170 c 0
 472 -177 460 -192 456 -192 c 0
 452 -192 448 -189 441 -185 c 0
 296 -95 l 0
 290 -90 284 -88 278 -88 c 0
 266 -88 252 -100 243 -106 c 0
 202 -131 154 -144 112 -144 c 0
 88 -144 65 -140 46 -132 c 0
 34 -127 26 -125 19 -125 c 0
 12 -125 6 -127 -2 -132 c 0
 -97 -191 l 0
 -103 -195 -107 -198 -110 -198 c 0
 -115 -198 -125 -182 -125 -176 c 0
 -125 -172 -121 -169 -112 -163 c 0
 -15 -102 l 0
 -1 -94 0 -88 0 -72 c 0
 0 -64 l 0
 0 -35 13 0 35 33 c 0
 41 41 44 48 44 53 c 0
 44 62 36 68 24 75 c 0
 -107 157 l 0
 -114 161 -117 163 -117 167 c 0
138 -1 m 0
 138 5 124 15 114 15 c 0
 109 15 104 13 99 9 c 0
 70 -9 48 -27 38 -43 c 0
 34 -50 32 -55 32 -59 c 0
 32 -63 34 -65 38 -65 c 0
 43 -65 49 -63 54 -59 c 0
 128 -13 l 0
 135 -9 138 -5 138 -1 c 0
215 -2 m 0
 215 -10 230 -15 238 -15 c 0
 243 -15 249 -14 254 -11 c 0
 286 10 308 29 318 47 c 0
 321 52 322 57 322 59 c 0
 322 63 321 64 318 64 c 0
 314 64 309 62 303 58 c 0
 227 11 l 0
 220 6 215 2 215 -2 c 0
153 37 m 0
 153 29 169 23 177 23 c 0
 183 23 189 25 195 29 c 0
 284 84 l 0
 289 87 296 94 296 100 c 0
 296 103 292 106 284 106 c 0
 281 106 277 106 273 105 c 0
 245 100 209 79 164 50 c 0
 157 46 153 42 153 37 c 0
EndSplineSet
EndChar

StartChar: uniF8F1
Encoding: 236 63729 197
Width: 711
Flags: HW
LayerCount: 2
Fore
SplineSet
643 -11 m 0
 643 94 564 167 463 167 c 0
 425 167 422 135 431 101 c 0
 489 -150 l 0
 496 -179 505 -194 521 -194 c 0
 530 -194 542 -189 556 -178 c 0
 608 -139 643 -81 643 -11 c 0
343 334 m 0
 332 386 l 0
 324 416 316 430 304 430 c 0
 294 430 283 424 266 410 c 0
 169 320 64 213 64 59 c 0
 64 -104 204 -238 367 -238 c 0
 382 -238 397 -237 412 -235 c 0
 450 -230 463 -222 463 -198 c 0
 463 -187 460 -173 456 -155 c 0
 400 89 l 0
 392 123 385 150 364 150 c 0
 309 150 255 94 255 29 c 0
 255 -26 282 -77 312 -101 c 0
 319 -107 322 -113 322 -118 c 0
 322 -123 319 -127 312 -127 c 0
 307 -127 301 -125 293 -120 c 0
 243 -89 190 -27 190 51 c 0
 190 130 232 197 293 238 c 0
 332 264 349 271 349 297 c 0
 349 306 347 318 343 334 c 0
363 656 m 0
 455 741 527 848 527 990 c 0
 527 1067 502 1139 474 1139 c 0
 422 1139 281 1008 281 805 c 0
 281 769 291 711 299 674 c 0
 305 643 314 631 325 631 c 0
 335 631 348 641 363 656 c 0
447 -267 m 0
 424 -267 394 -272 369 -272 c 0
 177 -272 0 -130 0 62 c 0
 0 286 129 415 248 541 c 0
 267 562 278 578 278 603 c 0
 278 614 276 626 272 640 c 0
 260 690 235 787 235 851 c 0
 235 1079 404 1274 431 1274 c 0
 455 1274 573 1099 573 946 c 0
 573 773 490 640 390 531 c 0
 362 501 355 477 355 450 c 0
 355 435 358 417 364 393 c 0
 376 342 l 0
 389 285 388 282 446 279 c 0
 591 271 711 157 711 11 c 0
 711 -91 652 -171 569 -220 c 0
 534 -240 519 -244 519 -269 c 0
 519 -277 521 -287 524 -300 c 0
 537 -363 549 -437 549 -494 c 0
 549 -571 514 -633 461 -666 c 0
 439 -680 440 -692 457 -707 c 0
 471 -721 480 -739 480 -764 c 0
 480 -802 453 -809 453 -828 c 0
 453 -848 487 -858 487 -901 c 0
 487 -946 442 -986 373 -986 c 0
 307 -986 260 -954 260 -900 c 0
 260 -859 292 -845 292 -827 c 0
 292 -809 265 -804 265 -761 c 0
 265 -740 274 -722 288 -709 c 0
 304 -695 303 -684 285 -676 c 0
 217 -646 172 -581 172 -512 c 0
 172 -436 219 -392 279 -392 c 0
 328 -392 371 -432 371 -489 c 0
 371 -536 332 -575 279 -575 c 0
 264 -575 250 -577 250 -592 c 0
 250 -627 307 -658 362 -658 c 0
 449 -658 511 -587 511 -489 c 0
 511 -432 501 -372 491 -318 c 0
 484 -279 480 -267 447 -267 c 0
372 -707 m 0
 346 -707 307 -713 307 -748 c 0
 307 -786 373 -806 402 -806 c 0
 432 -806 448 -779 448 -761 c 0
 448 -731 418 -707 372 -707 c 0
344 -852 m 0
 314 -852 291 -878 291 -902 c 0
 291 -938 332 -958 369 -958 c 0
 411 -958 441 -941 441 -911 c 0
 441 -880 388 -852 344 -852 c 0
EndSplineSet
EndChar

StartChar: uniF8F2
Encoding: 237 63730 198
Width: 711
Flags: HW
LayerCount: 2
Fore
SplineSet
447 -267 m 0
 424 -267 394 -272 369 -272 c 0
 177 -272 0 -130 0 62 c 0
 0 286 129 415 248 541 c 0
 267 562 278 578 278 603 c 0
 278 614 276 626 272 640 c 0
 260 690 235 787 235 851 c 0
 235 1079 404.5 1274 431 1274 c 0
 454.521 1274 573 1099.01 573 946 c 0
 573 773 490 640 390 531 c 0
 362 501 355 477 355 450 c 0
 355 435 358 417 364 393 c 0
 376 342 l 0
 389 285 388 282 446 279 c 0
 591 271 711 157 711 11 c 0
 711 -91 652 -171 569 -220 c 0
 534 -240 519 -244 519 -269 c 0
 519 -277 521 -287 524 -300 c 0
 537 -363 549 -437 549 -494 c 0
 549 -610 470 -693 366 -693 c 0
 254 -693 172 -605 172 -512 c 0
 172 -436 219 -392 279 -392 c 0
 328 -392 371 -432 371 -489 c 0
 371 -536 332 -575 279 -575 c 0
 264 -575 250 -577 250 -592 c 0
 250 -627 307 -658 362 -658 c 0
 449 -658 511 -587 511 -489 c 0
 511 -432 501 -372 491 -318 c 0
 484 -279 480 -267 447 -267 c 0
363 656 m 0
 455 741 527 848 527 990 c 0
 527 1067 502 1139 474 1139 c 0
 422 1139 281 1008 281 805 c 0
 281 769 291 711 299 674 c 0
 305 643 314 631 325 631 c 0
 335 631 348 641 363 656 c 0
343 334 m 0
 331.5 385.5 l 0
 324.5 416.5 316.5 430.5 303.5 430.5 c 0
 293.5 430.5 282.724 424.393 266.5 409.5 c 0
 169 320 64 213 64 59 c 0
 64 -104 204 -238 367 -238 c 0
 382 -238 397 -237 412 -235 c 0
 450 -230 463 -222 463 -198 c 0
 463 -187 460 -173 456 -155 c 0
 400 89 l 0
 392 123 385 150 364 150 c 0
 309 150 255 94 255 29 c 0
 255 -26 282 -77 312 -101 c 0
 319 -107 322 -113 322 -118 c 0
 322 -123 319 -127 312 -127 c 0
 307 -127 301 -125 293 -120 c 0
 243 -89 190 -27 190 51 c 0
 190 130 232 197 293 238 c 0
 332 264 349 271 349 297 c 0
 349 306 346.594 317.904 343 334 c 0
643 -11 m 0
 643 93.5 564.5 167 463 167 c 0
 424.9 167 422.462 135.152 431 101 c 0
 489 -150 l 0
 496 -179 505 -194 521 -194 c 0
 530 -194 542 -189 556 -178 c 0
 608 -139 643 -81 643 -11 c 0
476 1332 m 0
 476 1318 492 1317 505 1317 c 0
 541 1317 556 1340 556 1376 c 0
 556 1412 538 1432 505 1432 c 0
 484 1432 478 1429 466 1424 c 0
 456 1419 449 1412 442 1412 c 0
 434 1412 431 1416 431 1426 c 0
 431 1439 436 1462 436 1520 c 0
 436 1528 l 0
 436 1543 443 1547 456 1547 c 0
 471 1547 482 1541 527 1541 c 0
 548 1541 570 1545 580 1545 c 0
 584 1545 587 1542 587 1538 c 0
 587 1528 576 1520 566 1514 c 0
 552 1506 537 1503 517 1503 c 0
 504 1503 493 1505 474 1505 c 0
 459 1505 459 1483 459 1468 c 0
 459 1453 463 1451 468 1451 c 0
 482 1451 487 1456 522 1456 c 0
 568 1456 602 1428 602 1378 c 0
 602 1338 572 1294 503 1294 c 0
 464 1294 426 1313 426 1348 c 0
 426 1359 433 1375 452 1375 c 0
 467 1375 479 1367 479 1349 c 0
 479 1342 476 1339 476 1332 c 0
339 1548 m 0
 350 1548 351 1542 351 1531 c 0
 351 1348 l 0
 351 1317 372 1325 395 1321 c 0
 403 1319 404 1316 404 1312 c 0
 404 1310 l 0
 404 1302 403 1298 393 1298 c 0
 260 1298 l 0
 252 1298 250 1302 250 1309 c 0
 250 1313 251 1319 259 1320 c 0
 291 1324 308 1319 308 1353 c 0
 308 1441 l 0
 308 1455 305 1461 300 1461 c 0
 295 1461 290 1457 285 1451 c 0
 248 1410 l 0
 244 1405 241 1404 238 1404 c 0
 234 1404 231 1407 231 1412 c 0
 231 1415 232 1419 234 1422 c 0
 303 1537 l 0
 308 1545 314 1548 325 1548 c 0
 339 1548 l 0
EndSplineSet
EndChar

StartChar: uniF8F3
Encoding: 238 63731 199
Width: 727
Flags: HW
LayerCount: 2
Fore
SplineSet
292 270 m 0
 473 270 583 138 583 -37 c 0
 583 -348 225 -576 50 -617 c 0
 37 -620 26 -621 17 -621 c 0
 4 -621 0 -613 0 -608 c 0
 0 -600 12 -593 41 -585 c 0
 220 -535 469 -349 469 -36 c 0
 469 137 417 234 271 234 c 0
 172 234 103 163 103 122 c 0
 103 111 110 105 119 105 c 0
 139 105 149 111 171 111 c 0
 228 111 266 74 266 13 c 0
 266 -47 213 -92 153 -92 c 0
 83 -92 34 -33 34 42 c 0
 34 167 135 270 292 270 c 0
370.999 -836 m 0
 370.999 -850 386.999 -851 399.999 -851 c 0
 435.999 -851 450.999 -828 450.999 -792 c 0
 450.999 -756 432.999 -736 399.999 -736 c 0
 378.999 -736 372.999 -739 360.999 -744 c 0
 350.999 -749 343.999 -756 336.999 -756 c 0
 328.999 -756 325.999 -752 325.999 -742 c 0
 325.999 -729 330.999 -706 330.999 -648 c 0
 330.999 -640 l 0
 330.999 -625 337.999 -621 350.999 -621 c 0
 365.999 -621 376.999 -627 421.999 -627 c 0
 442.999 -627 464.999 -623 474.999 -623 c 0
 478.999 -623 481.999 -626 481.999 -630 c 0
 481.999 -640 470.999 -648 460.999 -654 c 0
 446.999 -662 431.999 -665 411.999 -665 c 0
 398.999 -665 387.999 -663 368.999 -663 c 0
 353.999 -663 353.999 -685 353.999 -700 c 0
 353.999 -715 357.999 -717 362.999 -717 c 0
 376.999 -717 381.999 -712 416.999 -712 c 0
 462.999 -712 496.999 -740 496.999 -790 c 0
 496.999 -830 466.999 -874 397.999 -874 c 0
 358.999 -874 320.999 -855 320.999 -820 c 0
 320.999 -809 327.999 -793 346.999 -793 c 0
 361.999 -793 373.999 -801 373.999 -819 c 0
 373.999 -826 370.999 -829 370.999 -836 c 0
233.999 -620 m 0
 244.999 -620 245.999 -626 245.999 -637 c 0
 245.999 -820 l 0
 245.999 -851 266.999 -843 289.999 -847 c 0
 297.999 -849 298.999 -852 298.999 -856 c 0
 298.999 -858 l 0
 298.999 -866 297.999 -870 287.999 -870 c 0
 154.999 -870 l 0
 146.999 -870 144.999 -866 144.999 -859 c 0
 144.999 -855 145.999 -849 153.999 -848 c 0
 185.999 -844 202.999 -849 202.999 -815 c 0
 202.999 -727 l 0
 202.999 -713 199.999 -707 194.999 -707 c 0
 189.999 -707 184.999 -711 179.999 -717 c 0
 142.999 -758 l 0
 138.999 -763 135.999 -764 132.999 -764 c 0
 128.999 -764 125.999 -761 125.999 -756 c 0
 125.999 -753 126.999 -749 128.999 -746 c 0
 197.999 -631 l 0
 202.999 -623 208.999 -620 219.999 -620 c 0
 233.999 -620 l 0
637 -120 m 0
 637 -95 657 -75 682 -75 c 0
 706 -75 727 -95 727 -120 c 0
 727 -145 706 -165 682 -165 c 0
 657 -165 637 -145 637 -120 c 0
637 120 m 0
 637 145 657 165 682 165 c 0
 706 165 727 145 727 120 c 0
 727 95 706 75 682 75 c 0
 657 75 637 95 637 120 c 0
EndSplineSet
EndChar

StartChar: uniF8F4
Encoding: 239 63732 200
Width: 506
Flags: HW
LayerCount: 2
Fore
SplineSet
168 271 m 0
 101 206 48 133 48 31 c 0
 48 -74 138 -165 265 -166 c 0
 294 -166 308 -160 308 -138 c 0
 308 -132 307 -125 305 -117 c 0
 267 69 l 0
 263 92 252 103 238 103 c 0
 231 103 222 99 214 92 c 0
 196 76 187 57 187 28 c 0
 187 -11 195 -27 209 -56 c 0
 212 -60 213 -64 213 -68 c 0
 213 -74 209 -78 204 -78 c 0
 199 -78 193 -74 188 -69 c 0
 167 -42 147 -6 147 49 c 0
 147 94 169 135 195 160 c 0
 222 186 235 193 235 217 c 0
 235 224 233 233 231 244 c 0
 226 268 l 0
 222 286 216 295 206 295 c 0
 196 295 184 287 168 271 c 0
257 -547 m 0
 192 -547 114 -504 114 -425 c 0
 114 -423 l 0
 114 -377 148 -342 188 -342 c 0
 226 -342 251 -370 251 -411 c 0
 251 -457 209 -466 209 -486 c 0
 209 -501 216 -517 259 -517 c 0
 325 -517 356 -458 356 -406 c 0
 356 -391 355 -367 351 -348 c 0
 328 -235 l 0
 321 -199 309 -197 265 -197 c 0
 109 -196 0 -76 0 65 c 0
 0 186 72 270 152 350 c 0
 180 378 192 395 192 423 c 0
 192 434 190 447 186 464 c 0
 172 535 l 0
 165 570 162 605 162 641 c 0
 162 755 195 868 252 939 c 0
 267 958 280 968 284 968 c 0
 302 968 339 916 364 842 c 0
 389 767 403 690 389 603 c 0
 374 514 335 450 289 393 c 0
 265 364 252 345 252 318 c 0
 252 310 253 303 255 294 c 0
 263 255 l 0
 270 215 270 209 327 204 c 0
 424 196 506 126 506 17 c 0
 506 -65 460 -130 395 -166 c 0
 368 -180 357 -186 357 -204 c 0
 357 -210 358 -217 360 -226 c 0
 381 -329 l 0
 387 -355 388 -376 388 -402 c 0
 387 -474 351 -547 257 -547 c 0
277 483 m 0
 309 527 330 569 345 624 c 0
 365 695 356 773 331 834 c 0
 324 851 315 861 310 861 c 0
 301 861 290 852 279 839 c 0
 241 795 196 725 196 622 c 0
 196 597 198 571 204 543 c 0
 213 495 l 0
 219 469 226 451 239 451 c 0
 249 451 261 461 277 483 c 0
300 71 m 0
 336 -104 l 0
 342 -130 348 -146 363 -146 c 0
 370 -146 379 -142 389 -136 c 0
 431 -109 455 -69 455 -8 c 0
 455 66 407 104 346 119 c 0
 336 121 328 123 321 123 c 0
 304 123 297 114 297 97 c 0
 297 90 298 81 300 71 c 0
296 1049 m 0
 309 1049 317 1039 317 1025 c 0
 317 1021 l 0
 317 1010 329 1007 339 1007 c 0
 364 1007 380 1022 380 1051 c 0
 380 1080 365 1094 339 1094 c 0
 322 1094 318 1092 308 1088 c 0
 300 1084 295 1080 289 1080 c 0
 283 1080 280 1083 280 1091 c 0
 280 1101 282 1121 282 1167 c 0
 282 1173 l 0
 282 1185 288 1188 300 1188 c 0
 312 1188 317 1183 353 1183 c 0
 370 1183 389 1188 397 1188 c 0
 400 1188 403 1185 403 1182 c 0
 403 1174 396 1167 388 1162 c 0
 377 1156 366 1152 347 1152 c 0
 337 1152 329 1154 314 1154 c 0
 302 1154 303 1138 303 1126 c 0
 303 1114 306 1112 310 1112 c 0
 321 1112 325 1116 353 1116 c 0
 390 1116 417 1093 417 1053 c 0
 417 1021 393 986 338 986 c 0
 309 986 276 999 276 1028 c 0
 276 1039 283 1049 296 1049 c 0
206 1189 m 0
 215 1189 216 1188 216 1175 c 0
 216 1034 l 0
 216 1009 234 1015 254 1012 c 0
 261 1010 262 1005 262 1002 c 0
 262 999 l 0
 262 994 262 989 253 989 c 0
 141 989 l 0
 134 989 131 994 131 1000 c 0
 131 1005 133 1010 140 1011 c 0
 170 1014 182 1011 182 1038 c 0
 182 1104 l 0
 182 1114 179 1118 174 1118 c 0
 171 1118 167 1116 163 1112 c 0
 126 1077 l 0
 124 1075 122 1074 119 1074 c 0
 115 1074 111 1077 111 1082 c 0
 111 1084 112 1086 113 1088 c 0
 178 1180 l 0
 182 1186 186 1189 195 1189 c 0
 206 1189 l 0
EndSplineSet
EndChar

StartChar: uniF8FF
Encoding: 240 63743 201
Width: 560
Flags: HW
LayerCount: 2
Fore
SplineSet
268 -593 m 0
 281 -593 289 -603 289 -617 c 0
 289 -621 l 0
 289 -632 301 -635 311 -635 c 0
 336 -635 352 -620 352 -591 c 0
 352 -562 337 -548 311 -548 c 0
 294 -548 290 -550 280 -554 c 0
 272 -558 267 -562 261 -562 c 0
 255 -562 252 -559 252 -551 c 0
 252 -541 254 -521 254 -475 c 0
 254 -469 l 0
 254 -457 260 -454 272 -454 c 0
 284 -454 289 -459 325 -459 c 0
 342 -459 361 -454 369 -454 c 0
 372 -454 375 -457 375 -460 c 0
 375 -468 368 -475 360 -480 c 0
 349 -486 338 -490 319 -490 c 0
 309 -490 301 -488 286 -488 c 0
 274 -488 275 -504 275 -516 c 0
 275 -528 278 -530 282 -530 c 0
 293 -530 297 -526 325 -526 c 0
 362 -526 389 -549 389 -589 c 0
 389 -621 365 -656 310 -656 c 0
 281 -656 248 -643 248 -614 c 0
 248 -603 255 -593 268 -593 c 0
178 -453 m 0
 187 -453 188 -458 188 -467 c 0
 188 -608 l 0
 188 -633 206 -627 226 -630 c 0
 233 -632 234 -637 234 -640 c 0
 234 -643 l 0
 234 -648 234 -653 225 -653 c 0
 113 -653 l 0
 106 -653 103 -648 103 -642 c 0
 103 -637 105 -632 112 -631 c 0
 142 -628 154 -631 154 -604 c 0
 154 -538 l 0
 154 -528 151 -524 146 -524 c 0
 143 -524 139 -526 135 -530 c 0
 98 -565 l 0
 96 -567 94 -568 91 -568 c 0
 87 -568 83 -565 83 -560 c 0
 83 -558 84 -556 85 -554 c 0
 150 -462 l 0
 154 -456 158 -453 167 -453 c 0
 178 -453 l 0
488 -109 m 0
 488 -89 504 -73 524 -73 c 0
 544 -73 560 -89 560 -109 c 0
 560 -128 544 -144 524 -144 c 0
 504 -144 488 -128 488 -109 c 0
488 109 m 0
 488 128 504 144 524 144 c 0
 544 144 560 128 560 109 c 0
 560 89 544 73 524 73 c 0
 504 73 488 89 488 109 c 0
226 215 m 0
 367 215 448 110 448 -5 c 0
 448 -212 190 -403 25 -444 c 0
 21 -445 18 -445 15 -445 c 0
 6 -445 0 -441 0 -435 c 0
 0 -429 6 -421 19 -416 c 0
 213 -332 357 -207 357 5 c 0
 357 108 317 182 214 182 c 0
 142 182 84 145 84 100 c 0
 84 78 106 78 119 75 c 0
 158 66 178 44 178 7 c 0
 178 -32 151 -63 106 -63 c 0
 55 -63 23 -11 23 43 c 0
 23 143 116 215 226 215 c 0
EndSplineSet
EndChar

StartChar: uni0000
Encoding: 0 202 202
Width: 276
Flags: HW
LayerCount: 2
Fore
SplineSet
30 152 m 0
 260 18 l 0
 270 12 276 8 276 2 c 0
 276 -2 270 -8 258 -14 c 0
 28 -148 l 0
 22 -152 16 -154 12 -154 c 0
 4 -154 0 -146 0 -132 c 0
 0 142 l 0
 0 154 4 158 10 158 c 0
 16 158 22 156 30 152 c 0
EndSplineSet
EndChar

StartChar: uni0000
Encoding: 0 203 203
Width: 383
Flags: HW
LayerCount: 2
Fore
SplineSet
0 116 m 0
 0 133 0 135 15 135 c 0
 357 135 l 0
 373 135 383 130 383 122 c 0
 383 116 377 108 364 100 c 0
 23 -127 l 0
 16 -132 11 -135 7 -135 c 0
 2 -135 0 -130 0 -118 c 0
 0 116 l 0
EndSplineSet
EndChar

StartChar: dotmath
Encoding: 215 8901 204
Width: 318
Flags: HW
LayerCount: 2
Fore
SplineSet
-83 0 m 0
 -83 -132 23 -241 159 -241 c 0
 291 -241 401 -135 401 0 c 0
 401 132 295 241 159 241 c 0
 27 241 -83 135 -83 0 c 0
-115 0 m 0
 -115 154 10 273 159 273 c 0
 312 273 433 149 433 0 c 0
 433 -154 308 -273 159 -273 c 0
 6 -273 -115 -149 -115 0 c 0
86 99 m 0
 117 122 170 143 218 143 c 0
 251 143 282 133 301 107 c 0
 313 91 318 73 318 54 c 0
 318 -4 273 -68 234 -98 c 0
 203 -121 149 -143 100 -143 c 0
 67 -143 36 -133 17 -107 c 0
 5 -91 0 -73 0 -54 c 0
 0 4 47 69 86 99 c 0
EndSplineSet
EndChar

StartChar: uni0000
Encoding: 0 0 205
Width: 383
Flags: HW
LayerCount: 2
Fore
SplineSet
0 116 m 0
 0 133 0 135 15 135 c 0
 357 135 l 0
 373 135 383 130 383 122 c 0
 383 116 377 108 364 100 c 0
 23 -127 l 0
 16 -132 11 -135 7 -135 c 0
 2 -135 0 -130 0 -118 c 0
 0 116 l 0
EndSplineSet
EndChar

StartChar: angleright
Encoding: 241 9002 206
Width: 711
Flags: HW
LayerCount: 2
Fore
SplineSet
264 267 m 0
 287 267 317 272 342 272 c 0
 534 272 711 138 711 -54 c 0
 711 -277 590 -414 463 -537 c 0
 443 -557 433 -574 433 -599 c 0
 433 -610 434 -622 438 -636 c 0
 450 -686 476 -787 476 -851 c 0
 476 -1079 312 -1266 278 -1266 c 0
 249 -1266 138 -1093 138 -946 c 0
 138 -773 221 -649 321 -540 c 0
 349 -510 360 -492 360 -465 c 0
 360 -450 357 -432 351 -408 c 0
 335 -342 l 0
 322 -285 323 -282 265 -279 c 0
 120 -271 0 -157 0 -11 c 0
 0 91 59 171 142 220 c 0
 177 240 192 244 192 269 c 0
 192 277 190 287 187 300 c 0
 174 363 162 437 162 494 c 0
 162 610 241 693 345 693 c 0
 457 693 539 605 539 512 c 0
 539 438 490 399 436 399 c 0
 388 399 350 433 350 491 c 0
 350 535 389 567 433 567 c 0
 448 567 465 572 465 587 c 0
 465 624 404 658 349 658 c 0
 262 658 200 587 200 489 c 0
 200 432 210 372 220 318 c 0
 227 279 231 267 264 267 c 0
346 -652 m 0
 254 -745 184 -848 184 -990 c 0
 184 -1067 212 -1146 240 -1146 c 0
 292 -1146 430 -1008 430 -805 c 0
 430 -769 422 -720 411 -668 c 0
 404 -638 397 -624 386 -624 c 0
 376 -624 364 -634 346 -652 c 0
368 -334 m 0
 382 -396 l 0
 389 -427 396 -439 407 -439 c 0
 419 -439 434 -424 458 -400 c 0
 560 -295 647 -191 647 -51 c 0
 647 112 507 238 344 238 c 0
 329 238 314 237 299 235 c 0
 261 230 248 222 248 198 c 0
 248 187 251 173 255 155 c 0
 313 -99 l 0
 321 -133 328 -157 349 -157 c 0
 359 -157 372 -152 389 -141 c 0
 429 -116 456 -79 456 -29 c 0
 456 26 429 77 399 101 c 0
 392 107 389 113 389 118 c 0
 389 123 392 127 399 127 c 0
 404 127 410 125 418 120 c 0
 468 89 521 27 521 -51 c 0
 521 -130 479 -197 418 -238 c 0
 379 -264 362 -271 362 -297 c 0
 362 -306 364 -318 368 -334 c 0
68 11 m 0
 68 -88 146 -176 251 -176 c 0
 276 -176 287 -166 287 -143 c 0
 287 -135 286 -126 283 -114 c 0
 222 150 l 0
 215 179 206 194 190 194 c 0
 181 194 169 189 155 178 c 0
 103 139 68 81 68 11 c 0
EndSplineSet
EndChar

StartChar: integral
Encoding: 242 8747 207
Width: 711
Flags: HW
LayerCount: 2
Fore
SplineSet
447 267 m 0
 480 267 484 279 491 318 c 0
 501 372 511 432 511 489 c 0
 511 587 449 658 362 658 c 0
 307 658 246 624 246 587 c 0
 246 572 263 567 278 567 c 0
 322 567 361 535 361 491 c 0
 361 433 323 399 275 399 c 0
 221 399 172 438 172 512 c 0
 172 605 254 693 366 693 c 0
 470 693 549 610 549 494 c 0
 549 437 537 363 524 300 c 0
 521 287 519 277 519 269 c 0
 519 244 534 240 569 220 c 0
 652 171 711 91 711 -11 c 0
 711 -157 591 -271 446 -279 c 0
 388 -282 389 -285 376 -342 c 0
 360 -408 l 0
 354 -432 351 -450 351 -465 c 0
 351 -492 362 -510 390 -540 c 0
 490 -649 573 -773 573 -946 c 0
 573 -1093 462 -1266 433 -1266 c 0
 399 -1266 235 -1079 235 -851 c 0
 235 -787 261 -686 273 -636 c 0
 277 -622 278 -610 278 -599 c 0
 278 -574 268 -557 248 -537 c 0
 121 -414 0 -277 0 -54 c 0
 0 138 177 272 369 272 c 0
 394 272 424 267 447 267 c 0
365 -652 m 0
 347 -634 335 -624 325 -624 c 0
 314 -624 307 -638 300 -668 c 0
 289 -720 281 -769 281 -805 c 0
 281 -1008 419 -1146 471 -1146 c 0
 499 -1146 527 -1067 527 -990 c 0
 527 -848 457 -745 365 -652 c 0
343 -334 m 0
 347 -318 349 -306 349 -297 c 0
 349 -271 332 -264 293 -238 c 0
 232 -197 190 -130 190 -51 c 0
 190 27 243 89 293 120 c 0
 301 125 307 127 312 127 c 0
 319 127 322 123 322 118 c 0
 322 113 319 107 312 101 c 0
 282 77 255 26 255 -29 c 0
 255 -79 282 -116 322 -141 c 0
 339 -152 352 -157 362 -157 c 0
 383 -157 390 -133 398 -99 c 0
 456 155 l 0
 460 173 463 187 463 198 c 0
 463 222 450 230 412 235 c 0
 397 237 382 238 367 238 c 0
 204 238 64 112 64 -51 c 0
 64 -191 151 -295 253 -400 c 0
 277 -424 292 -439 304 -439 c 0
 315 -439 322 -427 329 -396 c 0
 343 -334 l 0
643 11 m 0
 643 81 608 139 556 178 c 0
 542 189 530 194 521 194 c 0
 505 194 496 179 489 150 c 0
 428 -114 l 0
 425 -126 424 -135 424 -143 c 0
 424 -166 435 -176 460 -176 c 0
 565 -176 643 -88 643 11 c 0
EndSplineSet
EndChar

StartChar: integraltp
Encoding: 243 8992 208
Width: 711
Flags: HW
LayerCount: 2
Fore
SplineSet
264 -267 m 0
 231 -267 227 -279 220 -318 c 0
 210 -372 200 -432 200 -489 c 0
 200 -587 262 -658 349 -658 c 0
 404 -658 465 -624 465 -587 c 0
 465 -572 448 -567 433 -567 c 0
 389 -567 350 -535 350 -491 c 0
 350 -433 388 -399 436 -399 c 0
 490 -399 539 -438 539 -512 c 0
 539 -605 457 -693 345 -693 c 0
 241 -693 162 -610 162 -494 c 0
 162 -437 174 -363 187 -300 c 0
 190 -287 192 -277 192 -269 c 0
 192 -244 177 -240 142 -220 c 0
 59 -171 0 -91 0 11 c 0
 0 157 120 271 265 279 c 0
 323 282 322 285 335 342 c 0
 351 408 l 0
 357 432 360 450 360 465 c 0
 360 492 349 510 321 540 c 0
 221 649 138 773 138 946 c 0
 138 1093 249 1266 278 1266 c 0
 312 1266 476 1079 476 851 c 0
 476 787 450 686 438 636 c 0
 434 622 433 610 433 599 c 0
 433 574 443 557 463 537 c 0
 590 414 711 277 711 54 c 0
 711 -138 534 -272 342 -272 c 0
 317 -272 287 -267 264 -267 c 0
346 652 m 0
 364 634 376 624 386 624 c 0
 397 624 404 638 411 668 c 0
 422 720 430 769 430 805 c 0
 430 1008 292 1146 240 1146 c 0
 212 1146 184 1067 184 990 c 0
 184 848 254 745 346 652 c 0
368 334 m 0
 364 318 362 306 362 297 c 0
 362 271 379 264 418 238 c 0
 479 197 521 130 521 51 c 0
 521 -27 468 -89 418 -120 c 0
 410 -125 404 -127 399 -127 c 0
 392 -127 389 -123 389 -118 c 0
 389 -113 392 -107 399 -101 c 0
 429 -77 456 -26 456 29 c 0
 456 79 429 116 389 141 c 0
 372 152 359 157 349 157 c 0
 328 157 321 133 313 99 c 0
 255 -155 l 0
 251 -173 248 -187 248 -198 c 0
 248 -222 261 -230 299 -235 c 0
 314 -237 329 -238 344 -238 c 0
 507 -238 647 -112 647 51 c 0
 647 191 560 295 458 400 c 0
 434 424 419 439 407 439 c 0
 396 439 389 427 382 396 c 0
 368 334 l 0
68 -11 m 0
 68 -81 103 -139 155 -178 c 0
 169 -189 181 -194 190 -194 c 0
 206 -194 215 -179 222 -150 c 0
 283 114 l 0
 286 126 287 135 287 143 c 0
 287 166 276 176 251 176 c 0
 146 176 68 88 68 -11 c 0
EndSplineSet
EndChar

StartChar: uniF8F5
Encoding: 244 63733 209
Width: 727
Flags: HW
LayerCount: 2
Fore
SplineSet
90 120 m 0
 90 95 70 75 45 75 c 0
 21 75 0 95 0 120 c 0
 0 145 21 165 45 165 c 0
 70 165 90 145 90 120 c 0
90 -120 m 0
 90 -145 70 -165 45 -165 c 0
 21 -165 0 -145 0 -120 c 0
 0 -95 21 -75 45 -75 c 0
 70 -75 90 -95 90 -120 c 0
435 -270 m 0
 254 -270 144 -138 144 37 c 0
 144 348 502 576 677 617 c 0
 690 620 701 621 710 621 c 0
 723 621 727 613 727 608 c 0
 727 600 715 593 686 585 c 0
 507 535 258 349 258 36 c 0
 258 -137 310 -234 456 -234 c 0
 555 -234 624 -163 624 -122 c 0
 624 -111 617 -105 608 -105 c 0
 588 -105 578 -111 556 -111 c 0
 499 -111 461 -74 461 -13 c 0
 461 47 514 92 574 92 c 0
 644 92 693 33 693 -42 c 0
 693 -167 592 -270 435 -270 c 0
EndSplineSet
EndChar

StartChar: integralbt
Encoding: 245 8993 210
Width: 727
Flags: HW
LayerCount: 2
Fore
SplineSet
637 120 m 0
 637 145 657 165 682 165 c 0
 706 165 727 145 727 120 c 0
 727 95 706 75 682 75 c 0
 657 75 637 95 637 120 c 0
637 -120 m 0
 637 -95 657 -75 682 -75 c 0
 706 -75 727 -95 727 -120 c 0
 727 -145 706 -165 682 -165 c 0
 657 -165 637 -145 637 -120 c 0
292 -270 m 0
 135 -270 34 -167 34 -42 c 0
 34 33 83 92 153 92 c 0
 213 92 266 47 266 -13 c 0
 266 -74 228 -111 171 -111 c 0
 149 -111 139 -105 119 -105 c 0
 110 -105 103 -111 103 -122 c 0
 103 -163 172 -234 271 -234 c 0
 417 -234 469 -137 469 36 c 0
 469 349 220 535 41 585 c 0
 12 593 0 600 0 608 c 0
 0 613 4 621 17 621 c 0
 26 621 37 620 50 617 c 0
 225 576 583 348 583 37 c 0
 583 -138 473 -270 292 -270 c 0
EndSplineSet
EndChar

StartChar: uniF8F6
Encoding: 246 63734 211
Width: 727
Flags: HW
LayerCount: 2
Fore
SplineSet
90 -120 m 0
 90 -145 70 -165 45 -165 c 0
 21 -165 0 -145 0 -120 c 0
 0 -95 21 -75 45 -75 c 0
 70 -75 90 -95 90 -120 c 0
90 120 m 0
 90 95 70 75 45 75 c 0
 21 75 0 95 0 120 c 0
 0 145 21 165 45 165 c 0
 70 165 90 145 90 120 c 0
435 270 m 0
 592 270 693 167 693 42 c 0
 693 -33 644 -92 574 -92 c 0
 514 -92 461 -47 461 13 c 0
 461 74 499 111 556 111 c 0
 578 111 588 105 608 105 c 0
 617 105 624 111 624 122 c 0
 624 163 555 234 456 234 c 0
 310 234 258 137 258 -36 c 0
 258 -349 507 -535 686 -585 c 0
 715 -593 727 -600 727 -608 c 0
 727 -613 723 -621 710 -621 c 0
 701 -621 690 -620 677 -617 c 0
 502 -576 144 -348 144 -37 c 0
 144 138 254 270 435 270 c 0
EndSplineSet
EndChar

StartChar: uniF8F7
Encoding: 247 63735 212
Width: 679
Flags: HW
LayerCount: 2
Fore
SplineSet
336 -66 m 0
 312 -114 305 -112 273 -95 c 0
 251 -83 227 -74 182 -74 c 0
 70 -74 0 -183 0 -303 c 0
 0 -426 86 -526 222 -526 c 0
 306 -526 408 -475 408 -380 c 0
 408 -345 384.406 -311 349 -311 c 0
 315.052 -311 285 -336 285 -370 c 0
 285 -424 329 -416 329 -441 c 0
 329 -465 290 -491 233 -491 c 0
 142 -491 110 -416 110 -309 c 0
 110 -209 128 -114 216 -114 c 0
 272 -114 315 -158 322 -228 c 0
 325 -260 329 -270 342 -270 c 0
 354 -270 357 -259 359 -233 c 0
 362 -202 385 -104 414 -61 c 0
 436 -29 458 -38 458 -76 c 0
 458 -489 l 0
 458 -509 460 -515 481 -515 c 0
 505 -515 505 -510 505 -491 c 0
 505 491 l 0
 505 510 505 515 481 515 c 0
 460 515 458 509 458 489 c 0
 458 76 l 0
 458 38 436 29 414 61 c 0
 385 104 362 202 359 233 c 0
 357 259 354 270 342 270 c 0
 329 270 325 260 322 228 c 0
 315 158 272 114 216 114 c 0
 128 114 110 209 110 309 c 0
 110 416 142 491 233 491 c 0
 290 491 329 465 329 441 c 0
 329 416 285 424 285 370 c 0
 285 336 315.052 311 349 311 c 0
 384.406 311 408 345 408 380 c 0
 408 475 306 526 222 526 c 0
 86 526 0 426 0 303 c 0
 0 183 70 74 182 74 c 0
 227 74 251 83 273 95 c 0
 305 112 312 114 336 66 c 0
 353 33 361 16 361 0 c 0
 361 -16 353 -33 336 -66 c 0
575 -490 m 0
 575 -511 582 -515 601 -515 c 0
 648 -515 l 0
 676 -515 679 -508 679 -492 c 0
 679 492 l 0
 679 508 676 515 648 515 c 0
 601 515 l 0
 582 515 575 511 575 490 c 0
 575 -490 l 0
EndSplineSet
EndChar

StartChar: uniF8F8
Encoding: 248 63736 213
Width: 296
Flags: HW
LayerCount: 2
Fore
SplineSet
30 427 m 0
 30 494 85 545 148 545 c 0
 215 545 266 490 266 427 c 0
 266 376 234 335 192 318 c 0
 171 309 167 306 167 285 c 0
 167 18 l 0
 167 1 165 0 151 0 c 0
 147 0 l 0
 131 0 129 0 129 18 c 0
 129 285 l 0
 129 304 127 309 107 316 c 0
 61 333 30 378 30 427 c 0
63 427 m 0
 63 382 99 342 148 342 c 0
 193 342 233 378 233 427 c 0
 233 472 197 512 148 512 c 0
 103 512 63 476 63 427 c 0
EndSplineSet
EndChar

StartChar: uniF8F9
Encoding: 249 63737 214
Width: 296
Flags: HW
LayerCount: 2
Fore
SplineSet
30 427 m 0
 30 494 85 545 148 545 c 0
 215 545 266 490 266 427 c 0
 266 376 234 335 192 318 c 0
 171 309 167 306 167 285 c 0
 167 18 l 0
 167 1 165 0 151 0 c 0
 147 0 l 0
 131 0 129 0 129 18 c 0
 129 285 l 0
 129 304 127 309 107 316 c 0
 61 333 30 378 30 427 c 0
EndSplineSet
EndChar

StartChar: uniF8FA
Encoding: 250 63738 215
Width: 296
Flags: HW
LayerCount: 2
Fore
SplineSet
102 370 m 0
 94 364 99 357 103 355 c 0
 105 353 111 349 119 356 c 0
 223 443 l 0
 231 450 228 456 227 459 c 0
 225 463 220 469 212 463 c 0
 102 370 l 0
164 357 m 0
 151 346 162 342 175 347 c 0
 184 349 194 355 203 362 c 0
 211 369 217 377 223 386 c 0
 229 399 227 410 214 399 c 0
 164 357 l 0
194 484 m 0
 202 490 197 497 193 499 c 0
 190 501 185 505 177 498 c 0
 73 411 l 0
 65 404 67 399 69 395 c 0
 71 391 76 385 84 391 c 0
 194 484 l 0
132 497 m 0
 145 508 134 512 121 507 c 0
 111 504 102 499 93 492 c 0
 85 485 79 477 73 468 c 0
 67 455 69 444 82 455 c 0
 132 497 l 0
30 427 m 0
 30 494 85 545 148 545 c 0
 215 545 266 490 266 427 c 0
 266 376 234 335 192 318 c 0
 171 309 167 306 167 285 c 0
 167 18 l 0
 167 1 165 0 151 0 c 0
 147 0 l 0
 131 0 129 0 129 18 c 0
 129 285 l 0
 129 304 127 309 107 316 c 0
 61 333 30 378 30 427 c 0
EndSplineSet
EndChar

StartChar: uniF8FB
Encoding: 251 63739 216
Width: 366
Flags: HW
LayerCount: 2
Fore
SplineSet
5 212 m 0
 5 302 62 350 134 365 c 0
 154 369 165 376 165 395 c 0
 165 494 l 0
 165 508 167 510 183 510 c 0
 199 510 201 508 201 495 c 0
 201 396 l 0
 201 373 209 370 228 367 c 0
 307 355 366 312 366 249 c 0
 366 208 340 183 308 183 c 0
 275 183 254 207 254 237 c 0
 254 262 270 278 270 299 c 0
 270 314 256 327 230 333 c 0
 210 338 201 334 201 309 c 0
 201 69 l 0
 201 36 207 30 223 14 c 0
 308 -70 361 -136 361 -212 c 0
 361 -302 304 -350 232 -365 c 0
 212 -369 201 -376 201 -395 c 0
 201 -494 l 0
 201 -508 199 -510 183 -510 c 0
 167 -510 165 -508 165 -495 c 0
 165 -396 l 0
 165 -373 157 -370 138 -367 c 0
 59 -355 0 -312 0 -249 c 0
 0 -208 26 -183 58 -183 c 0
 91 -183 112 -207 112 -237 c 0
 112 -262 96 -278 96 -299 c 0
 96 -314 110 -327 136 -333 c 0
 156 -338 165 -334 165 -309 c 0
 165 -69 l 0
 165 -36 159 -31 143 -14 c 0
 59 71 5 135 5 212 c 0
201 -132 m 0
 201 -306 l 0
 201 -332 208 -338 230 -330 c 0
 265 -317 288 -287 288 -241 c 0
 288 -195 273 -160 244 -122 c 0
 222 -92 201 -84 201 -132 c 0
165 132 m 0
 165 306 l 0
 165 332 158 338 136 330 c 0
 101 317 78 287 78 241 c 0
 78 195 93 160 122 122 c 0
 144 92 165 84 165 132 c 0
EndSplineSet
EndChar

StartChar: uniF8FC
Encoding: 252 63740 217
Width: 274
Flags: W
HStem: 204 83<119.605 154.411>
VStem: 0 34<-9.12988 2> 239 35<-9.23438 3>
LayerCount: 2
Fore
SplineSet
274 6 m 0
 274 -1 260 -10 252 -10 c 0
 246 -10 243 -6 239 3 c 0
 157 179 l 0
 149 196 143 204 137 204 c 0
 131 204 125 196 117 178 c 0
 34 2 l 0
 31 -6 28 -10 22 -10 c 0
 13 -10 0 -1 0 5 c 0
 0 7 1 11 3 15 c 0
 119 264 l 0
 126 280 132 287 137 287 c 0
 143 287 149 278 156 262 c 0
 271 16 l 0
 273 12 274 8 274 6 c 0
EndSplineSet
EndChar

StartChar: uniF8FD
Encoding: 253 63741 218
Width: 250
Flags: W
HStem: -14 35<73.5215 176.689>
VStem: 0 35<64.5276 153 265 279.997> 215 35<64.5276 153 264 279.999>
LayerCount: 2
Fore
SplineSet
125 -14 m 0
 200 -14 250 35 250 147 c 0
 250 265 l 0
 250 278 247 280 232 280 c 0
 217 280 215 278 215 264 c 0
 215 153 l 0
 215 58 179 21 125 21 c 0
 71 21 35 58 35 153 c 0
 35 265 l 0
 35 276 34 280 17 280 c 0
 3 280 0 278 0 268 c 0
 0 147 l 0
 0 35 51 -14 125 -14 c 0
EndSplineSet
EndChar

StartChar: uniF8FE
Encoding: 254 63742 219
Width: 0
Flags: HW
LayerCount: 2
Fore
SplineSet
218.877 376.903 m 2
 74.833 377.439 l 2
 58.81 376.564 63.5 355.374 79.2617 355.048 c 2
 214.854 355.252 l 2
 231.99 354.896 233.8 377.721 218.877 376.903 c 2
179.738 327.093 m 2
 114.439 327.127 l 2
 97.4102 327.197 102.948 317.485 115.901 311.383 c 1
 126.282 308.346 136.021 306.074 146.648 305.854 c 0
 158.043 306.276 169.56 308.108 177.74 312.361 c 1
 190.912 316.887 196.768 327.022 179.738 327.093 c 2
75.123 405.097 m 2
 219.167 404.561 l 2
 229.152 405.106 229.126 412.917 228.087 417.267 c 0
 227.048 421.616 225.366 426.732 214.738 426.952 c 2
 79.146 426.748 l 2
 62.6431 427.091 59.9366 404.267 75.123 405.097 c 2
114.262 454.908 m 2
 179.561 454.873 l 2
 196.59 454.803 191.052 464.515 178.099 470.617 c 1
 167.718 473.654 157.979 475.926 147.352 476.146 c 0
 135.957 475.724 125.849 473.769 116.26 469.639 c 0
 103.088 465.113 97.2324 454.978 114.262 454.908 c 2
456 -3 m 0
 453 -3 450 0 444 7 c 2
 224 270 l 2
 216 280 211 283 204 283 c 0
 199 283 193 282 184 279 c 0
 172 275 160 273 147 273 c 0
 114 273 81 287 57 315 c 0
 39 336 30 363 30 390 c 0
 30 424 44 457 72 481 c 0
 94 499 121 509 148 509 c 0
 181 509 214 495 238 467 c 0
 256 445 266 418 266 391 c 0
 266 371 261 350 250 332 c 0
 246 324 243 319 243 314 c 0
 243 308 247 302 254 294 c 2
 473 32 l 2
 479 26 481 22 481 19 c 0
 481 14 463 -3 456 -3 c 0
EndSplineSet
EndChar

StartChar: caron
Encoding: 255 711 220
Width: 581
Flags: HW
LayerCount: 2
Fore
SplineSet
155 -3 m 0
 148 -3 130 14 130 19 c 0
 130 22 132 26 138 32 c 0
 357 294 l 0
 364 302 368 308 368 314 c 0
 368 319 365 324 361 332 c 0
 350 350 345 371 345 391 c 0
 345 418 355 445 373 467 c 0
 397 495 430 509 463 509 c 0
 490 509 517 499 539 481 c 0
 567 457 581 424 581 390 c 0
 581 363 572 336 554 315 c 0
 530 287 497 273 464 273 c 0
 451 273 439 275 427 279 c 0
 418 282 412 283 407 283 c 0
 400 283 395 280 387 270 c 0
 167 7 l 0
 161 0 158 -3 155 -3 c 0
463 476 m 0
 420 476 378 438 378 391 c 0
 378 347 416 306 464 306 c 0
 508 306 548 344 548 391 c 0
 548 415 538 439 518 456 c 0
 502 469 483 476 463 476 c 0
EndSplineSet
EndChar

